G04 #@! TF.GenerationSoftware,KiCad,Pcbnew,(5.1.0)-1*
G04 #@! TF.CreationDate,2020-05-09T23:37:49+02:00*
G04 #@! TF.ProjectId,Token,546f6b65-6e2e-46b6-9963-61645f706362,rev?*
G04 #@! TF.SameCoordinates,Original*
G04 #@! TF.FileFunction,Copper,L1,Top*
G04 #@! TF.FilePolarity,Positive*
%FSLAX46Y46*%
G04 Gerber Fmt 4.6, Leading zero omitted, Abs format (unit mm)*
G04 Created by KiCad (PCBNEW (5.1.0)-1) date 2020-05-09 23:37:49*
%MOMM*%
%LPD*%
G04 APERTURE LIST*
G04 #@! TA.AperFunction,NonConductor*
%ADD10C,0.050000*%
G04 #@! TD*
G04 #@! TA.AperFunction,Conductor*
%ADD11C,0.100000*%
G04 #@! TD*
G04 #@! TA.AperFunction,SMDPad,CuDef*
%ADD12C,0.590000*%
G04 #@! TD*
G04 #@! TA.AperFunction,SMDPad,CuDef*
%ADD13C,1.250000*%
G04 #@! TD*
G04 #@! TA.AperFunction,ComponentPad*
%ADD14R,1.700000X1.700000*%
G04 #@! TD*
G04 #@! TA.AperFunction,ComponentPad*
%ADD15O,1.700000X1.700000*%
G04 #@! TD*
G04 #@! TA.AperFunction,SMDPad,CuDef*
%ADD16R,0.600000X1.500000*%
G04 #@! TD*
G04 #@! TA.AperFunction,ViaPad*
%ADD17C,0.800000*%
G04 #@! TD*
G04 #@! TA.AperFunction,Conductor*
%ADD18C,0.250000*%
G04 #@! TD*
G04 #@! TA.AperFunction,Conductor*
%ADD19C,0.254000*%
G04 #@! TD*
G04 APERTURE END LIST*
D10*
X138049000Y-49149000D02*
X138049000Y-48133000D01*
X170434000Y-49149000D02*
X138049000Y-49149000D01*
X138049000Y-35433000D02*
X138049000Y-48133000D01*
X170434000Y-35433000D02*
X138049000Y-35433000D01*
X170434000Y-49149000D02*
X170434000Y-35433000D01*
D11*
G04 #@! TO.N,VCC*
G04 #@! TO.C,D4*
G36*
X153983958Y-39329710D02*
G01*
X153998276Y-39331834D01*
X154012317Y-39335351D01*
X154025946Y-39340228D01*
X154039031Y-39346417D01*
X154051447Y-39353858D01*
X154063073Y-39362481D01*
X154073798Y-39372202D01*
X154083519Y-39382927D01*
X154092142Y-39394553D01*
X154099583Y-39406969D01*
X154105772Y-39420054D01*
X154110649Y-39433683D01*
X154114166Y-39447724D01*
X154116290Y-39462042D01*
X154117000Y-39476500D01*
X154117000Y-39771500D01*
X154116290Y-39785958D01*
X154114166Y-39800276D01*
X154110649Y-39814317D01*
X154105772Y-39827946D01*
X154099583Y-39841031D01*
X154092142Y-39853447D01*
X154083519Y-39865073D01*
X154073798Y-39875798D01*
X154063073Y-39885519D01*
X154051447Y-39894142D01*
X154039031Y-39901583D01*
X154025946Y-39907772D01*
X154012317Y-39912649D01*
X153998276Y-39916166D01*
X153983958Y-39918290D01*
X153969500Y-39919000D01*
X153624500Y-39919000D01*
X153610042Y-39918290D01*
X153595724Y-39916166D01*
X153581683Y-39912649D01*
X153568054Y-39907772D01*
X153554969Y-39901583D01*
X153542553Y-39894142D01*
X153530927Y-39885519D01*
X153520202Y-39875798D01*
X153510481Y-39865073D01*
X153501858Y-39853447D01*
X153494417Y-39841031D01*
X153488228Y-39827946D01*
X153483351Y-39814317D01*
X153479834Y-39800276D01*
X153477710Y-39785958D01*
X153477000Y-39771500D01*
X153477000Y-39476500D01*
X153477710Y-39462042D01*
X153479834Y-39447724D01*
X153483351Y-39433683D01*
X153488228Y-39420054D01*
X153494417Y-39406969D01*
X153501858Y-39394553D01*
X153510481Y-39382927D01*
X153520202Y-39372202D01*
X153530927Y-39362481D01*
X153542553Y-39353858D01*
X153554969Y-39346417D01*
X153568054Y-39340228D01*
X153581683Y-39335351D01*
X153595724Y-39331834D01*
X153610042Y-39329710D01*
X153624500Y-39329000D01*
X153969500Y-39329000D01*
X153983958Y-39329710D01*
X153983958Y-39329710D01*
G37*
D12*
G04 #@! TD*
G04 #@! TO.P,D4,1*
G04 #@! TO.N,VCC*
X153797000Y-39624000D03*
D11*
G04 #@! TO.N,RXD1_SCK*
G04 #@! TO.C,D4*
G36*
X153983958Y-40299710D02*
G01*
X153998276Y-40301834D01*
X154012317Y-40305351D01*
X154025946Y-40310228D01*
X154039031Y-40316417D01*
X154051447Y-40323858D01*
X154063073Y-40332481D01*
X154073798Y-40342202D01*
X154083519Y-40352927D01*
X154092142Y-40364553D01*
X154099583Y-40376969D01*
X154105772Y-40390054D01*
X154110649Y-40403683D01*
X154114166Y-40417724D01*
X154116290Y-40432042D01*
X154117000Y-40446500D01*
X154117000Y-40741500D01*
X154116290Y-40755958D01*
X154114166Y-40770276D01*
X154110649Y-40784317D01*
X154105772Y-40797946D01*
X154099583Y-40811031D01*
X154092142Y-40823447D01*
X154083519Y-40835073D01*
X154073798Y-40845798D01*
X154063073Y-40855519D01*
X154051447Y-40864142D01*
X154039031Y-40871583D01*
X154025946Y-40877772D01*
X154012317Y-40882649D01*
X153998276Y-40886166D01*
X153983958Y-40888290D01*
X153969500Y-40889000D01*
X153624500Y-40889000D01*
X153610042Y-40888290D01*
X153595724Y-40886166D01*
X153581683Y-40882649D01*
X153568054Y-40877772D01*
X153554969Y-40871583D01*
X153542553Y-40864142D01*
X153530927Y-40855519D01*
X153520202Y-40845798D01*
X153510481Y-40835073D01*
X153501858Y-40823447D01*
X153494417Y-40811031D01*
X153488228Y-40797946D01*
X153483351Y-40784317D01*
X153479834Y-40770276D01*
X153477710Y-40755958D01*
X153477000Y-40741500D01*
X153477000Y-40446500D01*
X153477710Y-40432042D01*
X153479834Y-40417724D01*
X153483351Y-40403683D01*
X153488228Y-40390054D01*
X153494417Y-40376969D01*
X153501858Y-40364553D01*
X153510481Y-40352927D01*
X153520202Y-40342202D01*
X153530927Y-40332481D01*
X153542553Y-40323858D01*
X153554969Y-40316417D01*
X153568054Y-40310228D01*
X153581683Y-40305351D01*
X153595724Y-40301834D01*
X153610042Y-40299710D01*
X153624500Y-40299000D01*
X153969500Y-40299000D01*
X153983958Y-40299710D01*
X153983958Y-40299710D01*
G37*
D12*
G04 #@! TD*
G04 #@! TO.P,D4,2*
G04 #@! TO.N,RXD1_SCK*
X153797000Y-40594000D03*
D11*
G04 #@! TO.N,VCC*
G04 #@! TO.C,C1*
G36*
X153694504Y-37099204D02*
G01*
X153718773Y-37102804D01*
X153742571Y-37108765D01*
X153765671Y-37117030D01*
X153787849Y-37127520D01*
X153808893Y-37140133D01*
X153828598Y-37154747D01*
X153846777Y-37171223D01*
X153863253Y-37189402D01*
X153877867Y-37209107D01*
X153890480Y-37230151D01*
X153900970Y-37252329D01*
X153909235Y-37275429D01*
X153915196Y-37299227D01*
X153918796Y-37323496D01*
X153920000Y-37348000D01*
X153920000Y-38598000D01*
X153918796Y-38622504D01*
X153915196Y-38646773D01*
X153909235Y-38670571D01*
X153900970Y-38693671D01*
X153890480Y-38715849D01*
X153877867Y-38736893D01*
X153863253Y-38756598D01*
X153846777Y-38774777D01*
X153828598Y-38791253D01*
X153808893Y-38805867D01*
X153787849Y-38818480D01*
X153765671Y-38828970D01*
X153742571Y-38837235D01*
X153718773Y-38843196D01*
X153694504Y-38846796D01*
X153670000Y-38848000D01*
X152920000Y-38848000D01*
X152895496Y-38846796D01*
X152871227Y-38843196D01*
X152847429Y-38837235D01*
X152824329Y-38828970D01*
X152802151Y-38818480D01*
X152781107Y-38805867D01*
X152761402Y-38791253D01*
X152743223Y-38774777D01*
X152726747Y-38756598D01*
X152712133Y-38736893D01*
X152699520Y-38715849D01*
X152689030Y-38693671D01*
X152680765Y-38670571D01*
X152674804Y-38646773D01*
X152671204Y-38622504D01*
X152670000Y-38598000D01*
X152670000Y-37348000D01*
X152671204Y-37323496D01*
X152674804Y-37299227D01*
X152680765Y-37275429D01*
X152689030Y-37252329D01*
X152699520Y-37230151D01*
X152712133Y-37209107D01*
X152726747Y-37189402D01*
X152743223Y-37171223D01*
X152761402Y-37154747D01*
X152781107Y-37140133D01*
X152802151Y-37127520D01*
X152824329Y-37117030D01*
X152847429Y-37108765D01*
X152871227Y-37102804D01*
X152895496Y-37099204D01*
X152920000Y-37098000D01*
X153670000Y-37098000D01*
X153694504Y-37099204D01*
X153694504Y-37099204D01*
G37*
D13*
G04 #@! TD*
G04 #@! TO.P,C1,1*
G04 #@! TO.N,VCC*
X153295000Y-37973000D03*
D11*
G04 #@! TO.N,GND*
G04 #@! TO.C,C1*
G36*
X150894504Y-37099204D02*
G01*
X150918773Y-37102804D01*
X150942571Y-37108765D01*
X150965671Y-37117030D01*
X150987849Y-37127520D01*
X151008893Y-37140133D01*
X151028598Y-37154747D01*
X151046777Y-37171223D01*
X151063253Y-37189402D01*
X151077867Y-37209107D01*
X151090480Y-37230151D01*
X151100970Y-37252329D01*
X151109235Y-37275429D01*
X151115196Y-37299227D01*
X151118796Y-37323496D01*
X151120000Y-37348000D01*
X151120000Y-38598000D01*
X151118796Y-38622504D01*
X151115196Y-38646773D01*
X151109235Y-38670571D01*
X151100970Y-38693671D01*
X151090480Y-38715849D01*
X151077867Y-38736893D01*
X151063253Y-38756598D01*
X151046777Y-38774777D01*
X151028598Y-38791253D01*
X151008893Y-38805867D01*
X150987849Y-38818480D01*
X150965671Y-38828970D01*
X150942571Y-38837235D01*
X150918773Y-38843196D01*
X150894504Y-38846796D01*
X150870000Y-38848000D01*
X150120000Y-38848000D01*
X150095496Y-38846796D01*
X150071227Y-38843196D01*
X150047429Y-38837235D01*
X150024329Y-38828970D01*
X150002151Y-38818480D01*
X149981107Y-38805867D01*
X149961402Y-38791253D01*
X149943223Y-38774777D01*
X149926747Y-38756598D01*
X149912133Y-38736893D01*
X149899520Y-38715849D01*
X149889030Y-38693671D01*
X149880765Y-38670571D01*
X149874804Y-38646773D01*
X149871204Y-38622504D01*
X149870000Y-38598000D01*
X149870000Y-37348000D01*
X149871204Y-37323496D01*
X149874804Y-37299227D01*
X149880765Y-37275429D01*
X149889030Y-37252329D01*
X149899520Y-37230151D01*
X149912133Y-37209107D01*
X149926747Y-37189402D01*
X149943223Y-37171223D01*
X149961402Y-37154747D01*
X149981107Y-37140133D01*
X150002151Y-37127520D01*
X150024329Y-37117030D01*
X150047429Y-37108765D01*
X150071227Y-37102804D01*
X150095496Y-37099204D01*
X150120000Y-37098000D01*
X150870000Y-37098000D01*
X150894504Y-37099204D01*
X150894504Y-37099204D01*
G37*
D13*
G04 #@! TD*
G04 #@! TO.P,C1,2*
G04 #@! TO.N,GND*
X150495000Y-37973000D03*
D14*
G04 #@! TO.P,J1,1*
G04 #@! TO.N,VCC*
X139954000Y-38735000D03*
D15*
G04 #@! TO.P,J1,2*
G04 #@! TO.N,TX_BUILDING*
X139954000Y-41275000D03*
G04 #@! TO.P,J1,3*
G04 #@! TO.N,RX_BUILDING*
X139954000Y-43815000D03*
G04 #@! TO.P,J1,4*
G04 #@! TO.N,GND*
X139954000Y-46355000D03*
G04 #@! TD*
G04 #@! TO.P,J2,4*
G04 #@! TO.N,GND*
X156210000Y-46101000D03*
G04 #@! TO.P,J2,3*
G04 #@! TO.N,TXD1_MISO*
X156210000Y-43561000D03*
G04 #@! TO.P,J2,2*
G04 #@! TO.N,RXD1_SCK*
X156210000Y-41021000D03*
D14*
G04 #@! TO.P,J2,1*
G04 #@! TO.N,VCC*
X156210000Y-38481000D03*
G04 #@! TD*
D16*
G04 #@! TO.P,U2,1*
G04 #@! TO.N,VCC*
X143764000Y-45786000D03*
G04 #@! TO.P,U2,2*
G04 #@! TO.N,Net-(U2-Pad2)*
X145034000Y-45786000D03*
G04 #@! TO.P,U2,3*
G04 #@! TO.N,Net-(U2-Pad3)*
X146304000Y-45786000D03*
G04 #@! TO.P,U2,4*
G04 #@! TO.N,RESET*
X147574000Y-45786000D03*
G04 #@! TO.P,U2,5*
G04 #@! TO.N,TX_BUILDING*
X148844000Y-45786000D03*
G04 #@! TO.P,U2,6*
G04 #@! TO.N,RX_BUILDING*
X150114000Y-45786000D03*
G04 #@! TO.P,U2,7*
G04 #@! TO.N,MOSI*
X151384000Y-45786000D03*
G04 #@! TO.P,U2,8*
G04 #@! TO.N,TXD1_MISO*
X151384000Y-40386000D03*
G04 #@! TO.P,U2,9*
G04 #@! TO.N,RXD1_SCK*
X150114000Y-40386000D03*
G04 #@! TO.P,U2,10*
G04 #@! TO.N,CE*
X148844000Y-40386000D03*
G04 #@! TO.P,U2,11*
G04 #@! TO.N,Net-(U2-Pad11)*
X147574000Y-40386000D03*
G04 #@! TO.P,U2,12*
G04 #@! TO.N,Net-(U2-Pad12)*
X146304000Y-40386000D03*
G04 #@! TO.P,U2,13*
G04 #@! TO.N,Net-(R1-Pad2)*
X145034000Y-40386000D03*
G04 #@! TO.P,U2,14*
G04 #@! TO.N,GND*
X143764000Y-40386000D03*
G04 #@! TD*
D11*
G04 #@! TO.N,VCC*
G04 #@! TO.C,C2*
G36*
X146195504Y-37099204D02*
G01*
X146219773Y-37102804D01*
X146243571Y-37108765D01*
X146266671Y-37117030D01*
X146288849Y-37127520D01*
X146309893Y-37140133D01*
X146329598Y-37154747D01*
X146347777Y-37171223D01*
X146364253Y-37189402D01*
X146378867Y-37209107D01*
X146391480Y-37230151D01*
X146401970Y-37252329D01*
X146410235Y-37275429D01*
X146416196Y-37299227D01*
X146419796Y-37323496D01*
X146421000Y-37348000D01*
X146421000Y-38598000D01*
X146419796Y-38622504D01*
X146416196Y-38646773D01*
X146410235Y-38670571D01*
X146401970Y-38693671D01*
X146391480Y-38715849D01*
X146378867Y-38736893D01*
X146364253Y-38756598D01*
X146347777Y-38774777D01*
X146329598Y-38791253D01*
X146309893Y-38805867D01*
X146288849Y-38818480D01*
X146266671Y-38828970D01*
X146243571Y-38837235D01*
X146219773Y-38843196D01*
X146195504Y-38846796D01*
X146171000Y-38848000D01*
X145421000Y-38848000D01*
X145396496Y-38846796D01*
X145372227Y-38843196D01*
X145348429Y-38837235D01*
X145325329Y-38828970D01*
X145303151Y-38818480D01*
X145282107Y-38805867D01*
X145262402Y-38791253D01*
X145244223Y-38774777D01*
X145227747Y-38756598D01*
X145213133Y-38736893D01*
X145200520Y-38715849D01*
X145190030Y-38693671D01*
X145181765Y-38670571D01*
X145175804Y-38646773D01*
X145172204Y-38622504D01*
X145171000Y-38598000D01*
X145171000Y-37348000D01*
X145172204Y-37323496D01*
X145175804Y-37299227D01*
X145181765Y-37275429D01*
X145190030Y-37252329D01*
X145200520Y-37230151D01*
X145213133Y-37209107D01*
X145227747Y-37189402D01*
X145244223Y-37171223D01*
X145262402Y-37154747D01*
X145282107Y-37140133D01*
X145303151Y-37127520D01*
X145325329Y-37117030D01*
X145348429Y-37108765D01*
X145372227Y-37102804D01*
X145396496Y-37099204D01*
X145421000Y-37098000D01*
X146171000Y-37098000D01*
X146195504Y-37099204D01*
X146195504Y-37099204D01*
G37*
D13*
G04 #@! TD*
G04 #@! TO.P,C2,1*
G04 #@! TO.N,VCC*
X145796000Y-37973000D03*
D11*
G04 #@! TO.N,GND*
G04 #@! TO.C,C2*
G36*
X148995504Y-37099204D02*
G01*
X149019773Y-37102804D01*
X149043571Y-37108765D01*
X149066671Y-37117030D01*
X149088849Y-37127520D01*
X149109893Y-37140133D01*
X149129598Y-37154747D01*
X149147777Y-37171223D01*
X149164253Y-37189402D01*
X149178867Y-37209107D01*
X149191480Y-37230151D01*
X149201970Y-37252329D01*
X149210235Y-37275429D01*
X149216196Y-37299227D01*
X149219796Y-37323496D01*
X149221000Y-37348000D01*
X149221000Y-38598000D01*
X149219796Y-38622504D01*
X149216196Y-38646773D01*
X149210235Y-38670571D01*
X149201970Y-38693671D01*
X149191480Y-38715849D01*
X149178867Y-38736893D01*
X149164253Y-38756598D01*
X149147777Y-38774777D01*
X149129598Y-38791253D01*
X149109893Y-38805867D01*
X149088849Y-38818480D01*
X149066671Y-38828970D01*
X149043571Y-38837235D01*
X149019773Y-38843196D01*
X148995504Y-38846796D01*
X148971000Y-38848000D01*
X148221000Y-38848000D01*
X148196496Y-38846796D01*
X148172227Y-38843196D01*
X148148429Y-38837235D01*
X148125329Y-38828970D01*
X148103151Y-38818480D01*
X148082107Y-38805867D01*
X148062402Y-38791253D01*
X148044223Y-38774777D01*
X148027747Y-38756598D01*
X148013133Y-38736893D01*
X148000520Y-38715849D01*
X147990030Y-38693671D01*
X147981765Y-38670571D01*
X147975804Y-38646773D01*
X147972204Y-38622504D01*
X147971000Y-38598000D01*
X147971000Y-37348000D01*
X147972204Y-37323496D01*
X147975804Y-37299227D01*
X147981765Y-37275429D01*
X147990030Y-37252329D01*
X148000520Y-37230151D01*
X148013133Y-37209107D01*
X148027747Y-37189402D01*
X148044223Y-37171223D01*
X148062402Y-37154747D01*
X148082107Y-37140133D01*
X148103151Y-37127520D01*
X148125329Y-37117030D01*
X148148429Y-37108765D01*
X148172227Y-37102804D01*
X148196496Y-37099204D01*
X148221000Y-37098000D01*
X148971000Y-37098000D01*
X148995504Y-37099204D01*
X148995504Y-37099204D01*
G37*
D13*
G04 #@! TD*
G04 #@! TO.P,C2,2*
G04 #@! TO.N,GND*
X148596000Y-37973000D03*
D11*
G04 #@! TO.N,VCC*
G04 #@! TO.C,D2*
G36*
X142553958Y-40137710D02*
G01*
X142568276Y-40139834D01*
X142582317Y-40143351D01*
X142595946Y-40148228D01*
X142609031Y-40154417D01*
X142621447Y-40161858D01*
X142633073Y-40170481D01*
X142643798Y-40180202D01*
X142653519Y-40190927D01*
X142662142Y-40202553D01*
X142669583Y-40214969D01*
X142675772Y-40228054D01*
X142680649Y-40241683D01*
X142684166Y-40255724D01*
X142686290Y-40270042D01*
X142687000Y-40284500D01*
X142687000Y-40579500D01*
X142686290Y-40593958D01*
X142684166Y-40608276D01*
X142680649Y-40622317D01*
X142675772Y-40635946D01*
X142669583Y-40649031D01*
X142662142Y-40661447D01*
X142653519Y-40673073D01*
X142643798Y-40683798D01*
X142633073Y-40693519D01*
X142621447Y-40702142D01*
X142609031Y-40709583D01*
X142595946Y-40715772D01*
X142582317Y-40720649D01*
X142568276Y-40724166D01*
X142553958Y-40726290D01*
X142539500Y-40727000D01*
X142194500Y-40727000D01*
X142180042Y-40726290D01*
X142165724Y-40724166D01*
X142151683Y-40720649D01*
X142138054Y-40715772D01*
X142124969Y-40709583D01*
X142112553Y-40702142D01*
X142100927Y-40693519D01*
X142090202Y-40683798D01*
X142080481Y-40673073D01*
X142071858Y-40661447D01*
X142064417Y-40649031D01*
X142058228Y-40635946D01*
X142053351Y-40622317D01*
X142049834Y-40608276D01*
X142047710Y-40593958D01*
X142047000Y-40579500D01*
X142047000Y-40284500D01*
X142047710Y-40270042D01*
X142049834Y-40255724D01*
X142053351Y-40241683D01*
X142058228Y-40228054D01*
X142064417Y-40214969D01*
X142071858Y-40202553D01*
X142080481Y-40190927D01*
X142090202Y-40180202D01*
X142100927Y-40170481D01*
X142112553Y-40161858D01*
X142124969Y-40154417D01*
X142138054Y-40148228D01*
X142151683Y-40143351D01*
X142165724Y-40139834D01*
X142180042Y-40137710D01*
X142194500Y-40137000D01*
X142539500Y-40137000D01*
X142553958Y-40137710D01*
X142553958Y-40137710D01*
G37*
D12*
G04 #@! TD*
G04 #@! TO.P,D2,1*
G04 #@! TO.N,VCC*
X142367000Y-40432000D03*
D11*
G04 #@! TO.N,TX_BUILDING*
G04 #@! TO.C,D2*
G36*
X142553958Y-41107710D02*
G01*
X142568276Y-41109834D01*
X142582317Y-41113351D01*
X142595946Y-41118228D01*
X142609031Y-41124417D01*
X142621447Y-41131858D01*
X142633073Y-41140481D01*
X142643798Y-41150202D01*
X142653519Y-41160927D01*
X142662142Y-41172553D01*
X142669583Y-41184969D01*
X142675772Y-41198054D01*
X142680649Y-41211683D01*
X142684166Y-41225724D01*
X142686290Y-41240042D01*
X142687000Y-41254500D01*
X142687000Y-41549500D01*
X142686290Y-41563958D01*
X142684166Y-41578276D01*
X142680649Y-41592317D01*
X142675772Y-41605946D01*
X142669583Y-41619031D01*
X142662142Y-41631447D01*
X142653519Y-41643073D01*
X142643798Y-41653798D01*
X142633073Y-41663519D01*
X142621447Y-41672142D01*
X142609031Y-41679583D01*
X142595946Y-41685772D01*
X142582317Y-41690649D01*
X142568276Y-41694166D01*
X142553958Y-41696290D01*
X142539500Y-41697000D01*
X142194500Y-41697000D01*
X142180042Y-41696290D01*
X142165724Y-41694166D01*
X142151683Y-41690649D01*
X142138054Y-41685772D01*
X142124969Y-41679583D01*
X142112553Y-41672142D01*
X142100927Y-41663519D01*
X142090202Y-41653798D01*
X142080481Y-41643073D01*
X142071858Y-41631447D01*
X142064417Y-41619031D01*
X142058228Y-41605946D01*
X142053351Y-41592317D01*
X142049834Y-41578276D01*
X142047710Y-41563958D01*
X142047000Y-41549500D01*
X142047000Y-41254500D01*
X142047710Y-41240042D01*
X142049834Y-41225724D01*
X142053351Y-41211683D01*
X142058228Y-41198054D01*
X142064417Y-41184969D01*
X142071858Y-41172553D01*
X142080481Y-41160927D01*
X142090202Y-41150202D01*
X142100927Y-41140481D01*
X142112553Y-41131858D01*
X142124969Y-41124417D01*
X142138054Y-41118228D01*
X142151683Y-41113351D01*
X142165724Y-41109834D01*
X142180042Y-41107710D01*
X142194500Y-41107000D01*
X142539500Y-41107000D01*
X142553958Y-41107710D01*
X142553958Y-41107710D01*
G37*
D12*
G04 #@! TD*
G04 #@! TO.P,D2,2*
G04 #@! TO.N,TX_BUILDING*
X142367000Y-41402000D03*
D11*
G04 #@! TO.N,TX_BUILDING*
G04 #@! TO.C,D3*
G36*
X142553958Y-43439710D02*
G01*
X142568276Y-43441834D01*
X142582317Y-43445351D01*
X142595946Y-43450228D01*
X142609031Y-43456417D01*
X142621447Y-43463858D01*
X142633073Y-43472481D01*
X142643798Y-43482202D01*
X142653519Y-43492927D01*
X142662142Y-43504553D01*
X142669583Y-43516969D01*
X142675772Y-43530054D01*
X142680649Y-43543683D01*
X142684166Y-43557724D01*
X142686290Y-43572042D01*
X142687000Y-43586500D01*
X142687000Y-43881500D01*
X142686290Y-43895958D01*
X142684166Y-43910276D01*
X142680649Y-43924317D01*
X142675772Y-43937946D01*
X142669583Y-43951031D01*
X142662142Y-43963447D01*
X142653519Y-43975073D01*
X142643798Y-43985798D01*
X142633073Y-43995519D01*
X142621447Y-44004142D01*
X142609031Y-44011583D01*
X142595946Y-44017772D01*
X142582317Y-44022649D01*
X142568276Y-44026166D01*
X142553958Y-44028290D01*
X142539500Y-44029000D01*
X142194500Y-44029000D01*
X142180042Y-44028290D01*
X142165724Y-44026166D01*
X142151683Y-44022649D01*
X142138054Y-44017772D01*
X142124969Y-44011583D01*
X142112553Y-44004142D01*
X142100927Y-43995519D01*
X142090202Y-43985798D01*
X142080481Y-43975073D01*
X142071858Y-43963447D01*
X142064417Y-43951031D01*
X142058228Y-43937946D01*
X142053351Y-43924317D01*
X142049834Y-43910276D01*
X142047710Y-43895958D01*
X142047000Y-43881500D01*
X142047000Y-43586500D01*
X142047710Y-43572042D01*
X142049834Y-43557724D01*
X142053351Y-43543683D01*
X142058228Y-43530054D01*
X142064417Y-43516969D01*
X142071858Y-43504553D01*
X142080481Y-43492927D01*
X142090202Y-43482202D01*
X142100927Y-43472481D01*
X142112553Y-43463858D01*
X142124969Y-43456417D01*
X142138054Y-43450228D01*
X142151683Y-43445351D01*
X142165724Y-43441834D01*
X142180042Y-43439710D01*
X142194500Y-43439000D01*
X142539500Y-43439000D01*
X142553958Y-43439710D01*
X142553958Y-43439710D01*
G37*
D12*
G04 #@! TD*
G04 #@! TO.P,D3,1*
G04 #@! TO.N,TX_BUILDING*
X142367000Y-43734000D03*
D11*
G04 #@! TO.N,GND*
G04 #@! TO.C,D3*
G36*
X142553958Y-44409710D02*
G01*
X142568276Y-44411834D01*
X142582317Y-44415351D01*
X142595946Y-44420228D01*
X142609031Y-44426417D01*
X142621447Y-44433858D01*
X142633073Y-44442481D01*
X142643798Y-44452202D01*
X142653519Y-44462927D01*
X142662142Y-44474553D01*
X142669583Y-44486969D01*
X142675772Y-44500054D01*
X142680649Y-44513683D01*
X142684166Y-44527724D01*
X142686290Y-44542042D01*
X142687000Y-44556500D01*
X142687000Y-44851500D01*
X142686290Y-44865958D01*
X142684166Y-44880276D01*
X142680649Y-44894317D01*
X142675772Y-44907946D01*
X142669583Y-44921031D01*
X142662142Y-44933447D01*
X142653519Y-44945073D01*
X142643798Y-44955798D01*
X142633073Y-44965519D01*
X142621447Y-44974142D01*
X142609031Y-44981583D01*
X142595946Y-44987772D01*
X142582317Y-44992649D01*
X142568276Y-44996166D01*
X142553958Y-44998290D01*
X142539500Y-44999000D01*
X142194500Y-44999000D01*
X142180042Y-44998290D01*
X142165724Y-44996166D01*
X142151683Y-44992649D01*
X142138054Y-44987772D01*
X142124969Y-44981583D01*
X142112553Y-44974142D01*
X142100927Y-44965519D01*
X142090202Y-44955798D01*
X142080481Y-44945073D01*
X142071858Y-44933447D01*
X142064417Y-44921031D01*
X142058228Y-44907946D01*
X142053351Y-44894317D01*
X142049834Y-44880276D01*
X142047710Y-44865958D01*
X142047000Y-44851500D01*
X142047000Y-44556500D01*
X142047710Y-44542042D01*
X142049834Y-44527724D01*
X142053351Y-44513683D01*
X142058228Y-44500054D01*
X142064417Y-44486969D01*
X142071858Y-44474553D01*
X142080481Y-44462927D01*
X142090202Y-44452202D01*
X142100927Y-44442481D01*
X142112553Y-44433858D01*
X142124969Y-44426417D01*
X142138054Y-44420228D01*
X142151683Y-44415351D01*
X142165724Y-44411834D01*
X142180042Y-44409710D01*
X142194500Y-44409000D01*
X142539500Y-44409000D01*
X142553958Y-44409710D01*
X142553958Y-44409710D01*
G37*
D12*
G04 #@! TD*
G04 #@! TO.P,D3,2*
G04 #@! TO.N,GND*
X142367000Y-44704000D03*
D11*
G04 #@! TO.N,GND*
G04 #@! TO.C,D5*
G36*
X153983958Y-43982710D02*
G01*
X153998276Y-43984834D01*
X154012317Y-43988351D01*
X154025946Y-43993228D01*
X154039031Y-43999417D01*
X154051447Y-44006858D01*
X154063073Y-44015481D01*
X154073798Y-44025202D01*
X154083519Y-44035927D01*
X154092142Y-44047553D01*
X154099583Y-44059969D01*
X154105772Y-44073054D01*
X154110649Y-44086683D01*
X154114166Y-44100724D01*
X154116290Y-44115042D01*
X154117000Y-44129500D01*
X154117000Y-44424500D01*
X154116290Y-44438958D01*
X154114166Y-44453276D01*
X154110649Y-44467317D01*
X154105772Y-44480946D01*
X154099583Y-44494031D01*
X154092142Y-44506447D01*
X154083519Y-44518073D01*
X154073798Y-44528798D01*
X154063073Y-44538519D01*
X154051447Y-44547142D01*
X154039031Y-44554583D01*
X154025946Y-44560772D01*
X154012317Y-44565649D01*
X153998276Y-44569166D01*
X153983958Y-44571290D01*
X153969500Y-44572000D01*
X153624500Y-44572000D01*
X153610042Y-44571290D01*
X153595724Y-44569166D01*
X153581683Y-44565649D01*
X153568054Y-44560772D01*
X153554969Y-44554583D01*
X153542553Y-44547142D01*
X153530927Y-44538519D01*
X153520202Y-44528798D01*
X153510481Y-44518073D01*
X153501858Y-44506447D01*
X153494417Y-44494031D01*
X153488228Y-44480946D01*
X153483351Y-44467317D01*
X153479834Y-44453276D01*
X153477710Y-44438958D01*
X153477000Y-44424500D01*
X153477000Y-44129500D01*
X153477710Y-44115042D01*
X153479834Y-44100724D01*
X153483351Y-44086683D01*
X153488228Y-44073054D01*
X153494417Y-44059969D01*
X153501858Y-44047553D01*
X153510481Y-44035927D01*
X153520202Y-44025202D01*
X153530927Y-44015481D01*
X153542553Y-44006858D01*
X153554969Y-43999417D01*
X153568054Y-43993228D01*
X153581683Y-43988351D01*
X153595724Y-43984834D01*
X153610042Y-43982710D01*
X153624500Y-43982000D01*
X153969500Y-43982000D01*
X153983958Y-43982710D01*
X153983958Y-43982710D01*
G37*
D12*
G04 #@! TD*
G04 #@! TO.P,D5,2*
G04 #@! TO.N,GND*
X153797000Y-44277000D03*
D11*
G04 #@! TO.N,RXD1_SCK*
G04 #@! TO.C,D5*
G36*
X153983958Y-43012710D02*
G01*
X153998276Y-43014834D01*
X154012317Y-43018351D01*
X154025946Y-43023228D01*
X154039031Y-43029417D01*
X154051447Y-43036858D01*
X154063073Y-43045481D01*
X154073798Y-43055202D01*
X154083519Y-43065927D01*
X154092142Y-43077553D01*
X154099583Y-43089969D01*
X154105772Y-43103054D01*
X154110649Y-43116683D01*
X154114166Y-43130724D01*
X154116290Y-43145042D01*
X154117000Y-43159500D01*
X154117000Y-43454500D01*
X154116290Y-43468958D01*
X154114166Y-43483276D01*
X154110649Y-43497317D01*
X154105772Y-43510946D01*
X154099583Y-43524031D01*
X154092142Y-43536447D01*
X154083519Y-43548073D01*
X154073798Y-43558798D01*
X154063073Y-43568519D01*
X154051447Y-43577142D01*
X154039031Y-43584583D01*
X154025946Y-43590772D01*
X154012317Y-43595649D01*
X153998276Y-43599166D01*
X153983958Y-43601290D01*
X153969500Y-43602000D01*
X153624500Y-43602000D01*
X153610042Y-43601290D01*
X153595724Y-43599166D01*
X153581683Y-43595649D01*
X153568054Y-43590772D01*
X153554969Y-43584583D01*
X153542553Y-43577142D01*
X153530927Y-43568519D01*
X153520202Y-43558798D01*
X153510481Y-43548073D01*
X153501858Y-43536447D01*
X153494417Y-43524031D01*
X153488228Y-43510946D01*
X153483351Y-43497317D01*
X153479834Y-43483276D01*
X153477710Y-43468958D01*
X153477000Y-43454500D01*
X153477000Y-43159500D01*
X153477710Y-43145042D01*
X153479834Y-43130724D01*
X153483351Y-43116683D01*
X153488228Y-43103054D01*
X153494417Y-43089969D01*
X153501858Y-43077553D01*
X153510481Y-43065927D01*
X153520202Y-43055202D01*
X153530927Y-43045481D01*
X153542553Y-43036858D01*
X153554969Y-43029417D01*
X153568054Y-43023228D01*
X153581683Y-43018351D01*
X153595724Y-43014834D01*
X153610042Y-43012710D01*
X153624500Y-43012000D01*
X153969500Y-43012000D01*
X153983958Y-43012710D01*
X153983958Y-43012710D01*
G37*
D12*
G04 #@! TD*
G04 #@! TO.P,D5,1*
G04 #@! TO.N,RXD1_SCK*
X153797000Y-43307000D03*
D11*
G04 #@! TO.N,RX_BUILDING*
G04 #@! TO.C,D6*
G36*
X142553958Y-38948710D02*
G01*
X142568276Y-38950834D01*
X142582317Y-38954351D01*
X142595946Y-38959228D01*
X142609031Y-38965417D01*
X142621447Y-38972858D01*
X142633073Y-38981481D01*
X142643798Y-38991202D01*
X142653519Y-39001927D01*
X142662142Y-39013553D01*
X142669583Y-39025969D01*
X142675772Y-39039054D01*
X142680649Y-39052683D01*
X142684166Y-39066724D01*
X142686290Y-39081042D01*
X142687000Y-39095500D01*
X142687000Y-39390500D01*
X142686290Y-39404958D01*
X142684166Y-39419276D01*
X142680649Y-39433317D01*
X142675772Y-39446946D01*
X142669583Y-39460031D01*
X142662142Y-39472447D01*
X142653519Y-39484073D01*
X142643798Y-39494798D01*
X142633073Y-39504519D01*
X142621447Y-39513142D01*
X142609031Y-39520583D01*
X142595946Y-39526772D01*
X142582317Y-39531649D01*
X142568276Y-39535166D01*
X142553958Y-39537290D01*
X142539500Y-39538000D01*
X142194500Y-39538000D01*
X142180042Y-39537290D01*
X142165724Y-39535166D01*
X142151683Y-39531649D01*
X142138054Y-39526772D01*
X142124969Y-39520583D01*
X142112553Y-39513142D01*
X142100927Y-39504519D01*
X142090202Y-39494798D01*
X142080481Y-39484073D01*
X142071858Y-39472447D01*
X142064417Y-39460031D01*
X142058228Y-39446946D01*
X142053351Y-39433317D01*
X142049834Y-39419276D01*
X142047710Y-39404958D01*
X142047000Y-39390500D01*
X142047000Y-39095500D01*
X142047710Y-39081042D01*
X142049834Y-39066724D01*
X142053351Y-39052683D01*
X142058228Y-39039054D01*
X142064417Y-39025969D01*
X142071858Y-39013553D01*
X142080481Y-39001927D01*
X142090202Y-38991202D01*
X142100927Y-38981481D01*
X142112553Y-38972858D01*
X142124969Y-38965417D01*
X142138054Y-38959228D01*
X142151683Y-38954351D01*
X142165724Y-38950834D01*
X142180042Y-38948710D01*
X142194500Y-38948000D01*
X142539500Y-38948000D01*
X142553958Y-38948710D01*
X142553958Y-38948710D01*
G37*
D12*
G04 #@! TD*
G04 #@! TO.P,D6,2*
G04 #@! TO.N,RX_BUILDING*
X142367000Y-39243000D03*
D11*
G04 #@! TO.N,VCC*
G04 #@! TO.C,D6*
G36*
X142553958Y-37978710D02*
G01*
X142568276Y-37980834D01*
X142582317Y-37984351D01*
X142595946Y-37989228D01*
X142609031Y-37995417D01*
X142621447Y-38002858D01*
X142633073Y-38011481D01*
X142643798Y-38021202D01*
X142653519Y-38031927D01*
X142662142Y-38043553D01*
X142669583Y-38055969D01*
X142675772Y-38069054D01*
X142680649Y-38082683D01*
X142684166Y-38096724D01*
X142686290Y-38111042D01*
X142687000Y-38125500D01*
X142687000Y-38420500D01*
X142686290Y-38434958D01*
X142684166Y-38449276D01*
X142680649Y-38463317D01*
X142675772Y-38476946D01*
X142669583Y-38490031D01*
X142662142Y-38502447D01*
X142653519Y-38514073D01*
X142643798Y-38524798D01*
X142633073Y-38534519D01*
X142621447Y-38543142D01*
X142609031Y-38550583D01*
X142595946Y-38556772D01*
X142582317Y-38561649D01*
X142568276Y-38565166D01*
X142553958Y-38567290D01*
X142539500Y-38568000D01*
X142194500Y-38568000D01*
X142180042Y-38567290D01*
X142165724Y-38565166D01*
X142151683Y-38561649D01*
X142138054Y-38556772D01*
X142124969Y-38550583D01*
X142112553Y-38543142D01*
X142100927Y-38534519D01*
X142090202Y-38524798D01*
X142080481Y-38514073D01*
X142071858Y-38502447D01*
X142064417Y-38490031D01*
X142058228Y-38476946D01*
X142053351Y-38463317D01*
X142049834Y-38449276D01*
X142047710Y-38434958D01*
X142047000Y-38420500D01*
X142047000Y-38125500D01*
X142047710Y-38111042D01*
X142049834Y-38096724D01*
X142053351Y-38082683D01*
X142058228Y-38069054D01*
X142064417Y-38055969D01*
X142071858Y-38043553D01*
X142080481Y-38031927D01*
X142090202Y-38021202D01*
X142100927Y-38011481D01*
X142112553Y-38002858D01*
X142124969Y-37995417D01*
X142138054Y-37989228D01*
X142151683Y-37984351D01*
X142165724Y-37980834D01*
X142180042Y-37978710D01*
X142194500Y-37978000D01*
X142539500Y-37978000D01*
X142553958Y-37978710D01*
X142553958Y-37978710D01*
G37*
D12*
G04 #@! TD*
G04 #@! TO.P,D6,1*
G04 #@! TO.N,VCC*
X142367000Y-38273000D03*
D11*
G04 #@! TO.N,GND*
G04 #@! TO.C,D7*
G36*
X142553958Y-45425710D02*
G01*
X142568276Y-45427834D01*
X142582317Y-45431351D01*
X142595946Y-45436228D01*
X142609031Y-45442417D01*
X142621447Y-45449858D01*
X142633073Y-45458481D01*
X142643798Y-45468202D01*
X142653519Y-45478927D01*
X142662142Y-45490553D01*
X142669583Y-45502969D01*
X142675772Y-45516054D01*
X142680649Y-45529683D01*
X142684166Y-45543724D01*
X142686290Y-45558042D01*
X142687000Y-45572500D01*
X142687000Y-45867500D01*
X142686290Y-45881958D01*
X142684166Y-45896276D01*
X142680649Y-45910317D01*
X142675772Y-45923946D01*
X142669583Y-45937031D01*
X142662142Y-45949447D01*
X142653519Y-45961073D01*
X142643798Y-45971798D01*
X142633073Y-45981519D01*
X142621447Y-45990142D01*
X142609031Y-45997583D01*
X142595946Y-46003772D01*
X142582317Y-46008649D01*
X142568276Y-46012166D01*
X142553958Y-46014290D01*
X142539500Y-46015000D01*
X142194500Y-46015000D01*
X142180042Y-46014290D01*
X142165724Y-46012166D01*
X142151683Y-46008649D01*
X142138054Y-46003772D01*
X142124969Y-45997583D01*
X142112553Y-45990142D01*
X142100927Y-45981519D01*
X142090202Y-45971798D01*
X142080481Y-45961073D01*
X142071858Y-45949447D01*
X142064417Y-45937031D01*
X142058228Y-45923946D01*
X142053351Y-45910317D01*
X142049834Y-45896276D01*
X142047710Y-45881958D01*
X142047000Y-45867500D01*
X142047000Y-45572500D01*
X142047710Y-45558042D01*
X142049834Y-45543724D01*
X142053351Y-45529683D01*
X142058228Y-45516054D01*
X142064417Y-45502969D01*
X142071858Y-45490553D01*
X142080481Y-45478927D01*
X142090202Y-45468202D01*
X142100927Y-45458481D01*
X142112553Y-45449858D01*
X142124969Y-45442417D01*
X142138054Y-45436228D01*
X142151683Y-45431351D01*
X142165724Y-45427834D01*
X142180042Y-45425710D01*
X142194500Y-45425000D01*
X142539500Y-45425000D01*
X142553958Y-45425710D01*
X142553958Y-45425710D01*
G37*
D12*
G04 #@! TD*
G04 #@! TO.P,D7,2*
G04 #@! TO.N,GND*
X142367000Y-45720000D03*
D11*
G04 #@! TO.N,RX_BUILDING*
G04 #@! TO.C,D7*
G36*
X142553958Y-46395710D02*
G01*
X142568276Y-46397834D01*
X142582317Y-46401351D01*
X142595946Y-46406228D01*
X142609031Y-46412417D01*
X142621447Y-46419858D01*
X142633073Y-46428481D01*
X142643798Y-46438202D01*
X142653519Y-46448927D01*
X142662142Y-46460553D01*
X142669583Y-46472969D01*
X142675772Y-46486054D01*
X142680649Y-46499683D01*
X142684166Y-46513724D01*
X142686290Y-46528042D01*
X142687000Y-46542500D01*
X142687000Y-46837500D01*
X142686290Y-46851958D01*
X142684166Y-46866276D01*
X142680649Y-46880317D01*
X142675772Y-46893946D01*
X142669583Y-46907031D01*
X142662142Y-46919447D01*
X142653519Y-46931073D01*
X142643798Y-46941798D01*
X142633073Y-46951519D01*
X142621447Y-46960142D01*
X142609031Y-46967583D01*
X142595946Y-46973772D01*
X142582317Y-46978649D01*
X142568276Y-46982166D01*
X142553958Y-46984290D01*
X142539500Y-46985000D01*
X142194500Y-46985000D01*
X142180042Y-46984290D01*
X142165724Y-46982166D01*
X142151683Y-46978649D01*
X142138054Y-46973772D01*
X142124969Y-46967583D01*
X142112553Y-46960142D01*
X142100927Y-46951519D01*
X142090202Y-46941798D01*
X142080481Y-46931073D01*
X142071858Y-46919447D01*
X142064417Y-46907031D01*
X142058228Y-46893946D01*
X142053351Y-46880317D01*
X142049834Y-46866276D01*
X142047710Y-46851958D01*
X142047000Y-46837500D01*
X142047000Y-46542500D01*
X142047710Y-46528042D01*
X142049834Y-46513724D01*
X142053351Y-46499683D01*
X142058228Y-46486054D01*
X142064417Y-46472969D01*
X142071858Y-46460553D01*
X142080481Y-46448927D01*
X142090202Y-46438202D01*
X142100927Y-46428481D01*
X142112553Y-46419858D01*
X142124969Y-46412417D01*
X142138054Y-46406228D01*
X142151683Y-46401351D01*
X142165724Y-46397834D01*
X142180042Y-46395710D01*
X142194500Y-46395000D01*
X142539500Y-46395000D01*
X142553958Y-46395710D01*
X142553958Y-46395710D01*
G37*
D12*
G04 #@! TD*
G04 #@! TO.P,D7,1*
G04 #@! TO.N,RX_BUILDING*
X142367000Y-46690000D03*
D11*
G04 #@! TO.N,TXD1_MISO*
G04 #@! TO.C,D8*
G36*
X152967958Y-40345710D02*
G01*
X152982276Y-40347834D01*
X152996317Y-40351351D01*
X153009946Y-40356228D01*
X153023031Y-40362417D01*
X153035447Y-40369858D01*
X153047073Y-40378481D01*
X153057798Y-40388202D01*
X153067519Y-40398927D01*
X153076142Y-40410553D01*
X153083583Y-40422969D01*
X153089772Y-40436054D01*
X153094649Y-40449683D01*
X153098166Y-40463724D01*
X153100290Y-40478042D01*
X153101000Y-40492500D01*
X153101000Y-40787500D01*
X153100290Y-40801958D01*
X153098166Y-40816276D01*
X153094649Y-40830317D01*
X153089772Y-40843946D01*
X153083583Y-40857031D01*
X153076142Y-40869447D01*
X153067519Y-40881073D01*
X153057798Y-40891798D01*
X153047073Y-40901519D01*
X153035447Y-40910142D01*
X153023031Y-40917583D01*
X153009946Y-40923772D01*
X152996317Y-40928649D01*
X152982276Y-40932166D01*
X152967958Y-40934290D01*
X152953500Y-40935000D01*
X152608500Y-40935000D01*
X152594042Y-40934290D01*
X152579724Y-40932166D01*
X152565683Y-40928649D01*
X152552054Y-40923772D01*
X152538969Y-40917583D01*
X152526553Y-40910142D01*
X152514927Y-40901519D01*
X152504202Y-40891798D01*
X152494481Y-40881073D01*
X152485858Y-40869447D01*
X152478417Y-40857031D01*
X152472228Y-40843946D01*
X152467351Y-40830317D01*
X152463834Y-40816276D01*
X152461710Y-40801958D01*
X152461000Y-40787500D01*
X152461000Y-40492500D01*
X152461710Y-40478042D01*
X152463834Y-40463724D01*
X152467351Y-40449683D01*
X152472228Y-40436054D01*
X152478417Y-40422969D01*
X152485858Y-40410553D01*
X152494481Y-40398927D01*
X152504202Y-40388202D01*
X152514927Y-40378481D01*
X152526553Y-40369858D01*
X152538969Y-40362417D01*
X152552054Y-40356228D01*
X152565683Y-40351351D01*
X152579724Y-40347834D01*
X152594042Y-40345710D01*
X152608500Y-40345000D01*
X152953500Y-40345000D01*
X152967958Y-40345710D01*
X152967958Y-40345710D01*
G37*
D12*
G04 #@! TD*
G04 #@! TO.P,D8,2*
G04 #@! TO.N,TXD1_MISO*
X152781000Y-40640000D03*
D11*
G04 #@! TO.N,VCC*
G04 #@! TO.C,D8*
G36*
X152967958Y-39375710D02*
G01*
X152982276Y-39377834D01*
X152996317Y-39381351D01*
X153009946Y-39386228D01*
X153023031Y-39392417D01*
X153035447Y-39399858D01*
X153047073Y-39408481D01*
X153057798Y-39418202D01*
X153067519Y-39428927D01*
X153076142Y-39440553D01*
X153083583Y-39452969D01*
X153089772Y-39466054D01*
X153094649Y-39479683D01*
X153098166Y-39493724D01*
X153100290Y-39508042D01*
X153101000Y-39522500D01*
X153101000Y-39817500D01*
X153100290Y-39831958D01*
X153098166Y-39846276D01*
X153094649Y-39860317D01*
X153089772Y-39873946D01*
X153083583Y-39887031D01*
X153076142Y-39899447D01*
X153067519Y-39911073D01*
X153057798Y-39921798D01*
X153047073Y-39931519D01*
X153035447Y-39940142D01*
X153023031Y-39947583D01*
X153009946Y-39953772D01*
X152996317Y-39958649D01*
X152982276Y-39962166D01*
X152967958Y-39964290D01*
X152953500Y-39965000D01*
X152608500Y-39965000D01*
X152594042Y-39964290D01*
X152579724Y-39962166D01*
X152565683Y-39958649D01*
X152552054Y-39953772D01*
X152538969Y-39947583D01*
X152526553Y-39940142D01*
X152514927Y-39931519D01*
X152504202Y-39921798D01*
X152494481Y-39911073D01*
X152485858Y-39899447D01*
X152478417Y-39887031D01*
X152472228Y-39873946D01*
X152467351Y-39860317D01*
X152463834Y-39846276D01*
X152461710Y-39831958D01*
X152461000Y-39817500D01*
X152461000Y-39522500D01*
X152461710Y-39508042D01*
X152463834Y-39493724D01*
X152467351Y-39479683D01*
X152472228Y-39466054D01*
X152478417Y-39452969D01*
X152485858Y-39440553D01*
X152494481Y-39428927D01*
X152504202Y-39418202D01*
X152514927Y-39408481D01*
X152526553Y-39399858D01*
X152538969Y-39392417D01*
X152552054Y-39386228D01*
X152565683Y-39381351D01*
X152579724Y-39377834D01*
X152594042Y-39375710D01*
X152608500Y-39375000D01*
X152953500Y-39375000D01*
X152967958Y-39375710D01*
X152967958Y-39375710D01*
G37*
D12*
G04 #@! TD*
G04 #@! TO.P,D8,1*
G04 #@! TO.N,VCC*
X152781000Y-39670000D03*
D11*
G04 #@! TO.N,TXD1_MISO*
G04 #@! TO.C,D9*
G36*
X152967958Y-43012710D02*
G01*
X152982276Y-43014834D01*
X152996317Y-43018351D01*
X153009946Y-43023228D01*
X153023031Y-43029417D01*
X153035447Y-43036858D01*
X153047073Y-43045481D01*
X153057798Y-43055202D01*
X153067519Y-43065927D01*
X153076142Y-43077553D01*
X153083583Y-43089969D01*
X153089772Y-43103054D01*
X153094649Y-43116683D01*
X153098166Y-43130724D01*
X153100290Y-43145042D01*
X153101000Y-43159500D01*
X153101000Y-43454500D01*
X153100290Y-43468958D01*
X153098166Y-43483276D01*
X153094649Y-43497317D01*
X153089772Y-43510946D01*
X153083583Y-43524031D01*
X153076142Y-43536447D01*
X153067519Y-43548073D01*
X153057798Y-43558798D01*
X153047073Y-43568519D01*
X153035447Y-43577142D01*
X153023031Y-43584583D01*
X153009946Y-43590772D01*
X152996317Y-43595649D01*
X152982276Y-43599166D01*
X152967958Y-43601290D01*
X152953500Y-43602000D01*
X152608500Y-43602000D01*
X152594042Y-43601290D01*
X152579724Y-43599166D01*
X152565683Y-43595649D01*
X152552054Y-43590772D01*
X152538969Y-43584583D01*
X152526553Y-43577142D01*
X152514927Y-43568519D01*
X152504202Y-43558798D01*
X152494481Y-43548073D01*
X152485858Y-43536447D01*
X152478417Y-43524031D01*
X152472228Y-43510946D01*
X152467351Y-43497317D01*
X152463834Y-43483276D01*
X152461710Y-43468958D01*
X152461000Y-43454500D01*
X152461000Y-43159500D01*
X152461710Y-43145042D01*
X152463834Y-43130724D01*
X152467351Y-43116683D01*
X152472228Y-43103054D01*
X152478417Y-43089969D01*
X152485858Y-43077553D01*
X152494481Y-43065927D01*
X152504202Y-43055202D01*
X152514927Y-43045481D01*
X152526553Y-43036858D01*
X152538969Y-43029417D01*
X152552054Y-43023228D01*
X152565683Y-43018351D01*
X152579724Y-43014834D01*
X152594042Y-43012710D01*
X152608500Y-43012000D01*
X152953500Y-43012000D01*
X152967958Y-43012710D01*
X152967958Y-43012710D01*
G37*
D12*
G04 #@! TD*
G04 #@! TO.P,D9,1*
G04 #@! TO.N,TXD1_MISO*
X152781000Y-43307000D03*
D11*
G04 #@! TO.N,GND*
G04 #@! TO.C,D9*
G36*
X152967958Y-43982710D02*
G01*
X152982276Y-43984834D01*
X152996317Y-43988351D01*
X153009946Y-43993228D01*
X153023031Y-43999417D01*
X153035447Y-44006858D01*
X153047073Y-44015481D01*
X153057798Y-44025202D01*
X153067519Y-44035927D01*
X153076142Y-44047553D01*
X153083583Y-44059969D01*
X153089772Y-44073054D01*
X153094649Y-44086683D01*
X153098166Y-44100724D01*
X153100290Y-44115042D01*
X153101000Y-44129500D01*
X153101000Y-44424500D01*
X153100290Y-44438958D01*
X153098166Y-44453276D01*
X153094649Y-44467317D01*
X153089772Y-44480946D01*
X153083583Y-44494031D01*
X153076142Y-44506447D01*
X153067519Y-44518073D01*
X153057798Y-44528798D01*
X153047073Y-44538519D01*
X153035447Y-44547142D01*
X153023031Y-44554583D01*
X153009946Y-44560772D01*
X152996317Y-44565649D01*
X152982276Y-44569166D01*
X152967958Y-44571290D01*
X152953500Y-44572000D01*
X152608500Y-44572000D01*
X152594042Y-44571290D01*
X152579724Y-44569166D01*
X152565683Y-44565649D01*
X152552054Y-44560772D01*
X152538969Y-44554583D01*
X152526553Y-44547142D01*
X152514927Y-44538519D01*
X152504202Y-44528798D01*
X152494481Y-44518073D01*
X152485858Y-44506447D01*
X152478417Y-44494031D01*
X152472228Y-44480946D01*
X152467351Y-44467317D01*
X152463834Y-44453276D01*
X152461710Y-44438958D01*
X152461000Y-44424500D01*
X152461000Y-44129500D01*
X152461710Y-44115042D01*
X152463834Y-44100724D01*
X152467351Y-44086683D01*
X152472228Y-44073054D01*
X152478417Y-44059969D01*
X152485858Y-44047553D01*
X152494481Y-44035927D01*
X152504202Y-44025202D01*
X152514927Y-44015481D01*
X152526553Y-44006858D01*
X152538969Y-43999417D01*
X152552054Y-43993228D01*
X152565683Y-43988351D01*
X152579724Y-43984834D01*
X152594042Y-43982710D01*
X152608500Y-43982000D01*
X152953500Y-43982000D01*
X152967958Y-43982710D01*
X152967958Y-43982710D01*
G37*
D12*
G04 #@! TD*
G04 #@! TO.P,D9,2*
G04 #@! TO.N,GND*
X152781000Y-44277000D03*
D14*
G04 #@! TO.P,J3,1*
G04 #@! TO.N,MOSI*
X166116000Y-37211000D03*
D15*
G04 #@! TO.P,J3,2*
G04 #@! TO.N,VCC*
X168656000Y-37211000D03*
G04 #@! TO.P,J3,3*
G04 #@! TO.N,Net-(J3-Pad3)*
X166116000Y-39751000D03*
G04 #@! TO.P,J3,4*
G04 #@! TO.N,GND*
X168656000Y-39751000D03*
G04 #@! TO.P,J3,5*
G04 #@! TO.N,RESET*
X166116000Y-42291000D03*
G04 #@! TO.P,J3,6*
G04 #@! TO.N,GND*
X168656000Y-42291000D03*
G04 #@! TO.P,J3,7*
G04 #@! TO.N,RXD1_SCK*
X166116000Y-44831000D03*
G04 #@! TO.P,J3,8*
G04 #@! TO.N,GND*
X168656000Y-44831000D03*
G04 #@! TO.P,J3,9*
G04 #@! TO.N,TXD1_MISO*
X166116000Y-47371000D03*
G04 #@! TO.P,J3,10*
G04 #@! TO.N,GND*
X168656000Y-47371000D03*
G04 #@! TD*
D11*
G04 #@! TO.N,Net-(D1-Pad2)*
G04 #@! TO.C,R1*
G36*
X144585958Y-37216710D02*
G01*
X144600276Y-37218834D01*
X144614317Y-37222351D01*
X144627946Y-37227228D01*
X144641031Y-37233417D01*
X144653447Y-37240858D01*
X144665073Y-37249481D01*
X144675798Y-37259202D01*
X144685519Y-37269927D01*
X144694142Y-37281553D01*
X144701583Y-37293969D01*
X144707772Y-37307054D01*
X144712649Y-37320683D01*
X144716166Y-37334724D01*
X144718290Y-37349042D01*
X144719000Y-37363500D01*
X144719000Y-37658500D01*
X144718290Y-37672958D01*
X144716166Y-37687276D01*
X144712649Y-37701317D01*
X144707772Y-37714946D01*
X144701583Y-37728031D01*
X144694142Y-37740447D01*
X144685519Y-37752073D01*
X144675798Y-37762798D01*
X144665073Y-37772519D01*
X144653447Y-37781142D01*
X144641031Y-37788583D01*
X144627946Y-37794772D01*
X144614317Y-37799649D01*
X144600276Y-37803166D01*
X144585958Y-37805290D01*
X144571500Y-37806000D01*
X144226500Y-37806000D01*
X144212042Y-37805290D01*
X144197724Y-37803166D01*
X144183683Y-37799649D01*
X144170054Y-37794772D01*
X144156969Y-37788583D01*
X144144553Y-37781142D01*
X144132927Y-37772519D01*
X144122202Y-37762798D01*
X144112481Y-37752073D01*
X144103858Y-37740447D01*
X144096417Y-37728031D01*
X144090228Y-37714946D01*
X144085351Y-37701317D01*
X144081834Y-37687276D01*
X144079710Y-37672958D01*
X144079000Y-37658500D01*
X144079000Y-37363500D01*
X144079710Y-37349042D01*
X144081834Y-37334724D01*
X144085351Y-37320683D01*
X144090228Y-37307054D01*
X144096417Y-37293969D01*
X144103858Y-37281553D01*
X144112481Y-37269927D01*
X144122202Y-37259202D01*
X144132927Y-37249481D01*
X144144553Y-37240858D01*
X144156969Y-37233417D01*
X144170054Y-37227228D01*
X144183683Y-37222351D01*
X144197724Y-37218834D01*
X144212042Y-37216710D01*
X144226500Y-37216000D01*
X144571500Y-37216000D01*
X144585958Y-37216710D01*
X144585958Y-37216710D01*
G37*
D12*
G04 #@! TD*
G04 #@! TO.P,R1,1*
G04 #@! TO.N,Net-(D1-Pad2)*
X144399000Y-37511000D03*
D11*
G04 #@! TO.N,Net-(R1-Pad2)*
G04 #@! TO.C,R1*
G36*
X144585958Y-38186710D02*
G01*
X144600276Y-38188834D01*
X144614317Y-38192351D01*
X144627946Y-38197228D01*
X144641031Y-38203417D01*
X144653447Y-38210858D01*
X144665073Y-38219481D01*
X144675798Y-38229202D01*
X144685519Y-38239927D01*
X144694142Y-38251553D01*
X144701583Y-38263969D01*
X144707772Y-38277054D01*
X144712649Y-38290683D01*
X144716166Y-38304724D01*
X144718290Y-38319042D01*
X144719000Y-38333500D01*
X144719000Y-38628500D01*
X144718290Y-38642958D01*
X144716166Y-38657276D01*
X144712649Y-38671317D01*
X144707772Y-38684946D01*
X144701583Y-38698031D01*
X144694142Y-38710447D01*
X144685519Y-38722073D01*
X144675798Y-38732798D01*
X144665073Y-38742519D01*
X144653447Y-38751142D01*
X144641031Y-38758583D01*
X144627946Y-38764772D01*
X144614317Y-38769649D01*
X144600276Y-38773166D01*
X144585958Y-38775290D01*
X144571500Y-38776000D01*
X144226500Y-38776000D01*
X144212042Y-38775290D01*
X144197724Y-38773166D01*
X144183683Y-38769649D01*
X144170054Y-38764772D01*
X144156969Y-38758583D01*
X144144553Y-38751142D01*
X144132927Y-38742519D01*
X144122202Y-38732798D01*
X144112481Y-38722073D01*
X144103858Y-38710447D01*
X144096417Y-38698031D01*
X144090228Y-38684946D01*
X144085351Y-38671317D01*
X144081834Y-38657276D01*
X144079710Y-38642958D01*
X144079000Y-38628500D01*
X144079000Y-38333500D01*
X144079710Y-38319042D01*
X144081834Y-38304724D01*
X144085351Y-38290683D01*
X144090228Y-38277054D01*
X144096417Y-38263969D01*
X144103858Y-38251553D01*
X144112481Y-38239927D01*
X144122202Y-38229202D01*
X144132927Y-38219481D01*
X144144553Y-38210858D01*
X144156969Y-38203417D01*
X144170054Y-38197228D01*
X144183683Y-38192351D01*
X144197724Y-38188834D01*
X144212042Y-38186710D01*
X144226500Y-38186000D01*
X144571500Y-38186000D01*
X144585958Y-38186710D01*
X144585958Y-38186710D01*
G37*
D12*
G04 #@! TD*
G04 #@! TO.P,R1,2*
G04 #@! TO.N,Net-(R1-Pad2)*
X144399000Y-38481000D03*
D11*
G04 #@! TO.N,GND*
G04 #@! TO.C,D1*
G36*
X143569958Y-38186710D02*
G01*
X143584276Y-38188834D01*
X143598317Y-38192351D01*
X143611946Y-38197228D01*
X143625031Y-38203417D01*
X143637447Y-38210858D01*
X143649073Y-38219481D01*
X143659798Y-38229202D01*
X143669519Y-38239927D01*
X143678142Y-38251553D01*
X143685583Y-38263969D01*
X143691772Y-38277054D01*
X143696649Y-38290683D01*
X143700166Y-38304724D01*
X143702290Y-38319042D01*
X143703000Y-38333500D01*
X143703000Y-38628500D01*
X143702290Y-38642958D01*
X143700166Y-38657276D01*
X143696649Y-38671317D01*
X143691772Y-38684946D01*
X143685583Y-38698031D01*
X143678142Y-38710447D01*
X143669519Y-38722073D01*
X143659798Y-38732798D01*
X143649073Y-38742519D01*
X143637447Y-38751142D01*
X143625031Y-38758583D01*
X143611946Y-38764772D01*
X143598317Y-38769649D01*
X143584276Y-38773166D01*
X143569958Y-38775290D01*
X143555500Y-38776000D01*
X143210500Y-38776000D01*
X143196042Y-38775290D01*
X143181724Y-38773166D01*
X143167683Y-38769649D01*
X143154054Y-38764772D01*
X143140969Y-38758583D01*
X143128553Y-38751142D01*
X143116927Y-38742519D01*
X143106202Y-38732798D01*
X143096481Y-38722073D01*
X143087858Y-38710447D01*
X143080417Y-38698031D01*
X143074228Y-38684946D01*
X143069351Y-38671317D01*
X143065834Y-38657276D01*
X143063710Y-38642958D01*
X143063000Y-38628500D01*
X143063000Y-38333500D01*
X143063710Y-38319042D01*
X143065834Y-38304724D01*
X143069351Y-38290683D01*
X143074228Y-38277054D01*
X143080417Y-38263969D01*
X143087858Y-38251553D01*
X143096481Y-38239927D01*
X143106202Y-38229202D01*
X143116927Y-38219481D01*
X143128553Y-38210858D01*
X143140969Y-38203417D01*
X143154054Y-38197228D01*
X143167683Y-38192351D01*
X143181724Y-38188834D01*
X143196042Y-38186710D01*
X143210500Y-38186000D01*
X143555500Y-38186000D01*
X143569958Y-38186710D01*
X143569958Y-38186710D01*
G37*
D12*
G04 #@! TD*
G04 #@! TO.P,D1,1*
G04 #@! TO.N,GND*
X143383000Y-38481000D03*
D11*
G04 #@! TO.N,Net-(D1-Pad2)*
G04 #@! TO.C,D1*
G36*
X143569958Y-37216710D02*
G01*
X143584276Y-37218834D01*
X143598317Y-37222351D01*
X143611946Y-37227228D01*
X143625031Y-37233417D01*
X143637447Y-37240858D01*
X143649073Y-37249481D01*
X143659798Y-37259202D01*
X143669519Y-37269927D01*
X143678142Y-37281553D01*
X143685583Y-37293969D01*
X143691772Y-37307054D01*
X143696649Y-37320683D01*
X143700166Y-37334724D01*
X143702290Y-37349042D01*
X143703000Y-37363500D01*
X143703000Y-37658500D01*
X143702290Y-37672958D01*
X143700166Y-37687276D01*
X143696649Y-37701317D01*
X143691772Y-37714946D01*
X143685583Y-37728031D01*
X143678142Y-37740447D01*
X143669519Y-37752073D01*
X143659798Y-37762798D01*
X143649073Y-37772519D01*
X143637447Y-37781142D01*
X143625031Y-37788583D01*
X143611946Y-37794772D01*
X143598317Y-37799649D01*
X143584276Y-37803166D01*
X143569958Y-37805290D01*
X143555500Y-37806000D01*
X143210500Y-37806000D01*
X143196042Y-37805290D01*
X143181724Y-37803166D01*
X143167683Y-37799649D01*
X143154054Y-37794772D01*
X143140969Y-37788583D01*
X143128553Y-37781142D01*
X143116927Y-37772519D01*
X143106202Y-37762798D01*
X143096481Y-37752073D01*
X143087858Y-37740447D01*
X143080417Y-37728031D01*
X143074228Y-37714946D01*
X143069351Y-37701317D01*
X143065834Y-37687276D01*
X143063710Y-37672958D01*
X143063000Y-37658500D01*
X143063000Y-37363500D01*
X143063710Y-37349042D01*
X143065834Y-37334724D01*
X143069351Y-37320683D01*
X143074228Y-37307054D01*
X143080417Y-37293969D01*
X143087858Y-37281553D01*
X143096481Y-37269927D01*
X143106202Y-37259202D01*
X143116927Y-37249481D01*
X143128553Y-37240858D01*
X143140969Y-37233417D01*
X143154054Y-37227228D01*
X143167683Y-37222351D01*
X143181724Y-37218834D01*
X143196042Y-37216710D01*
X143210500Y-37216000D01*
X143555500Y-37216000D01*
X143569958Y-37216710D01*
X143569958Y-37216710D01*
G37*
D12*
G04 #@! TD*
G04 #@! TO.P,D1,2*
G04 #@! TO.N,Net-(D1-Pad2)*
X143383000Y-37511000D03*
D15*
G04 #@! TO.P,J4,8*
G04 #@! TO.N,GND*
X162433000Y-46101000D03*
G04 #@! TO.P,J4,7*
G04 #@! TO.N,VCC*
X159893000Y-46101000D03*
G04 #@! TO.P,J4,6*
G04 #@! TO.N,CE*
X162433000Y-43561000D03*
G04 #@! TO.P,J4,5*
G04 #@! TO.N,CSN*
X159893000Y-43561000D03*
G04 #@! TO.P,J4,4*
G04 #@! TO.N,RXD1_SCK*
X162433000Y-41021000D03*
G04 #@! TO.P,J4,3*
G04 #@! TO.N,MOSI*
X159893000Y-41021000D03*
G04 #@! TO.P,J4,2*
G04 #@! TO.N,TXD1_MISO*
X162433000Y-38481000D03*
D14*
G04 #@! TO.P,J4,1*
G04 #@! TO.N,IRQ*
X159893000Y-38481000D03*
G04 #@! TD*
D17*
G04 #@! TO.N,TX_BUILDING*
X144907000Y-42762000D03*
G04 #@! TO.N,RX_BUILDING*
X141605000Y-46609000D03*
X144018000Y-42037000D03*
G04 #@! TO.N,GND*
X143383000Y-39370000D03*
X147574000Y-37973000D03*
G04 #@! TO.N,VCC*
X152781000Y-47821001D03*
X147320000Y-47244000D03*
G04 #@! TO.N,TXD1_MISO*
X152019000Y-40640000D03*
X152019000Y-43307000D03*
G04 #@! TO.N,CE*
X154178000Y-45339000D03*
G04 #@! TD*
D18*
G04 #@! TO.N,Net-(D1-Pad2)*
X143383000Y-37511000D02*
X144399000Y-37511000D01*
G04 #@! TO.N,TX_BUILDING*
X141947000Y-43734000D02*
X142367000Y-43734000D01*
X140690999Y-44990001D02*
X141947000Y-43734000D01*
X139389999Y-44990001D02*
X140690999Y-44990001D01*
X138778999Y-44379001D02*
X139389999Y-44990001D01*
X138778999Y-42450001D02*
X138778999Y-44379001D01*
X139954000Y-41275000D02*
X138778999Y-42450001D01*
X142367000Y-43314000D02*
X142367000Y-41402000D01*
X141947000Y-43734000D02*
X142367000Y-43314000D01*
X148844000Y-45786000D02*
X148844000Y-43180000D01*
X148844000Y-43180000D02*
X148426000Y-42762000D01*
X148426000Y-42762000D02*
X144907000Y-42762000D01*
G04 #@! TO.N,RX_BUILDING*
X140803999Y-42965001D02*
X139954000Y-43815000D01*
X141721990Y-42047010D02*
X140803999Y-42965001D01*
X141721990Y-39888010D02*
X141721990Y-42047010D01*
X142367000Y-39243000D02*
X141721990Y-39888010D01*
X142367000Y-46690000D02*
X141686000Y-46690000D01*
X141686000Y-46690000D02*
X141605000Y-46609000D01*
X150114000Y-45786000D02*
X150114000Y-45336000D01*
X150114000Y-45336000D02*
X150114000Y-43688000D01*
X150114000Y-43688000D02*
X148463000Y-42037000D01*
X148463000Y-42037000D02*
X144018000Y-42037000D01*
G04 #@! TO.N,GND*
X143383000Y-40005000D02*
X143764000Y-40386000D01*
X142073999Y-45505001D02*
X142367000Y-45212000D01*
X140803999Y-45505001D02*
X142073999Y-45505001D01*
X139954000Y-46355000D02*
X140803999Y-45505001D01*
X142367000Y-44704000D02*
X142367000Y-45212000D01*
X142367000Y-45212000D02*
X142367000Y-45720000D01*
X150495000Y-37973000D02*
X148596000Y-37973000D01*
X152781000Y-44277000D02*
X153797000Y-44277000D01*
X154386000Y-44277000D02*
X153797000Y-44277000D01*
X156210000Y-46101000D02*
X154386000Y-44277000D01*
X168656000Y-47371000D02*
X168656000Y-39751000D01*
X143383000Y-39370000D02*
X143383000Y-40005000D01*
X143383000Y-38481000D02*
X143383000Y-39370000D01*
X147574000Y-37973000D02*
X148596000Y-37973000D01*
G04 #@! TO.N,Net-(R1-Pad2)*
X144399000Y-39751000D02*
X145034000Y-40386000D01*
X144399000Y-38481000D02*
X144399000Y-39751000D01*
G04 #@! TO.N,VCC*
X140416000Y-38273000D02*
X139954000Y-38735000D01*
X142367000Y-38273000D02*
X140416000Y-38273000D01*
X143764000Y-44786000D02*
X143764000Y-45786000D01*
X143138999Y-44160999D02*
X143764000Y-44786000D01*
X143138999Y-40783999D02*
X143138999Y-44160999D01*
X142787000Y-40432000D02*
X143138999Y-40783999D01*
X142367000Y-40432000D02*
X142787000Y-40432000D01*
X142367000Y-37878000D02*
X142367000Y-38273000D01*
X142367000Y-37538768D02*
X142367000Y-37878000D01*
X143014778Y-36890990D02*
X142367000Y-37538768D01*
X144767222Y-36890990D02*
X143014778Y-36890990D01*
X145100290Y-37224058D02*
X144767222Y-36890990D01*
X145100290Y-37277290D02*
X145100290Y-37224058D01*
X145796000Y-37973000D02*
X145100290Y-37277290D01*
X153803000Y-38481000D02*
X153295000Y-37973000D01*
X156210000Y-38481000D02*
X153803000Y-38481000D01*
X159893000Y-46101000D02*
X158172999Y-47821001D01*
X158172999Y-47821001D02*
X152781000Y-47821001D01*
X157310000Y-38481000D02*
X156210000Y-38481000D01*
X159755001Y-36035999D02*
X157310000Y-38481000D01*
X167480999Y-36035999D02*
X159755001Y-36035999D01*
X168656000Y-37211000D02*
X167480999Y-36035999D01*
X153295000Y-39122000D02*
X153797000Y-39624000D01*
X153295000Y-37973000D02*
X153295000Y-39122000D01*
X153295000Y-39156000D02*
X152781000Y-39670000D01*
X153295000Y-39122000D02*
X153295000Y-39156000D01*
X144772000Y-47244000D02*
X147320000Y-47244000D01*
X143764000Y-45786000D02*
X143764000Y-46236000D01*
X143764000Y-46236000D02*
X144772000Y-47244000D01*
X152599290Y-37277290D02*
X153295000Y-37973000D01*
X152094990Y-36772990D02*
X152599290Y-37277290D01*
X146996010Y-36772990D02*
X152094990Y-36772990D01*
X145796000Y-37973000D02*
X146996010Y-36772990D01*
G04 #@! TO.N,RXD1_SCK*
X150114000Y-40836000D02*
X150114000Y-40386000D01*
X150739001Y-41461001D02*
X150114000Y-40836000D01*
X152948231Y-41461001D02*
X150739001Y-41461001D01*
X153462832Y-40946400D02*
X152948231Y-41461001D01*
X153462832Y-40928168D02*
X153462832Y-40946400D01*
X153797000Y-40594000D02*
X153462832Y-40928168D01*
X155783000Y-40594000D02*
X156210000Y-41021000D01*
X153797000Y-40594000D02*
X155783000Y-40594000D01*
X153797000Y-42309770D02*
X152948231Y-41461001D01*
X153797000Y-43307000D02*
X153797000Y-42309770D01*
G04 #@! TO.N,TXD1_MISO*
X151638000Y-40640000D02*
X151384000Y-40386000D01*
X152019000Y-40640000D02*
X151638000Y-40640000D01*
X152781000Y-40640000D02*
X152019000Y-40640000D01*
X152781000Y-43307000D02*
X152019000Y-43307000D01*
X162433000Y-38481000D02*
X163957000Y-40005000D01*
X163957000Y-45212000D02*
X166116000Y-47371000D01*
X163957000Y-40005000D02*
X163957000Y-45212000D01*
G04 #@! TO.N,MOSI*
X156774001Y-47276001D02*
X157988000Y-46062002D01*
X153424001Y-47276001D02*
X156774001Y-47276001D01*
X151384000Y-45786000D02*
X151934000Y-45786000D01*
X151934000Y-45786000D02*
X153424001Y-47276001D01*
X157988000Y-42926000D02*
X159893000Y-41021000D01*
X157988000Y-46062002D02*
X157988000Y-42926000D01*
X165016000Y-37211000D02*
X166116000Y-37211000D01*
X161963998Y-37211000D02*
X165016000Y-37211000D01*
X161257999Y-37916999D02*
X161963998Y-37211000D01*
X161257999Y-39656001D02*
X161257999Y-37916999D01*
X159893000Y-41021000D02*
X161257999Y-39656001D01*
G04 #@! TO.N,RESET*
X166965999Y-43140999D02*
X166116000Y-42291000D01*
X167291001Y-43466001D02*
X166965999Y-43140999D01*
X167291001Y-47935001D02*
X167291001Y-43466001D01*
X149884001Y-48546001D02*
X166680001Y-48546001D01*
X147574000Y-46236000D02*
X149884001Y-48546001D01*
X166680001Y-48546001D02*
X167291001Y-47935001D01*
X147574000Y-45786000D02*
X147574000Y-46236000D01*
G04 #@! TO.N,CE*
X152797000Y-45339000D02*
X154178000Y-45339000D01*
X148844000Y-40386000D02*
X148844000Y-41386000D01*
X148844000Y-41386000D02*
X152797000Y-45339000D01*
G04 #@! TD*
D19*
G04 #@! TO.N,GND*
G36*
X140081000Y-46228000D02*
G01*
X140101000Y-46228000D01*
X140101000Y-46482000D01*
X140081000Y-46482000D01*
X140081000Y-47675814D01*
X140310891Y-47796481D01*
X140585252Y-47699157D01*
X140835355Y-47550178D01*
X140969567Y-47429201D01*
X141114744Y-47526205D01*
X141303102Y-47604226D01*
X141503061Y-47644000D01*
X141706939Y-47644000D01*
X141906898Y-47604226D01*
X141958464Y-47582867D01*
X142041243Y-47607977D01*
X142194500Y-47623072D01*
X142539500Y-47623072D01*
X142692757Y-47607977D01*
X142840125Y-47563274D01*
X142975940Y-47490679D01*
X143094983Y-47392983D01*
X143192679Y-47273940D01*
X143264738Y-47139128D01*
X143339518Y-47161812D01*
X143464000Y-47174072D01*
X143627271Y-47174072D01*
X144208201Y-47755003D01*
X144231999Y-47784001D01*
X144347724Y-47878974D01*
X144479753Y-47949546D01*
X144623014Y-47993003D01*
X144734667Y-48004000D01*
X144734676Y-48004000D01*
X144771999Y-48007676D01*
X144809322Y-48004000D01*
X146616289Y-48004000D01*
X146660226Y-48047937D01*
X146829744Y-48161205D01*
X147018102Y-48239226D01*
X147218061Y-48279000D01*
X147421939Y-48279000D01*
X147621898Y-48239226D01*
X147810256Y-48161205D01*
X147979774Y-48047937D01*
X148123937Y-47903774D01*
X148141175Y-47877976D01*
X148752198Y-48489000D01*
X138709000Y-48489000D01*
X138709000Y-47157637D01*
X138856412Y-47355269D01*
X139072645Y-47550178D01*
X139322748Y-47699157D01*
X139597109Y-47796481D01*
X139827000Y-47675814D01*
X139827000Y-46482000D01*
X139807000Y-46482000D01*
X139807000Y-46228000D01*
X139827000Y-46228000D01*
X139827000Y-46208000D01*
X140081000Y-46208000D01*
X140081000Y-46228000D01*
X140081000Y-46228000D01*
G37*
X140081000Y-46228000D02*
X140101000Y-46228000D01*
X140101000Y-46482000D01*
X140081000Y-46482000D01*
X140081000Y-47675814D01*
X140310891Y-47796481D01*
X140585252Y-47699157D01*
X140835355Y-47550178D01*
X140969567Y-47429201D01*
X141114744Y-47526205D01*
X141303102Y-47604226D01*
X141503061Y-47644000D01*
X141706939Y-47644000D01*
X141906898Y-47604226D01*
X141958464Y-47582867D01*
X142041243Y-47607977D01*
X142194500Y-47623072D01*
X142539500Y-47623072D01*
X142692757Y-47607977D01*
X142840125Y-47563274D01*
X142975940Y-47490679D01*
X143094983Y-47392983D01*
X143192679Y-47273940D01*
X143264738Y-47139128D01*
X143339518Y-47161812D01*
X143464000Y-47174072D01*
X143627271Y-47174072D01*
X144208201Y-47755003D01*
X144231999Y-47784001D01*
X144347724Y-47878974D01*
X144479753Y-47949546D01*
X144623014Y-47993003D01*
X144734667Y-48004000D01*
X144734676Y-48004000D01*
X144771999Y-48007676D01*
X144809322Y-48004000D01*
X146616289Y-48004000D01*
X146660226Y-48047937D01*
X146829744Y-48161205D01*
X147018102Y-48239226D01*
X147218061Y-48279000D01*
X147421939Y-48279000D01*
X147621898Y-48239226D01*
X147810256Y-48161205D01*
X147979774Y-48047937D01*
X148123937Y-47903774D01*
X148141175Y-47877976D01*
X148752198Y-48489000D01*
X138709000Y-48489000D01*
X138709000Y-47157637D01*
X138856412Y-47355269D01*
X139072645Y-47550178D01*
X139322748Y-47699157D01*
X139597109Y-47796481D01*
X139827000Y-47675814D01*
X139827000Y-46482000D01*
X139807000Y-46482000D01*
X139807000Y-46228000D01*
X139827000Y-46228000D01*
X139827000Y-46208000D01*
X140081000Y-46208000D01*
X140081000Y-46228000D01*
G36*
X162560000Y-45974000D02*
G01*
X162580000Y-45974000D01*
X162580000Y-46228000D01*
X162560000Y-46228000D01*
X162560000Y-47421814D01*
X162789891Y-47542481D01*
X163064252Y-47445157D01*
X163314355Y-47296178D01*
X163530588Y-47101269D01*
X163704641Y-46867920D01*
X163829825Y-46605099D01*
X163874476Y-46457890D01*
X163753156Y-46228002D01*
X163898201Y-46228002D01*
X164675203Y-47005005D01*
X164652487Y-47079889D01*
X164623815Y-47371000D01*
X164652487Y-47662111D01*
X164690069Y-47786001D01*
X159282800Y-47786001D01*
X159527005Y-47541797D01*
X159601889Y-47564513D01*
X159820050Y-47586000D01*
X159965950Y-47586000D01*
X160184111Y-47564513D01*
X160464034Y-47479599D01*
X160722014Y-47341706D01*
X160948134Y-47156134D01*
X161133706Y-46930014D01*
X161164584Y-46872244D01*
X161335412Y-47101269D01*
X161551645Y-47296178D01*
X161801748Y-47445157D01*
X162076109Y-47542481D01*
X162306000Y-47421814D01*
X162306000Y-46228000D01*
X162286000Y-46228000D01*
X162286000Y-45974000D01*
X162306000Y-45974000D01*
X162306000Y-45954000D01*
X162560000Y-45954000D01*
X162560000Y-45974000D01*
X162560000Y-45974000D01*
G37*
X162560000Y-45974000D02*
X162580000Y-45974000D01*
X162580000Y-46228000D01*
X162560000Y-46228000D01*
X162560000Y-47421814D01*
X162789891Y-47542481D01*
X163064252Y-47445157D01*
X163314355Y-47296178D01*
X163530588Y-47101269D01*
X163704641Y-46867920D01*
X163829825Y-46605099D01*
X163874476Y-46457890D01*
X163753156Y-46228002D01*
X163898201Y-46228002D01*
X164675203Y-47005005D01*
X164652487Y-47079889D01*
X164623815Y-47371000D01*
X164652487Y-47662111D01*
X164690069Y-47786001D01*
X159282800Y-47786001D01*
X159527005Y-47541797D01*
X159601889Y-47564513D01*
X159820050Y-47586000D01*
X159965950Y-47586000D01*
X160184111Y-47564513D01*
X160464034Y-47479599D01*
X160722014Y-47341706D01*
X160948134Y-47156134D01*
X161133706Y-46930014D01*
X161164584Y-46872244D01*
X161335412Y-47101269D01*
X161551645Y-47296178D01*
X161801748Y-47445157D01*
X162076109Y-47542481D01*
X162306000Y-47421814D01*
X162306000Y-46228000D01*
X162286000Y-46228000D01*
X162286000Y-45974000D01*
X162306000Y-45974000D01*
X162306000Y-45954000D01*
X162560000Y-45954000D01*
X162560000Y-45974000D01*
G36*
X168783000Y-39624000D02*
G01*
X168803000Y-39624000D01*
X168803000Y-39878000D01*
X168783000Y-39878000D01*
X168783000Y-42164000D01*
X168803000Y-42164000D01*
X168803000Y-42418000D01*
X168783000Y-42418000D01*
X168783000Y-44704000D01*
X168803000Y-44704000D01*
X168803000Y-44958000D01*
X168783000Y-44958000D01*
X168783000Y-47244000D01*
X168803000Y-47244000D01*
X168803000Y-47498000D01*
X168783000Y-47498000D01*
X168783000Y-47518000D01*
X168529000Y-47518000D01*
X168529000Y-47498000D01*
X168509000Y-47498000D01*
X168509000Y-47244000D01*
X168529000Y-47244000D01*
X168529000Y-44958000D01*
X168509000Y-44958000D01*
X168509000Y-44704000D01*
X168529000Y-44704000D01*
X168529000Y-42418000D01*
X168509000Y-42418000D01*
X168509000Y-42164000D01*
X168529000Y-42164000D01*
X168529000Y-39878000D01*
X168509000Y-39878000D01*
X168509000Y-39624000D01*
X168529000Y-39624000D01*
X168529000Y-39604000D01*
X168783000Y-39604000D01*
X168783000Y-39624000D01*
X168783000Y-39624000D01*
G37*
X168783000Y-39624000D02*
X168803000Y-39624000D01*
X168803000Y-39878000D01*
X168783000Y-39878000D01*
X168783000Y-42164000D01*
X168803000Y-42164000D01*
X168803000Y-42418000D01*
X168783000Y-42418000D01*
X168783000Y-44704000D01*
X168803000Y-44704000D01*
X168803000Y-44958000D01*
X168783000Y-44958000D01*
X168783000Y-47244000D01*
X168803000Y-47244000D01*
X168803000Y-47498000D01*
X168783000Y-47498000D01*
X168783000Y-47518000D01*
X168529000Y-47518000D01*
X168529000Y-47498000D01*
X168509000Y-47498000D01*
X168509000Y-47244000D01*
X168529000Y-47244000D01*
X168529000Y-44958000D01*
X168509000Y-44958000D01*
X168509000Y-44704000D01*
X168529000Y-44704000D01*
X168529000Y-42418000D01*
X168509000Y-42418000D01*
X168509000Y-42164000D01*
X168529000Y-42164000D01*
X168529000Y-39878000D01*
X168509000Y-39878000D01*
X168509000Y-39624000D01*
X168529000Y-39624000D01*
X168529000Y-39604000D01*
X168783000Y-39604000D01*
X168783000Y-39624000D01*
G36*
X156337000Y-45974000D02*
G01*
X156357000Y-45974000D01*
X156357000Y-46228000D01*
X156337000Y-46228000D01*
X156337000Y-46248000D01*
X156083000Y-46248000D01*
X156083000Y-46228000D01*
X156063000Y-46228000D01*
X156063000Y-45974000D01*
X156083000Y-45974000D01*
X156083000Y-45954000D01*
X156337000Y-45954000D01*
X156337000Y-45974000D01*
X156337000Y-45974000D01*
G37*
X156337000Y-45974000D02*
X156357000Y-45974000D01*
X156357000Y-46228000D01*
X156337000Y-46228000D01*
X156337000Y-46248000D01*
X156083000Y-46248000D01*
X156083000Y-46228000D01*
X156063000Y-46228000D01*
X156063000Y-45974000D01*
X156083000Y-45974000D01*
X156083000Y-45954000D01*
X156337000Y-45954000D01*
X156337000Y-45974000D01*
G36*
X142514000Y-44831000D02*
G01*
X142494000Y-44831000D01*
X142494000Y-45593000D01*
X142514000Y-45593000D01*
X142514000Y-45756928D01*
X142220000Y-45756928D01*
X142220000Y-45593000D01*
X142240000Y-45593000D01*
X142240000Y-44831000D01*
X142220000Y-44831000D01*
X142220000Y-44667072D01*
X142514000Y-44667072D01*
X142514000Y-44831000D01*
X142514000Y-44831000D01*
G37*
X142514000Y-44831000D02*
X142494000Y-44831000D01*
X142494000Y-45593000D01*
X142514000Y-45593000D01*
X142514000Y-45756928D01*
X142220000Y-45756928D01*
X142220000Y-45593000D01*
X142240000Y-45593000D01*
X142240000Y-44831000D01*
X142220000Y-44831000D01*
X142220000Y-44667072D01*
X142514000Y-44667072D01*
X142514000Y-44831000D01*
G36*
X154746487Y-43852111D02*
G01*
X154831401Y-44132034D01*
X154969294Y-44390014D01*
X155154866Y-44616134D01*
X155380986Y-44801706D01*
X155445523Y-44836201D01*
X155328645Y-44905822D01*
X155174712Y-45044574D01*
X155173226Y-45037102D01*
X155095205Y-44848744D01*
X154981937Y-44679226D01*
X154837774Y-44535063D01*
X154668256Y-44421795D01*
X154479898Y-44343774D01*
X154279939Y-44304000D01*
X154076061Y-44304000D01*
X153876102Y-44343774D01*
X153687744Y-44421795D01*
X153684444Y-44424000D01*
X153670000Y-44424000D01*
X153670000Y-44404000D01*
X152936802Y-44404000D01*
X152772874Y-44240072D01*
X152953500Y-44240072D01*
X153106757Y-44224977D01*
X153254125Y-44180274D01*
X153289000Y-44161633D01*
X153323875Y-44180274D01*
X153471243Y-44224977D01*
X153624500Y-44240072D01*
X153969500Y-44240072D01*
X154122757Y-44224977D01*
X154270125Y-44180274D01*
X154326763Y-44150000D01*
X154593250Y-44150000D01*
X154752000Y-43991250D01*
X154755072Y-43982000D01*
X154742812Y-43857518D01*
X154706502Y-43737820D01*
X154702688Y-43730684D01*
X154726723Y-43651449D01*
X154746487Y-43852111D01*
X154746487Y-43852111D01*
G37*
X154746487Y-43852111D02*
X154831401Y-44132034D01*
X154969294Y-44390014D01*
X155154866Y-44616134D01*
X155380986Y-44801706D01*
X155445523Y-44836201D01*
X155328645Y-44905822D01*
X155174712Y-45044574D01*
X155173226Y-45037102D01*
X155095205Y-44848744D01*
X154981937Y-44679226D01*
X154837774Y-44535063D01*
X154668256Y-44421795D01*
X154479898Y-44343774D01*
X154279939Y-44304000D01*
X154076061Y-44304000D01*
X153876102Y-44343774D01*
X153687744Y-44421795D01*
X153684444Y-44424000D01*
X153670000Y-44424000D01*
X153670000Y-44404000D01*
X152936802Y-44404000D01*
X152772874Y-44240072D01*
X152953500Y-44240072D01*
X153106757Y-44224977D01*
X153254125Y-44180274D01*
X153289000Y-44161633D01*
X153323875Y-44180274D01*
X153471243Y-44224977D01*
X153624500Y-44240072D01*
X153969500Y-44240072D01*
X154122757Y-44224977D01*
X154270125Y-44180274D01*
X154326763Y-44150000D01*
X154593250Y-44150000D01*
X154752000Y-43991250D01*
X154755072Y-43982000D01*
X154742812Y-43857518D01*
X154706502Y-43737820D01*
X154702688Y-43730684D01*
X154726723Y-43651449D01*
X154746487Y-43852111D01*
G36*
X143828585Y-40253940D02*
G01*
X143859000Y-40291001D01*
X143887998Y-40314799D01*
X143911000Y-40337801D01*
X143911000Y-40513000D01*
X143891000Y-40513000D01*
X143891000Y-40533000D01*
X143857057Y-40533000D01*
X143844545Y-40491752D01*
X143773973Y-40359723D01*
X143679000Y-40243998D01*
X143672910Y-40239000D01*
X143816324Y-40239000D01*
X143828585Y-40253940D01*
X143828585Y-40253940D01*
G37*
X143828585Y-40253940D02*
X143859000Y-40291001D01*
X143887998Y-40314799D01*
X143911000Y-40337801D01*
X143911000Y-40513000D01*
X143891000Y-40513000D01*
X143891000Y-40533000D01*
X143857057Y-40533000D01*
X143844545Y-40491752D01*
X143773973Y-40359723D01*
X143679000Y-40243998D01*
X143672910Y-40239000D01*
X143816324Y-40239000D01*
X143828585Y-40253940D01*
G36*
X147336000Y-37687250D02*
G01*
X147494750Y-37846000D01*
X148469000Y-37846000D01*
X148469000Y-37826000D01*
X148723000Y-37826000D01*
X148723000Y-37846000D01*
X150368000Y-37846000D01*
X150368000Y-37826000D01*
X150622000Y-37826000D01*
X150622000Y-37846000D01*
X151596250Y-37846000D01*
X151755000Y-37687250D01*
X151755804Y-37532990D01*
X151780189Y-37532990D01*
X152031928Y-37784729D01*
X152031928Y-38598000D01*
X152048992Y-38771254D01*
X152097341Y-38930641D01*
X152053017Y-38967017D01*
X151969613Y-39068645D01*
X151928180Y-39046498D01*
X151808482Y-39010188D01*
X151736524Y-39003101D01*
X151745812Y-38972482D01*
X151758072Y-38848000D01*
X151755000Y-38258750D01*
X151596250Y-38100000D01*
X150622000Y-38100000D01*
X150622000Y-38120000D01*
X150368000Y-38120000D01*
X150368000Y-38100000D01*
X148723000Y-38100000D01*
X148723000Y-38120000D01*
X148469000Y-38120000D01*
X148469000Y-38100000D01*
X147494750Y-38100000D01*
X147336000Y-38258750D01*
X147332928Y-38848000D01*
X147345188Y-38972482D01*
X147352907Y-38997928D01*
X147274000Y-38997928D01*
X147149518Y-39010188D01*
X147029820Y-39046498D01*
X146939000Y-39095043D01*
X146914461Y-39081927D01*
X146991472Y-38937850D01*
X147042008Y-38771254D01*
X147059072Y-38598000D01*
X147059072Y-37784730D01*
X147310813Y-37532990D01*
X147335196Y-37532990D01*
X147336000Y-37687250D01*
X147336000Y-37687250D01*
G37*
X147336000Y-37687250D02*
X147494750Y-37846000D01*
X148469000Y-37846000D01*
X148469000Y-37826000D01*
X148723000Y-37826000D01*
X148723000Y-37846000D01*
X150368000Y-37846000D01*
X150368000Y-37826000D01*
X150622000Y-37826000D01*
X150622000Y-37846000D01*
X151596250Y-37846000D01*
X151755000Y-37687250D01*
X151755804Y-37532990D01*
X151780189Y-37532990D01*
X152031928Y-37784729D01*
X152031928Y-38598000D01*
X152048992Y-38771254D01*
X152097341Y-38930641D01*
X152053017Y-38967017D01*
X151969613Y-39068645D01*
X151928180Y-39046498D01*
X151808482Y-39010188D01*
X151736524Y-39003101D01*
X151745812Y-38972482D01*
X151758072Y-38848000D01*
X151755000Y-38258750D01*
X151596250Y-38100000D01*
X150622000Y-38100000D01*
X150622000Y-38120000D01*
X150368000Y-38120000D01*
X150368000Y-38100000D01*
X148723000Y-38100000D01*
X148723000Y-38120000D01*
X148469000Y-38120000D01*
X148469000Y-38100000D01*
X147494750Y-38100000D01*
X147336000Y-38258750D01*
X147332928Y-38848000D01*
X147345188Y-38972482D01*
X147352907Y-38997928D01*
X147274000Y-38997928D01*
X147149518Y-39010188D01*
X147029820Y-39046498D01*
X146939000Y-39095043D01*
X146914461Y-39081927D01*
X146991472Y-38937850D01*
X147042008Y-38771254D01*
X147059072Y-38598000D01*
X147059072Y-37784730D01*
X147310813Y-37532990D01*
X147335196Y-37532990D01*
X147336000Y-37687250D01*
G36*
X143440928Y-38628000D02*
G01*
X143293523Y-38628000D01*
X143309977Y-38573757D01*
X143322750Y-38444072D01*
X143440928Y-38444072D01*
X143440928Y-38628000D01*
X143440928Y-38628000D01*
G37*
X143440928Y-38628000D02*
X143293523Y-38628000D01*
X143309977Y-38573757D01*
X143322750Y-38444072D01*
X143440928Y-38444072D01*
X143440928Y-38628000D01*
G04 #@! TD*
M02*
