G04 #@! TF.GenerationSoftware,KiCad,Pcbnew,(5.1.0)-1*
G04 #@! TF.CreationDate,2020-05-09T23:37:50+02:00*
G04 #@! TF.ProjectId,Token,546f6b65-6e2e-46b6-9963-61645f706362,rev?*
G04 #@! TF.SameCoordinates,Original*
G04 #@! TF.FileFunction,Soldermask,Bot*
G04 #@! TF.FilePolarity,Negative*
%FSLAX46Y46*%
G04 Gerber Fmt 4.6, Leading zero omitted, Abs format (unit mm)*
G04 Created by KiCad (PCBNEW (5.1.0)-1) date 2020-05-09 23:37:50*
%MOMM*%
%LPD*%
G04 APERTURE LIST*
%ADD10C,0.050000*%
%ADD11C,0.100000*%
G04 APERTURE END LIST*
D10*
X138049000Y-49149000D02*
X138049000Y-48133000D01*
X170434000Y-49149000D02*
X138049000Y-49149000D01*
X138049000Y-35433000D02*
X138049000Y-48133000D01*
X170434000Y-35433000D02*
X138049000Y-35433000D01*
X170434000Y-49149000D02*
X170434000Y-35433000D01*
D11*
G36*
X168766442Y-46476518D02*
G01*
X168832627Y-46483037D01*
X169002466Y-46534557D01*
X169158991Y-46618222D01*
X169194729Y-46647552D01*
X169296186Y-46730814D01*
X169379448Y-46832271D01*
X169408778Y-46868009D01*
X169492443Y-47024534D01*
X169543963Y-47194373D01*
X169561359Y-47371000D01*
X169543963Y-47547627D01*
X169492443Y-47717466D01*
X169408778Y-47873991D01*
X169379448Y-47909729D01*
X169296186Y-48011186D01*
X169194729Y-48094448D01*
X169158991Y-48123778D01*
X169002466Y-48207443D01*
X168832627Y-48258963D01*
X168766442Y-48265482D01*
X168700260Y-48272000D01*
X168611740Y-48272000D01*
X168545558Y-48265482D01*
X168479373Y-48258963D01*
X168309534Y-48207443D01*
X168153009Y-48123778D01*
X168117271Y-48094448D01*
X168015814Y-48011186D01*
X167932552Y-47909729D01*
X167903222Y-47873991D01*
X167819557Y-47717466D01*
X167768037Y-47547627D01*
X167750641Y-47371000D01*
X167768037Y-47194373D01*
X167819557Y-47024534D01*
X167903222Y-46868009D01*
X167932552Y-46832271D01*
X168015814Y-46730814D01*
X168117271Y-46647552D01*
X168153009Y-46618222D01*
X168309534Y-46534557D01*
X168479373Y-46483037D01*
X168545557Y-46476519D01*
X168611740Y-46470000D01*
X168700260Y-46470000D01*
X168766442Y-46476518D01*
X168766442Y-46476518D01*
G37*
G36*
X166226442Y-46476518D02*
G01*
X166292627Y-46483037D01*
X166462466Y-46534557D01*
X166618991Y-46618222D01*
X166654729Y-46647552D01*
X166756186Y-46730814D01*
X166839448Y-46832271D01*
X166868778Y-46868009D01*
X166952443Y-47024534D01*
X167003963Y-47194373D01*
X167021359Y-47371000D01*
X167003963Y-47547627D01*
X166952443Y-47717466D01*
X166868778Y-47873991D01*
X166839448Y-47909729D01*
X166756186Y-48011186D01*
X166654729Y-48094448D01*
X166618991Y-48123778D01*
X166462466Y-48207443D01*
X166292627Y-48258963D01*
X166226442Y-48265482D01*
X166160260Y-48272000D01*
X166071740Y-48272000D01*
X166005558Y-48265482D01*
X165939373Y-48258963D01*
X165769534Y-48207443D01*
X165613009Y-48123778D01*
X165577271Y-48094448D01*
X165475814Y-48011186D01*
X165392552Y-47909729D01*
X165363222Y-47873991D01*
X165279557Y-47717466D01*
X165228037Y-47547627D01*
X165210641Y-47371000D01*
X165228037Y-47194373D01*
X165279557Y-47024534D01*
X165363222Y-46868009D01*
X165392552Y-46832271D01*
X165475814Y-46730814D01*
X165577271Y-46647552D01*
X165613009Y-46618222D01*
X165769534Y-46534557D01*
X165939373Y-46483037D01*
X166005557Y-46476519D01*
X166071740Y-46470000D01*
X166160260Y-46470000D01*
X166226442Y-46476518D01*
X166226442Y-46476518D01*
G37*
G36*
X140064443Y-45460519D02*
G01*
X140130627Y-45467037D01*
X140300466Y-45518557D01*
X140456991Y-45602222D01*
X140492729Y-45631552D01*
X140594186Y-45714814D01*
X140677448Y-45816271D01*
X140706778Y-45852009D01*
X140790443Y-46008534D01*
X140841963Y-46178373D01*
X140859359Y-46355000D01*
X140841963Y-46531627D01*
X140790443Y-46701466D01*
X140706778Y-46857991D01*
X140677448Y-46893729D01*
X140594186Y-46995186D01*
X140492729Y-47078448D01*
X140456991Y-47107778D01*
X140300466Y-47191443D01*
X140130627Y-47242963D01*
X140064442Y-47249482D01*
X139998260Y-47256000D01*
X139909740Y-47256000D01*
X139843558Y-47249482D01*
X139777373Y-47242963D01*
X139607534Y-47191443D01*
X139451009Y-47107778D01*
X139415271Y-47078448D01*
X139313814Y-46995186D01*
X139230552Y-46893729D01*
X139201222Y-46857991D01*
X139117557Y-46701466D01*
X139066037Y-46531627D01*
X139048641Y-46355000D01*
X139066037Y-46178373D01*
X139117557Y-46008534D01*
X139201222Y-45852009D01*
X139230552Y-45816271D01*
X139313814Y-45714814D01*
X139415271Y-45631552D01*
X139451009Y-45602222D01*
X139607534Y-45518557D01*
X139777373Y-45467037D01*
X139843557Y-45460519D01*
X139909740Y-45454000D01*
X139998260Y-45454000D01*
X140064443Y-45460519D01*
X140064443Y-45460519D01*
G37*
G36*
X162543443Y-45206519D02*
G01*
X162609627Y-45213037D01*
X162779466Y-45264557D01*
X162935991Y-45348222D01*
X162971729Y-45377552D01*
X163073186Y-45460814D01*
X163156448Y-45562271D01*
X163185778Y-45598009D01*
X163269443Y-45754534D01*
X163320963Y-45924373D01*
X163338359Y-46101000D01*
X163320963Y-46277627D01*
X163269443Y-46447466D01*
X163185778Y-46603991D01*
X163156448Y-46639729D01*
X163073186Y-46741186D01*
X162971729Y-46824448D01*
X162935991Y-46853778D01*
X162779466Y-46937443D01*
X162609627Y-46988963D01*
X162546453Y-46995185D01*
X162477260Y-47002000D01*
X162388740Y-47002000D01*
X162319547Y-46995185D01*
X162256373Y-46988963D01*
X162086534Y-46937443D01*
X161930009Y-46853778D01*
X161894271Y-46824448D01*
X161792814Y-46741186D01*
X161709552Y-46639729D01*
X161680222Y-46603991D01*
X161596557Y-46447466D01*
X161545037Y-46277627D01*
X161527641Y-46101000D01*
X161545037Y-45924373D01*
X161596557Y-45754534D01*
X161680222Y-45598009D01*
X161709552Y-45562271D01*
X161792814Y-45460814D01*
X161894271Y-45377552D01*
X161930009Y-45348222D01*
X162086534Y-45264557D01*
X162256373Y-45213037D01*
X162322557Y-45206519D01*
X162388740Y-45200000D01*
X162477260Y-45200000D01*
X162543443Y-45206519D01*
X162543443Y-45206519D01*
G37*
G36*
X160003443Y-45206519D02*
G01*
X160069627Y-45213037D01*
X160239466Y-45264557D01*
X160395991Y-45348222D01*
X160431729Y-45377552D01*
X160533186Y-45460814D01*
X160616448Y-45562271D01*
X160645778Y-45598009D01*
X160729443Y-45754534D01*
X160780963Y-45924373D01*
X160798359Y-46101000D01*
X160780963Y-46277627D01*
X160729443Y-46447466D01*
X160645778Y-46603991D01*
X160616448Y-46639729D01*
X160533186Y-46741186D01*
X160431729Y-46824448D01*
X160395991Y-46853778D01*
X160239466Y-46937443D01*
X160069627Y-46988963D01*
X160006453Y-46995185D01*
X159937260Y-47002000D01*
X159848740Y-47002000D01*
X159779547Y-46995185D01*
X159716373Y-46988963D01*
X159546534Y-46937443D01*
X159390009Y-46853778D01*
X159354271Y-46824448D01*
X159252814Y-46741186D01*
X159169552Y-46639729D01*
X159140222Y-46603991D01*
X159056557Y-46447466D01*
X159005037Y-46277627D01*
X158987641Y-46101000D01*
X159005037Y-45924373D01*
X159056557Y-45754534D01*
X159140222Y-45598009D01*
X159169552Y-45562271D01*
X159252814Y-45460814D01*
X159354271Y-45377552D01*
X159390009Y-45348222D01*
X159546534Y-45264557D01*
X159716373Y-45213037D01*
X159782557Y-45206519D01*
X159848740Y-45200000D01*
X159937260Y-45200000D01*
X160003443Y-45206519D01*
X160003443Y-45206519D01*
G37*
G36*
X156320443Y-45206519D02*
G01*
X156386627Y-45213037D01*
X156556466Y-45264557D01*
X156712991Y-45348222D01*
X156748729Y-45377552D01*
X156850186Y-45460814D01*
X156933448Y-45562271D01*
X156962778Y-45598009D01*
X157046443Y-45754534D01*
X157097963Y-45924373D01*
X157115359Y-46101000D01*
X157097963Y-46277627D01*
X157046443Y-46447466D01*
X156962778Y-46603991D01*
X156933448Y-46639729D01*
X156850186Y-46741186D01*
X156748729Y-46824448D01*
X156712991Y-46853778D01*
X156556466Y-46937443D01*
X156386627Y-46988963D01*
X156323453Y-46995185D01*
X156254260Y-47002000D01*
X156165740Y-47002000D01*
X156096547Y-46995185D01*
X156033373Y-46988963D01*
X155863534Y-46937443D01*
X155707009Y-46853778D01*
X155671271Y-46824448D01*
X155569814Y-46741186D01*
X155486552Y-46639729D01*
X155457222Y-46603991D01*
X155373557Y-46447466D01*
X155322037Y-46277627D01*
X155304641Y-46101000D01*
X155322037Y-45924373D01*
X155373557Y-45754534D01*
X155457222Y-45598009D01*
X155486552Y-45562271D01*
X155569814Y-45460814D01*
X155671271Y-45377552D01*
X155707009Y-45348222D01*
X155863534Y-45264557D01*
X156033373Y-45213037D01*
X156099557Y-45206519D01*
X156165740Y-45200000D01*
X156254260Y-45200000D01*
X156320443Y-45206519D01*
X156320443Y-45206519D01*
G37*
G36*
X166226443Y-43936519D02*
G01*
X166292627Y-43943037D01*
X166462466Y-43994557D01*
X166618991Y-44078222D01*
X166654729Y-44107552D01*
X166756186Y-44190814D01*
X166839448Y-44292271D01*
X166868778Y-44328009D01*
X166952443Y-44484534D01*
X167003963Y-44654373D01*
X167021359Y-44831000D01*
X167003963Y-45007627D01*
X166952443Y-45177466D01*
X166868778Y-45333991D01*
X166839448Y-45369729D01*
X166756186Y-45471186D01*
X166654729Y-45554448D01*
X166618991Y-45583778D01*
X166462466Y-45667443D01*
X166292627Y-45718963D01*
X166226442Y-45725482D01*
X166160260Y-45732000D01*
X166071740Y-45732000D01*
X166005558Y-45725482D01*
X165939373Y-45718963D01*
X165769534Y-45667443D01*
X165613009Y-45583778D01*
X165577271Y-45554448D01*
X165475814Y-45471186D01*
X165392552Y-45369729D01*
X165363222Y-45333991D01*
X165279557Y-45177466D01*
X165228037Y-45007627D01*
X165210641Y-44831000D01*
X165228037Y-44654373D01*
X165279557Y-44484534D01*
X165363222Y-44328009D01*
X165392552Y-44292271D01*
X165475814Y-44190814D01*
X165577271Y-44107552D01*
X165613009Y-44078222D01*
X165769534Y-43994557D01*
X165939373Y-43943037D01*
X166005557Y-43936519D01*
X166071740Y-43930000D01*
X166160260Y-43930000D01*
X166226443Y-43936519D01*
X166226443Y-43936519D01*
G37*
G36*
X168766443Y-43936519D02*
G01*
X168832627Y-43943037D01*
X169002466Y-43994557D01*
X169158991Y-44078222D01*
X169194729Y-44107552D01*
X169296186Y-44190814D01*
X169379448Y-44292271D01*
X169408778Y-44328009D01*
X169492443Y-44484534D01*
X169543963Y-44654373D01*
X169561359Y-44831000D01*
X169543963Y-45007627D01*
X169492443Y-45177466D01*
X169408778Y-45333991D01*
X169379448Y-45369729D01*
X169296186Y-45471186D01*
X169194729Y-45554448D01*
X169158991Y-45583778D01*
X169002466Y-45667443D01*
X168832627Y-45718963D01*
X168766442Y-45725482D01*
X168700260Y-45732000D01*
X168611740Y-45732000D01*
X168545558Y-45725482D01*
X168479373Y-45718963D01*
X168309534Y-45667443D01*
X168153009Y-45583778D01*
X168117271Y-45554448D01*
X168015814Y-45471186D01*
X167932552Y-45369729D01*
X167903222Y-45333991D01*
X167819557Y-45177466D01*
X167768037Y-45007627D01*
X167750641Y-44831000D01*
X167768037Y-44654373D01*
X167819557Y-44484534D01*
X167903222Y-44328009D01*
X167932552Y-44292271D01*
X168015814Y-44190814D01*
X168117271Y-44107552D01*
X168153009Y-44078222D01*
X168309534Y-43994557D01*
X168479373Y-43943037D01*
X168545557Y-43936519D01*
X168611740Y-43930000D01*
X168700260Y-43930000D01*
X168766443Y-43936519D01*
X168766443Y-43936519D01*
G37*
G36*
X140064443Y-42920519D02*
G01*
X140130627Y-42927037D01*
X140300466Y-42978557D01*
X140456991Y-43062222D01*
X140492729Y-43091552D01*
X140594186Y-43174814D01*
X140677448Y-43276271D01*
X140706778Y-43312009D01*
X140790443Y-43468534D01*
X140841963Y-43638373D01*
X140859359Y-43815000D01*
X140841963Y-43991627D01*
X140790443Y-44161466D01*
X140706778Y-44317991D01*
X140677448Y-44353729D01*
X140594186Y-44455186D01*
X140492729Y-44538448D01*
X140456991Y-44567778D01*
X140300466Y-44651443D01*
X140130627Y-44702963D01*
X140064443Y-44709481D01*
X139998260Y-44716000D01*
X139909740Y-44716000D01*
X139843557Y-44709481D01*
X139777373Y-44702963D01*
X139607534Y-44651443D01*
X139451009Y-44567778D01*
X139415271Y-44538448D01*
X139313814Y-44455186D01*
X139230552Y-44353729D01*
X139201222Y-44317991D01*
X139117557Y-44161466D01*
X139066037Y-43991627D01*
X139048641Y-43815000D01*
X139066037Y-43638373D01*
X139117557Y-43468534D01*
X139201222Y-43312009D01*
X139230552Y-43276271D01*
X139313814Y-43174814D01*
X139415271Y-43091552D01*
X139451009Y-43062222D01*
X139607534Y-42978557D01*
X139777373Y-42927037D01*
X139843557Y-42920519D01*
X139909740Y-42914000D01*
X139998260Y-42914000D01*
X140064443Y-42920519D01*
X140064443Y-42920519D01*
G37*
G36*
X162543442Y-42666518D02*
G01*
X162609627Y-42673037D01*
X162779466Y-42724557D01*
X162935991Y-42808222D01*
X162971729Y-42837552D01*
X163073186Y-42920814D01*
X163156448Y-43022271D01*
X163185778Y-43058009D01*
X163269443Y-43214534D01*
X163320963Y-43384373D01*
X163338359Y-43561000D01*
X163320963Y-43737627D01*
X163269443Y-43907466D01*
X163185778Y-44063991D01*
X163156448Y-44099729D01*
X163073186Y-44201186D01*
X162971729Y-44284448D01*
X162935991Y-44313778D01*
X162779466Y-44397443D01*
X162609627Y-44448963D01*
X162546453Y-44455185D01*
X162477260Y-44462000D01*
X162388740Y-44462000D01*
X162319547Y-44455185D01*
X162256373Y-44448963D01*
X162086534Y-44397443D01*
X161930009Y-44313778D01*
X161894271Y-44284448D01*
X161792814Y-44201186D01*
X161709552Y-44099729D01*
X161680222Y-44063991D01*
X161596557Y-43907466D01*
X161545037Y-43737627D01*
X161527641Y-43561000D01*
X161545037Y-43384373D01*
X161596557Y-43214534D01*
X161680222Y-43058009D01*
X161709552Y-43022271D01*
X161792814Y-42920814D01*
X161894271Y-42837552D01*
X161930009Y-42808222D01*
X162086534Y-42724557D01*
X162256373Y-42673037D01*
X162322558Y-42666518D01*
X162388740Y-42660000D01*
X162477260Y-42660000D01*
X162543442Y-42666518D01*
X162543442Y-42666518D01*
G37*
G36*
X156320442Y-42666518D02*
G01*
X156386627Y-42673037D01*
X156556466Y-42724557D01*
X156712991Y-42808222D01*
X156748729Y-42837552D01*
X156850186Y-42920814D01*
X156933448Y-43022271D01*
X156962778Y-43058009D01*
X157046443Y-43214534D01*
X157097963Y-43384373D01*
X157115359Y-43561000D01*
X157097963Y-43737627D01*
X157046443Y-43907466D01*
X156962778Y-44063991D01*
X156933448Y-44099729D01*
X156850186Y-44201186D01*
X156748729Y-44284448D01*
X156712991Y-44313778D01*
X156556466Y-44397443D01*
X156386627Y-44448963D01*
X156323453Y-44455185D01*
X156254260Y-44462000D01*
X156165740Y-44462000D01*
X156096547Y-44455185D01*
X156033373Y-44448963D01*
X155863534Y-44397443D01*
X155707009Y-44313778D01*
X155671271Y-44284448D01*
X155569814Y-44201186D01*
X155486552Y-44099729D01*
X155457222Y-44063991D01*
X155373557Y-43907466D01*
X155322037Y-43737627D01*
X155304641Y-43561000D01*
X155322037Y-43384373D01*
X155373557Y-43214534D01*
X155457222Y-43058009D01*
X155486552Y-43022271D01*
X155569814Y-42920814D01*
X155671271Y-42837552D01*
X155707009Y-42808222D01*
X155863534Y-42724557D01*
X156033373Y-42673037D01*
X156099558Y-42666518D01*
X156165740Y-42660000D01*
X156254260Y-42660000D01*
X156320442Y-42666518D01*
X156320442Y-42666518D01*
G37*
G36*
X160003442Y-42666518D02*
G01*
X160069627Y-42673037D01*
X160239466Y-42724557D01*
X160395991Y-42808222D01*
X160431729Y-42837552D01*
X160533186Y-42920814D01*
X160616448Y-43022271D01*
X160645778Y-43058009D01*
X160729443Y-43214534D01*
X160780963Y-43384373D01*
X160798359Y-43561000D01*
X160780963Y-43737627D01*
X160729443Y-43907466D01*
X160645778Y-44063991D01*
X160616448Y-44099729D01*
X160533186Y-44201186D01*
X160431729Y-44284448D01*
X160395991Y-44313778D01*
X160239466Y-44397443D01*
X160069627Y-44448963D01*
X160006453Y-44455185D01*
X159937260Y-44462000D01*
X159848740Y-44462000D01*
X159779547Y-44455185D01*
X159716373Y-44448963D01*
X159546534Y-44397443D01*
X159390009Y-44313778D01*
X159354271Y-44284448D01*
X159252814Y-44201186D01*
X159169552Y-44099729D01*
X159140222Y-44063991D01*
X159056557Y-43907466D01*
X159005037Y-43737627D01*
X158987641Y-43561000D01*
X159005037Y-43384373D01*
X159056557Y-43214534D01*
X159140222Y-43058009D01*
X159169552Y-43022271D01*
X159252814Y-42920814D01*
X159354271Y-42837552D01*
X159390009Y-42808222D01*
X159546534Y-42724557D01*
X159716373Y-42673037D01*
X159782558Y-42666518D01*
X159848740Y-42660000D01*
X159937260Y-42660000D01*
X160003442Y-42666518D01*
X160003442Y-42666518D01*
G37*
G36*
X168766442Y-41396518D02*
G01*
X168832627Y-41403037D01*
X169002466Y-41454557D01*
X169158991Y-41538222D01*
X169194729Y-41567552D01*
X169296186Y-41650814D01*
X169379448Y-41752271D01*
X169408778Y-41788009D01*
X169492443Y-41944534D01*
X169543963Y-42114373D01*
X169561359Y-42291000D01*
X169543963Y-42467627D01*
X169492443Y-42637466D01*
X169408778Y-42793991D01*
X169379448Y-42829729D01*
X169296186Y-42931186D01*
X169194729Y-43014448D01*
X169158991Y-43043778D01*
X169002466Y-43127443D01*
X168832627Y-43178963D01*
X168766443Y-43185481D01*
X168700260Y-43192000D01*
X168611740Y-43192000D01*
X168545558Y-43185482D01*
X168479373Y-43178963D01*
X168309534Y-43127443D01*
X168153009Y-43043778D01*
X168117271Y-43014448D01*
X168015814Y-42931186D01*
X167932552Y-42829729D01*
X167903222Y-42793991D01*
X167819557Y-42637466D01*
X167768037Y-42467627D01*
X167750641Y-42291000D01*
X167768037Y-42114373D01*
X167819557Y-41944534D01*
X167903222Y-41788009D01*
X167932552Y-41752271D01*
X168015814Y-41650814D01*
X168117271Y-41567552D01*
X168153009Y-41538222D01*
X168309534Y-41454557D01*
X168479373Y-41403037D01*
X168545558Y-41396518D01*
X168611740Y-41390000D01*
X168700260Y-41390000D01*
X168766442Y-41396518D01*
X168766442Y-41396518D01*
G37*
G36*
X166226442Y-41396518D02*
G01*
X166292627Y-41403037D01*
X166462466Y-41454557D01*
X166618991Y-41538222D01*
X166654729Y-41567552D01*
X166756186Y-41650814D01*
X166839448Y-41752271D01*
X166868778Y-41788009D01*
X166952443Y-41944534D01*
X167003963Y-42114373D01*
X167021359Y-42291000D01*
X167003963Y-42467627D01*
X166952443Y-42637466D01*
X166868778Y-42793991D01*
X166839448Y-42829729D01*
X166756186Y-42931186D01*
X166654729Y-43014448D01*
X166618991Y-43043778D01*
X166462466Y-43127443D01*
X166292627Y-43178963D01*
X166226443Y-43185481D01*
X166160260Y-43192000D01*
X166071740Y-43192000D01*
X166005558Y-43185482D01*
X165939373Y-43178963D01*
X165769534Y-43127443D01*
X165613009Y-43043778D01*
X165577271Y-43014448D01*
X165475814Y-42931186D01*
X165392552Y-42829729D01*
X165363222Y-42793991D01*
X165279557Y-42637466D01*
X165228037Y-42467627D01*
X165210641Y-42291000D01*
X165228037Y-42114373D01*
X165279557Y-41944534D01*
X165363222Y-41788009D01*
X165392552Y-41752271D01*
X165475814Y-41650814D01*
X165577271Y-41567552D01*
X165613009Y-41538222D01*
X165769534Y-41454557D01*
X165939373Y-41403037D01*
X166005558Y-41396518D01*
X166071740Y-41390000D01*
X166160260Y-41390000D01*
X166226442Y-41396518D01*
X166226442Y-41396518D01*
G37*
G36*
X140064443Y-40380519D02*
G01*
X140130627Y-40387037D01*
X140300466Y-40438557D01*
X140456991Y-40522222D01*
X140492729Y-40551552D01*
X140594186Y-40634814D01*
X140677448Y-40736271D01*
X140706778Y-40772009D01*
X140790443Y-40928534D01*
X140841963Y-41098373D01*
X140859359Y-41275000D01*
X140841963Y-41451627D01*
X140790443Y-41621466D01*
X140706778Y-41777991D01*
X140677448Y-41813729D01*
X140594186Y-41915186D01*
X140492729Y-41998448D01*
X140456991Y-42027778D01*
X140300466Y-42111443D01*
X140130627Y-42162963D01*
X140064443Y-42169481D01*
X139998260Y-42176000D01*
X139909740Y-42176000D01*
X139843557Y-42169481D01*
X139777373Y-42162963D01*
X139607534Y-42111443D01*
X139451009Y-42027778D01*
X139415271Y-41998448D01*
X139313814Y-41915186D01*
X139230552Y-41813729D01*
X139201222Y-41777991D01*
X139117557Y-41621466D01*
X139066037Y-41451627D01*
X139048641Y-41275000D01*
X139066037Y-41098373D01*
X139117557Y-40928534D01*
X139201222Y-40772009D01*
X139230552Y-40736271D01*
X139313814Y-40634814D01*
X139415271Y-40551552D01*
X139451009Y-40522222D01*
X139607534Y-40438557D01*
X139777373Y-40387037D01*
X139843558Y-40380518D01*
X139909740Y-40374000D01*
X139998260Y-40374000D01*
X140064443Y-40380519D01*
X140064443Y-40380519D01*
G37*
G36*
X162543443Y-40126519D02*
G01*
X162609627Y-40133037D01*
X162779466Y-40184557D01*
X162935991Y-40268222D01*
X162971729Y-40297552D01*
X163073186Y-40380814D01*
X163156448Y-40482271D01*
X163185778Y-40518009D01*
X163269443Y-40674534D01*
X163320963Y-40844373D01*
X163338359Y-41021000D01*
X163320963Y-41197627D01*
X163269443Y-41367466D01*
X163185778Y-41523991D01*
X163156448Y-41559729D01*
X163073186Y-41661186D01*
X162971729Y-41744448D01*
X162935991Y-41773778D01*
X162779466Y-41857443D01*
X162609627Y-41908963D01*
X162546453Y-41915185D01*
X162477260Y-41922000D01*
X162388740Y-41922000D01*
X162319547Y-41915185D01*
X162256373Y-41908963D01*
X162086534Y-41857443D01*
X161930009Y-41773778D01*
X161894271Y-41744448D01*
X161792814Y-41661186D01*
X161709552Y-41559729D01*
X161680222Y-41523991D01*
X161596557Y-41367466D01*
X161545037Y-41197627D01*
X161527641Y-41021000D01*
X161545037Y-40844373D01*
X161596557Y-40674534D01*
X161680222Y-40518009D01*
X161709552Y-40482271D01*
X161792814Y-40380814D01*
X161894271Y-40297552D01*
X161930009Y-40268222D01*
X162086534Y-40184557D01*
X162256373Y-40133037D01*
X162322558Y-40126518D01*
X162388740Y-40120000D01*
X162477260Y-40120000D01*
X162543443Y-40126519D01*
X162543443Y-40126519D01*
G37*
G36*
X156320443Y-40126519D02*
G01*
X156386627Y-40133037D01*
X156556466Y-40184557D01*
X156712991Y-40268222D01*
X156748729Y-40297552D01*
X156850186Y-40380814D01*
X156933448Y-40482271D01*
X156962778Y-40518009D01*
X157046443Y-40674534D01*
X157097963Y-40844373D01*
X157115359Y-41021000D01*
X157097963Y-41197627D01*
X157046443Y-41367466D01*
X156962778Y-41523991D01*
X156933448Y-41559729D01*
X156850186Y-41661186D01*
X156748729Y-41744448D01*
X156712991Y-41773778D01*
X156556466Y-41857443D01*
X156386627Y-41908963D01*
X156323453Y-41915185D01*
X156254260Y-41922000D01*
X156165740Y-41922000D01*
X156096547Y-41915185D01*
X156033373Y-41908963D01*
X155863534Y-41857443D01*
X155707009Y-41773778D01*
X155671271Y-41744448D01*
X155569814Y-41661186D01*
X155486552Y-41559729D01*
X155457222Y-41523991D01*
X155373557Y-41367466D01*
X155322037Y-41197627D01*
X155304641Y-41021000D01*
X155322037Y-40844373D01*
X155373557Y-40674534D01*
X155457222Y-40518009D01*
X155486552Y-40482271D01*
X155569814Y-40380814D01*
X155671271Y-40297552D01*
X155707009Y-40268222D01*
X155863534Y-40184557D01*
X156033373Y-40133037D01*
X156099558Y-40126518D01*
X156165740Y-40120000D01*
X156254260Y-40120000D01*
X156320443Y-40126519D01*
X156320443Y-40126519D01*
G37*
G36*
X160003443Y-40126519D02*
G01*
X160069627Y-40133037D01*
X160239466Y-40184557D01*
X160395991Y-40268222D01*
X160431729Y-40297552D01*
X160533186Y-40380814D01*
X160616448Y-40482271D01*
X160645778Y-40518009D01*
X160729443Y-40674534D01*
X160780963Y-40844373D01*
X160798359Y-41021000D01*
X160780963Y-41197627D01*
X160729443Y-41367466D01*
X160645778Y-41523991D01*
X160616448Y-41559729D01*
X160533186Y-41661186D01*
X160431729Y-41744448D01*
X160395991Y-41773778D01*
X160239466Y-41857443D01*
X160069627Y-41908963D01*
X160006453Y-41915185D01*
X159937260Y-41922000D01*
X159848740Y-41922000D01*
X159779547Y-41915185D01*
X159716373Y-41908963D01*
X159546534Y-41857443D01*
X159390009Y-41773778D01*
X159354271Y-41744448D01*
X159252814Y-41661186D01*
X159169552Y-41559729D01*
X159140222Y-41523991D01*
X159056557Y-41367466D01*
X159005037Y-41197627D01*
X158987641Y-41021000D01*
X159005037Y-40844373D01*
X159056557Y-40674534D01*
X159140222Y-40518009D01*
X159169552Y-40482271D01*
X159252814Y-40380814D01*
X159354271Y-40297552D01*
X159390009Y-40268222D01*
X159546534Y-40184557D01*
X159716373Y-40133037D01*
X159782558Y-40126518D01*
X159848740Y-40120000D01*
X159937260Y-40120000D01*
X160003443Y-40126519D01*
X160003443Y-40126519D01*
G37*
G36*
X166226443Y-38856519D02*
G01*
X166292627Y-38863037D01*
X166462466Y-38914557D01*
X166618991Y-38998222D01*
X166654729Y-39027552D01*
X166756186Y-39110814D01*
X166839448Y-39212271D01*
X166868778Y-39248009D01*
X166952443Y-39404534D01*
X167003963Y-39574373D01*
X167021359Y-39751000D01*
X167003963Y-39927627D01*
X166952443Y-40097466D01*
X166868778Y-40253991D01*
X166839448Y-40289729D01*
X166756186Y-40391186D01*
X166654729Y-40474448D01*
X166618991Y-40503778D01*
X166462466Y-40587443D01*
X166292627Y-40638963D01*
X166226443Y-40645481D01*
X166160260Y-40652000D01*
X166071740Y-40652000D01*
X166005557Y-40645481D01*
X165939373Y-40638963D01*
X165769534Y-40587443D01*
X165613009Y-40503778D01*
X165577271Y-40474448D01*
X165475814Y-40391186D01*
X165392552Y-40289729D01*
X165363222Y-40253991D01*
X165279557Y-40097466D01*
X165228037Y-39927627D01*
X165210641Y-39751000D01*
X165228037Y-39574373D01*
X165279557Y-39404534D01*
X165363222Y-39248009D01*
X165392552Y-39212271D01*
X165475814Y-39110814D01*
X165577271Y-39027552D01*
X165613009Y-38998222D01*
X165769534Y-38914557D01*
X165939373Y-38863037D01*
X166005557Y-38856519D01*
X166071740Y-38850000D01*
X166160260Y-38850000D01*
X166226443Y-38856519D01*
X166226443Y-38856519D01*
G37*
G36*
X168766443Y-38856519D02*
G01*
X168832627Y-38863037D01*
X169002466Y-38914557D01*
X169158991Y-38998222D01*
X169194729Y-39027552D01*
X169296186Y-39110814D01*
X169379448Y-39212271D01*
X169408778Y-39248009D01*
X169492443Y-39404534D01*
X169543963Y-39574373D01*
X169561359Y-39751000D01*
X169543963Y-39927627D01*
X169492443Y-40097466D01*
X169408778Y-40253991D01*
X169379448Y-40289729D01*
X169296186Y-40391186D01*
X169194729Y-40474448D01*
X169158991Y-40503778D01*
X169002466Y-40587443D01*
X168832627Y-40638963D01*
X168766443Y-40645481D01*
X168700260Y-40652000D01*
X168611740Y-40652000D01*
X168545557Y-40645481D01*
X168479373Y-40638963D01*
X168309534Y-40587443D01*
X168153009Y-40503778D01*
X168117271Y-40474448D01*
X168015814Y-40391186D01*
X167932552Y-40289729D01*
X167903222Y-40253991D01*
X167819557Y-40097466D01*
X167768037Y-39927627D01*
X167750641Y-39751000D01*
X167768037Y-39574373D01*
X167819557Y-39404534D01*
X167903222Y-39248009D01*
X167932552Y-39212271D01*
X168015814Y-39110814D01*
X168117271Y-39027552D01*
X168153009Y-38998222D01*
X168309534Y-38914557D01*
X168479373Y-38863037D01*
X168545557Y-38856519D01*
X168611740Y-38850000D01*
X168700260Y-38850000D01*
X168766443Y-38856519D01*
X168766443Y-38856519D01*
G37*
G36*
X140855000Y-39636000D02*
G01*
X139053000Y-39636000D01*
X139053000Y-37834000D01*
X140855000Y-37834000D01*
X140855000Y-39636000D01*
X140855000Y-39636000D01*
G37*
G36*
X157111000Y-39382000D02*
G01*
X155309000Y-39382000D01*
X155309000Y-37580000D01*
X157111000Y-37580000D01*
X157111000Y-39382000D01*
X157111000Y-39382000D01*
G37*
G36*
X160794000Y-39382000D02*
G01*
X158992000Y-39382000D01*
X158992000Y-37580000D01*
X160794000Y-37580000D01*
X160794000Y-39382000D01*
X160794000Y-39382000D01*
G37*
G36*
X162543442Y-37586518D02*
G01*
X162609627Y-37593037D01*
X162779466Y-37644557D01*
X162935991Y-37728222D01*
X162971729Y-37757552D01*
X163073186Y-37840814D01*
X163156448Y-37942271D01*
X163185778Y-37978009D01*
X163269443Y-38134534D01*
X163320963Y-38304373D01*
X163338359Y-38481000D01*
X163320963Y-38657627D01*
X163269443Y-38827466D01*
X163185778Y-38983991D01*
X163156448Y-39019729D01*
X163073186Y-39121186D01*
X162971729Y-39204448D01*
X162935991Y-39233778D01*
X162779466Y-39317443D01*
X162609627Y-39368963D01*
X162543442Y-39375482D01*
X162477260Y-39382000D01*
X162388740Y-39382000D01*
X162322557Y-39375481D01*
X162256373Y-39368963D01*
X162086534Y-39317443D01*
X161930009Y-39233778D01*
X161894271Y-39204448D01*
X161792814Y-39121186D01*
X161709552Y-39019729D01*
X161680222Y-38983991D01*
X161596557Y-38827466D01*
X161545037Y-38657627D01*
X161527641Y-38481000D01*
X161545037Y-38304373D01*
X161596557Y-38134534D01*
X161680222Y-37978009D01*
X161709552Y-37942271D01*
X161792814Y-37840814D01*
X161894271Y-37757552D01*
X161930009Y-37728222D01*
X162086534Y-37644557D01*
X162256373Y-37593037D01*
X162322558Y-37586518D01*
X162388740Y-37580000D01*
X162477260Y-37580000D01*
X162543442Y-37586518D01*
X162543442Y-37586518D01*
G37*
G36*
X168766442Y-36316518D02*
G01*
X168832627Y-36323037D01*
X169002466Y-36374557D01*
X169158991Y-36458222D01*
X169194729Y-36487552D01*
X169296186Y-36570814D01*
X169379448Y-36672271D01*
X169408778Y-36708009D01*
X169492443Y-36864534D01*
X169543963Y-37034373D01*
X169561359Y-37211000D01*
X169543963Y-37387627D01*
X169492443Y-37557466D01*
X169408778Y-37713991D01*
X169379448Y-37749729D01*
X169296186Y-37851186D01*
X169194729Y-37934448D01*
X169158991Y-37963778D01*
X169002466Y-38047443D01*
X168832627Y-38098963D01*
X168766442Y-38105482D01*
X168700260Y-38112000D01*
X168611740Y-38112000D01*
X168545558Y-38105482D01*
X168479373Y-38098963D01*
X168309534Y-38047443D01*
X168153009Y-37963778D01*
X168117271Y-37934448D01*
X168015814Y-37851186D01*
X167932552Y-37749729D01*
X167903222Y-37713991D01*
X167819557Y-37557466D01*
X167768037Y-37387627D01*
X167750641Y-37211000D01*
X167768037Y-37034373D01*
X167819557Y-36864534D01*
X167903222Y-36708009D01*
X167932552Y-36672271D01*
X168015814Y-36570814D01*
X168117271Y-36487552D01*
X168153009Y-36458222D01*
X168309534Y-36374557D01*
X168479373Y-36323037D01*
X168545557Y-36316519D01*
X168611740Y-36310000D01*
X168700260Y-36310000D01*
X168766442Y-36316518D01*
X168766442Y-36316518D01*
G37*
G36*
X167017000Y-38112000D02*
G01*
X165215000Y-38112000D01*
X165215000Y-36310000D01*
X167017000Y-36310000D01*
X167017000Y-38112000D01*
X167017000Y-38112000D01*
G37*
M02*
