G04 #@! TF.GenerationSoftware,KiCad,Pcbnew,(5.1.0)-1*
G04 #@! TF.CreationDate,2020-05-09T23:37:50+02:00*
G04 #@! TF.ProjectId,Token,546f6b65-6e2e-46b6-9963-61645f706362,rev?*
G04 #@! TF.SameCoordinates,Original*
G04 #@! TF.FileFunction,Legend,Bot*
G04 #@! TF.FilePolarity,Positive*
%FSLAX46Y46*%
G04 Gerber Fmt 4.6, Leading zero omitted, Abs format (unit mm)*
G04 Created by KiCad (PCBNEW (5.1.0)-1) date 2020-05-09 23:37:50*
%MOMM*%
%LPD*%
G04 APERTURE LIST*
%ADD10C,0.050000*%
%ADD11C,0.150000*%
%ADD12C,0.120000*%
G04 APERTURE END LIST*
D10*
X138049000Y-49149000D02*
X138049000Y-48133000D01*
X170434000Y-49149000D02*
X138049000Y-49149000D01*
X138049000Y-35433000D02*
X138049000Y-48133000D01*
X170434000Y-35433000D02*
X138049000Y-35433000D01*
X170434000Y-49149000D02*
X170434000Y-35433000D01*
D11*
X169209404Y-48315571D02*
X168876071Y-48315571D01*
X168733214Y-48839380D02*
X169209404Y-48839380D01*
X169209404Y-47839380D01*
X168733214Y-47839380D01*
X168399880Y-48839380D02*
X167876071Y-48172714D01*
X168399880Y-48172714D02*
X167876071Y-48839380D01*
X167495119Y-48172714D02*
X167495119Y-49172714D01*
X167495119Y-48220333D02*
X167399880Y-48172714D01*
X167209404Y-48172714D01*
X167114166Y-48220333D01*
X167066547Y-48267952D01*
X167018928Y-48363190D01*
X167018928Y-48648904D01*
X167066547Y-48744142D01*
X167114166Y-48791761D01*
X167209404Y-48839380D01*
X167399880Y-48839380D01*
X167495119Y-48791761D01*
X166209404Y-48791761D02*
X166304642Y-48839380D01*
X166495119Y-48839380D01*
X166590357Y-48791761D01*
X166637976Y-48696523D01*
X166637976Y-48315571D01*
X166590357Y-48220333D01*
X166495119Y-48172714D01*
X166304642Y-48172714D01*
X166209404Y-48220333D01*
X166161785Y-48315571D01*
X166161785Y-48410809D01*
X166637976Y-48506047D01*
X165733214Y-48839380D02*
X165733214Y-48172714D01*
X165733214Y-48363190D02*
X165685595Y-48267952D01*
X165637976Y-48220333D01*
X165542738Y-48172714D01*
X165447500Y-48172714D01*
X165257023Y-48172714D02*
X164876071Y-48172714D01*
X165114166Y-47839380D02*
X165114166Y-48696523D01*
X165066547Y-48791761D01*
X164971309Y-48839380D01*
X164876071Y-48839380D01*
X164542738Y-48839380D02*
X164542738Y-48172714D01*
X164542738Y-47839380D02*
X164590357Y-47887000D01*
X164542738Y-47934619D01*
X164495119Y-47887000D01*
X164542738Y-47839380D01*
X164542738Y-47934619D01*
X164114166Y-48791761D02*
X164018928Y-48839380D01*
X163828452Y-48839380D01*
X163733214Y-48791761D01*
X163685595Y-48696523D01*
X163685595Y-48648904D01*
X163733214Y-48553666D01*
X163828452Y-48506047D01*
X163971309Y-48506047D01*
X164066547Y-48458428D01*
X164114166Y-48363190D01*
X164114166Y-48315571D01*
X164066547Y-48220333D01*
X163971309Y-48172714D01*
X163828452Y-48172714D01*
X163733214Y-48220333D01*
X162876071Y-48791761D02*
X162971309Y-48839380D01*
X163161785Y-48839380D01*
X163257023Y-48791761D01*
X163304642Y-48696523D01*
X163304642Y-48315571D01*
X163257023Y-48220333D01*
X163161785Y-48172714D01*
X162971309Y-48172714D01*
X162876071Y-48220333D01*
X162828452Y-48315571D01*
X162828452Y-48410809D01*
X163304642Y-48506047D01*
X161066547Y-48744142D02*
X161114166Y-48791761D01*
X161257023Y-48839380D01*
X161352261Y-48839380D01*
X161495119Y-48791761D01*
X161590357Y-48696523D01*
X161637976Y-48601285D01*
X161685595Y-48410809D01*
X161685595Y-48267952D01*
X161637976Y-48077476D01*
X161590357Y-47982238D01*
X161495119Y-47887000D01*
X161352261Y-47839380D01*
X161257023Y-47839380D01*
X161114166Y-47887000D01*
X161066547Y-47934619D01*
X160257023Y-48791761D02*
X160352261Y-48839380D01*
X160542738Y-48839380D01*
X160637976Y-48791761D01*
X160685595Y-48696523D01*
X160685595Y-48315571D01*
X160637976Y-48220333D01*
X160542738Y-48172714D01*
X160352261Y-48172714D01*
X160257023Y-48220333D01*
X160209404Y-48315571D01*
X160209404Y-48410809D01*
X160685595Y-48506047D01*
X159780833Y-48172714D02*
X159780833Y-48839380D01*
X159780833Y-48267952D02*
X159733214Y-48220333D01*
X159637976Y-48172714D01*
X159495119Y-48172714D01*
X159399880Y-48220333D01*
X159352261Y-48315571D01*
X159352261Y-48839380D01*
X159018928Y-48172714D02*
X158637976Y-48172714D01*
X158876071Y-47839380D02*
X158876071Y-48696523D01*
X158828452Y-48791761D01*
X158733214Y-48839380D01*
X158637976Y-48839380D01*
X158304642Y-48839380D02*
X158304642Y-48172714D01*
X158304642Y-48363190D02*
X158257023Y-48267952D01*
X158209404Y-48220333D01*
X158114166Y-48172714D01*
X158018928Y-48172714D01*
X157257023Y-48172714D02*
X157257023Y-48839380D01*
X157685595Y-48172714D02*
X157685595Y-48696523D01*
X157637976Y-48791761D01*
X157542738Y-48839380D01*
X157399880Y-48839380D01*
X157304642Y-48791761D01*
X157257023Y-48744142D01*
X156780833Y-48839380D02*
X156780833Y-48172714D01*
X156780833Y-48267952D02*
X156733214Y-48220333D01*
X156637976Y-48172714D01*
X156495119Y-48172714D01*
X156399880Y-48220333D01*
X156352261Y-48315571D01*
X156352261Y-48839380D01*
X156352261Y-48315571D02*
X156304642Y-48220333D01*
X156209404Y-48172714D01*
X156066547Y-48172714D01*
X155971309Y-48220333D01*
X155923690Y-48315571D01*
X155923690Y-48839380D01*
X154828452Y-47839380D02*
X154257023Y-47839380D01*
X154542738Y-48839380D02*
X154542738Y-47839380D01*
X153542738Y-48791761D02*
X153637976Y-48839380D01*
X153828452Y-48839380D01*
X153923690Y-48791761D01*
X153971309Y-48696523D01*
X153971309Y-48315571D01*
X153923690Y-48220333D01*
X153828452Y-48172714D01*
X153637976Y-48172714D01*
X153542738Y-48220333D01*
X153495119Y-48315571D01*
X153495119Y-48410809D01*
X153971309Y-48506047D01*
X152637976Y-48791761D02*
X152733214Y-48839380D01*
X152923690Y-48839380D01*
X153018928Y-48791761D01*
X153066547Y-48744142D01*
X153114166Y-48648904D01*
X153114166Y-48363190D01*
X153066547Y-48267952D01*
X153018928Y-48220333D01*
X152923690Y-48172714D01*
X152733214Y-48172714D01*
X152637976Y-48220333D01*
X152209404Y-48839380D02*
X152209404Y-47839380D01*
X151780833Y-48839380D02*
X151780833Y-48315571D01*
X151828452Y-48220333D01*
X151923690Y-48172714D01*
X152066547Y-48172714D01*
X152161785Y-48220333D01*
X152209404Y-48267952D01*
X151304642Y-48172714D02*
X151304642Y-48839380D01*
X151304642Y-48267952D02*
X151257023Y-48220333D01*
X151161785Y-48172714D01*
X151018928Y-48172714D01*
X150923690Y-48220333D01*
X150876071Y-48315571D01*
X150876071Y-48839380D01*
X150399880Y-48839380D02*
X150399880Y-48172714D01*
X150399880Y-47839380D02*
X150447500Y-47887000D01*
X150399880Y-47934619D01*
X150352261Y-47887000D01*
X150399880Y-47839380D01*
X150399880Y-47934619D01*
X149971309Y-48791761D02*
X149876071Y-48839380D01*
X149685595Y-48839380D01*
X149590357Y-48791761D01*
X149542738Y-48696523D01*
X149542738Y-48648904D01*
X149590357Y-48553666D01*
X149685595Y-48506047D01*
X149828452Y-48506047D01*
X149923690Y-48458428D01*
X149971309Y-48363190D01*
X149971309Y-48315571D01*
X149923690Y-48220333D01*
X149828452Y-48172714D01*
X149685595Y-48172714D01*
X149590357Y-48220333D01*
X148685595Y-48791761D02*
X148780833Y-48839380D01*
X148971309Y-48839380D01*
X149066547Y-48791761D01*
X149114166Y-48744142D01*
X149161785Y-48648904D01*
X149161785Y-48363190D01*
X149114166Y-48267952D01*
X149066547Y-48220333D01*
X148971309Y-48172714D01*
X148780833Y-48172714D01*
X148685595Y-48220333D01*
X148257023Y-48839380D02*
X148257023Y-47839380D01*
X147828452Y-48839380D02*
X147828452Y-48315571D01*
X147876071Y-48220333D01*
X147971309Y-48172714D01*
X148114166Y-48172714D01*
X148209404Y-48220333D01*
X148257023Y-48267952D01*
X146971309Y-48791761D02*
X147066547Y-48839380D01*
X147257023Y-48839380D01*
X147352261Y-48791761D01*
X147399880Y-48696523D01*
X147399880Y-48315571D01*
X147352261Y-48220333D01*
X147257023Y-48172714D01*
X147066547Y-48172714D01*
X146971309Y-48220333D01*
X146923690Y-48315571D01*
X146923690Y-48410809D01*
X147399880Y-48506047D01*
X145733214Y-48839380D02*
X145733214Y-47839380D01*
X145257023Y-48172714D02*
X145257023Y-48839380D01*
X145257023Y-48267952D02*
X145209404Y-48220333D01*
X145114166Y-48172714D01*
X144971309Y-48172714D01*
X144876071Y-48220333D01*
X144828452Y-48315571D01*
X144828452Y-48839380D01*
X144352261Y-48172714D02*
X144352261Y-48839380D01*
X144352261Y-48267952D02*
X144304642Y-48220333D01*
X144209404Y-48172714D01*
X144066547Y-48172714D01*
X143971309Y-48220333D01*
X143923690Y-48315571D01*
X143923690Y-48839380D01*
X143304642Y-48839380D02*
X143399880Y-48791761D01*
X143447500Y-48744142D01*
X143495119Y-48648904D01*
X143495119Y-48363190D01*
X143447500Y-48267952D01*
X143399880Y-48220333D01*
X143304642Y-48172714D01*
X143161785Y-48172714D01*
X143066547Y-48220333D01*
X143018928Y-48267952D01*
X142971309Y-48363190D01*
X142971309Y-48648904D01*
X143018928Y-48744142D01*
X143066547Y-48791761D01*
X143161785Y-48839380D01*
X143304642Y-48839380D01*
X142637976Y-48172714D02*
X142399880Y-48839380D01*
X142161785Y-48172714D01*
X141352261Y-48839380D02*
X141352261Y-48315571D01*
X141399880Y-48220333D01*
X141495119Y-48172714D01*
X141685595Y-48172714D01*
X141780833Y-48220333D01*
X141352261Y-48791761D02*
X141447500Y-48839380D01*
X141685595Y-48839380D01*
X141780833Y-48791761D01*
X141828452Y-48696523D01*
X141828452Y-48601285D01*
X141780833Y-48506047D01*
X141685595Y-48458428D01*
X141447500Y-48458428D01*
X141352261Y-48410809D01*
X141018928Y-48172714D02*
X140637976Y-48172714D01*
X140876071Y-47839380D02*
X140876071Y-48696523D01*
X140828452Y-48791761D01*
X140733214Y-48839380D01*
X140637976Y-48839380D01*
X140304642Y-48839380D02*
X140304642Y-48172714D01*
X140304642Y-47839380D02*
X140352261Y-47887000D01*
X140304642Y-47934619D01*
X140257023Y-47887000D01*
X140304642Y-47839380D01*
X140304642Y-47934619D01*
X139447500Y-48791761D02*
X139542738Y-48839380D01*
X139733214Y-48839380D01*
X139828452Y-48791761D01*
X139876071Y-48696523D01*
X139876071Y-48315571D01*
X139828452Y-48220333D01*
X139733214Y-48172714D01*
X139542738Y-48172714D01*
X139447500Y-48220333D01*
X139399880Y-48315571D01*
X139399880Y-48410809D01*
X139876071Y-48506047D01*
X154525023Y-39552619D02*
X154477404Y-39505000D01*
X154382166Y-39457380D01*
X154144071Y-39457380D01*
X154048833Y-39505000D01*
X154001214Y-39552619D01*
X153953595Y-39647857D01*
X153953595Y-39743095D01*
X154001214Y-39885952D01*
X154572642Y-40457380D01*
X153953595Y-40457380D01*
X153334547Y-39457380D02*
X153239309Y-39457380D01*
X153144071Y-39505000D01*
X153096452Y-39552619D01*
X153048833Y-39647857D01*
X153001214Y-39838333D01*
X153001214Y-40076428D01*
X153048833Y-40266904D01*
X153096452Y-40362142D01*
X153144071Y-40409761D01*
X153239309Y-40457380D01*
X153334547Y-40457380D01*
X153429785Y-40409761D01*
X153477404Y-40362142D01*
X153525023Y-40266904D01*
X153572642Y-40076428D01*
X153572642Y-39838333D01*
X153525023Y-39647857D01*
X153477404Y-39552619D01*
X153429785Y-39505000D01*
X153334547Y-39457380D01*
X152620261Y-39552619D02*
X152572642Y-39505000D01*
X152477404Y-39457380D01*
X152239309Y-39457380D01*
X152144071Y-39505000D01*
X152096452Y-39552619D01*
X152048833Y-39647857D01*
X152048833Y-39743095D01*
X152096452Y-39885952D01*
X152667880Y-40457380D01*
X152048833Y-40457380D01*
X151429785Y-39457380D02*
X151334547Y-39457380D01*
X151239309Y-39505000D01*
X151191690Y-39552619D01*
X151144071Y-39647857D01*
X151096452Y-39838333D01*
X151096452Y-40076428D01*
X151144071Y-40266904D01*
X151191690Y-40362142D01*
X151239309Y-40409761D01*
X151334547Y-40457380D01*
X151429785Y-40457380D01*
X151525023Y-40409761D01*
X151572642Y-40362142D01*
X151620261Y-40266904D01*
X151667880Y-40076428D01*
X151667880Y-39838333D01*
X151620261Y-39647857D01*
X151572642Y-39552619D01*
X151525023Y-39505000D01*
X151429785Y-39457380D01*
X149905976Y-40076428D02*
X149144071Y-40076428D01*
X147953595Y-40171666D02*
X147477404Y-40171666D01*
X148048833Y-40457380D02*
X147715500Y-39457380D01*
X147382166Y-40457380D01*
X147048833Y-39933571D02*
X146715500Y-39933571D01*
X146572642Y-40457380D02*
X147048833Y-40457380D01*
X147048833Y-39457380D01*
X146572642Y-39457380D01*
X145334547Y-40457380D02*
X145382166Y-40457380D01*
X145477404Y-40409761D01*
X145620261Y-40266904D01*
X145858357Y-39981190D01*
X145953595Y-39838333D01*
X146001214Y-39695476D01*
X146001214Y-39600238D01*
X145953595Y-39505000D01*
X145858357Y-39457380D01*
X145810738Y-39457380D01*
X145715500Y-39505000D01*
X145667880Y-39600238D01*
X145667880Y-39647857D01*
X145715500Y-39743095D01*
X145763119Y-39790714D01*
X146048833Y-39981190D01*
X146096452Y-40028809D01*
X146144071Y-40124047D01*
X146144071Y-40266904D01*
X146096452Y-40362142D01*
X146048833Y-40409761D01*
X145953595Y-40457380D01*
X145810738Y-40457380D01*
X145715500Y-40409761D01*
X145667880Y-40362142D01*
X145525023Y-40171666D01*
X145477404Y-40028809D01*
X145477404Y-39933571D01*
X144905976Y-40457380D02*
X144905976Y-39457380D01*
X143810738Y-39457380D02*
X143239309Y-39457380D01*
X143525023Y-40457380D02*
X143525023Y-39457380D01*
X142905976Y-40457380D02*
X142905976Y-39457380D01*
X154652023Y-38520666D02*
X154175833Y-38520666D01*
X154747261Y-38806380D02*
X154413928Y-37806380D01*
X154080595Y-38806380D01*
X153842500Y-38139714D02*
X153604404Y-38806380D01*
X153366309Y-38139714D01*
X152556785Y-38806380D02*
X152556785Y-38282571D01*
X152604404Y-38187333D01*
X152699642Y-38139714D01*
X152890119Y-38139714D01*
X152985357Y-38187333D01*
X152556785Y-38758761D02*
X152652023Y-38806380D01*
X152890119Y-38806380D01*
X152985357Y-38758761D01*
X153032976Y-38663523D01*
X153032976Y-38568285D01*
X152985357Y-38473047D01*
X152890119Y-38425428D01*
X152652023Y-38425428D01*
X152556785Y-38377809D01*
X152080595Y-38139714D02*
X152080595Y-38806380D01*
X152080595Y-38234952D02*
X152032976Y-38187333D01*
X151937738Y-38139714D01*
X151794880Y-38139714D01*
X151699642Y-38187333D01*
X151652023Y-38282571D01*
X151652023Y-38806380D01*
X151223452Y-38758761D02*
X151128214Y-38806380D01*
X150937738Y-38806380D01*
X150842500Y-38758761D01*
X150794880Y-38663523D01*
X150794880Y-38615904D01*
X150842500Y-38520666D01*
X150937738Y-38473047D01*
X151080595Y-38473047D01*
X151175833Y-38425428D01*
X151223452Y-38330190D01*
X151223452Y-38282571D01*
X151175833Y-38187333D01*
X151080595Y-38139714D01*
X150937738Y-38139714D01*
X150842500Y-38187333D01*
X149604404Y-38806380D02*
X149604404Y-37806380D01*
X149604404Y-38282571D02*
X149032976Y-38282571D01*
X149032976Y-38806380D02*
X149032976Y-37806380D01*
X148413928Y-38806380D02*
X148509166Y-38758761D01*
X148556785Y-38711142D01*
X148604404Y-38615904D01*
X148604404Y-38330190D01*
X148556785Y-38234952D01*
X148509166Y-38187333D01*
X148413928Y-38139714D01*
X148271071Y-38139714D01*
X148175833Y-38187333D01*
X148128214Y-38234952D01*
X148080595Y-38330190D01*
X148080595Y-38615904D01*
X148128214Y-38711142D01*
X148175833Y-38758761D01*
X148271071Y-38806380D01*
X148413928Y-38806380D01*
X147223452Y-38139714D02*
X147223452Y-38949238D01*
X147271071Y-39044476D01*
X147318690Y-39092095D01*
X147413928Y-39139714D01*
X147556785Y-39139714D01*
X147652023Y-39092095D01*
X147223452Y-38758761D02*
X147318690Y-38806380D01*
X147509166Y-38806380D01*
X147604404Y-38758761D01*
X147652023Y-38711142D01*
X147699642Y-38615904D01*
X147699642Y-38330190D01*
X147652023Y-38234952D01*
X147604404Y-38187333D01*
X147509166Y-38139714D01*
X147318690Y-38139714D01*
X147223452Y-38187333D01*
X146366309Y-38758761D02*
X146461547Y-38806380D01*
X146652023Y-38806380D01*
X146747261Y-38758761D01*
X146794880Y-38663523D01*
X146794880Y-38282571D01*
X146747261Y-38187333D01*
X146652023Y-38139714D01*
X146461547Y-38139714D01*
X146366309Y-38187333D01*
X146318690Y-38282571D01*
X146318690Y-38377809D01*
X146794880Y-38473047D01*
X145937738Y-38758761D02*
X145842500Y-38806380D01*
X145652023Y-38806380D01*
X145556785Y-38758761D01*
X145509166Y-38663523D01*
X145509166Y-38615904D01*
X145556785Y-38520666D01*
X145652023Y-38473047D01*
X145794880Y-38473047D01*
X145890119Y-38425428D01*
X145937738Y-38330190D01*
X145937738Y-38282571D01*
X145890119Y-38187333D01*
X145794880Y-38139714D01*
X145652023Y-38139714D01*
X145556785Y-38187333D01*
X144652023Y-38758761D02*
X144747261Y-38806380D01*
X144937738Y-38806380D01*
X145032976Y-38758761D01*
X145080595Y-38711142D01*
X145128214Y-38615904D01*
X145128214Y-38330190D01*
X145080595Y-38234952D01*
X145032976Y-38187333D01*
X144937738Y-38139714D01*
X144747261Y-38139714D01*
X144652023Y-38187333D01*
X144223452Y-38806380D02*
X144223452Y-37806380D01*
X143794880Y-38806380D02*
X143794880Y-38282571D01*
X143842500Y-38187333D01*
X143937738Y-38139714D01*
X144080595Y-38139714D01*
X144175833Y-38187333D01*
X144223452Y-38234952D01*
X143175833Y-38806380D02*
X143271071Y-38758761D01*
X143318690Y-38711142D01*
X143366309Y-38615904D01*
X143366309Y-38330190D01*
X143318690Y-38234952D01*
X143271071Y-38187333D01*
X143175833Y-38139714D01*
X143032976Y-38139714D01*
X142937738Y-38187333D01*
X142890119Y-38234952D01*
X142842500Y-38330190D01*
X142842500Y-38615904D01*
X142890119Y-38711142D01*
X142937738Y-38758761D01*
X143032976Y-38806380D01*
X143175833Y-38806380D01*
X142271071Y-38806380D02*
X142366309Y-38758761D01*
X142413928Y-38711142D01*
X142461547Y-38615904D01*
X142461547Y-38330190D01*
X142413928Y-38234952D01*
X142366309Y-38187333D01*
X142271071Y-38139714D01*
X142128214Y-38139714D01*
X142032976Y-38187333D01*
X141985357Y-38234952D01*
X141937738Y-38330190D01*
X141937738Y-38615904D01*
X141985357Y-38711142D01*
X142032976Y-38758761D01*
X142128214Y-38806380D01*
X142271071Y-38806380D01*
X141366309Y-38806380D02*
X141461547Y-38758761D01*
X141509166Y-38663523D01*
X141509166Y-37806380D01*
D12*
G04 #@! TO.C,J4*
X159893000Y-37151000D02*
X158563000Y-37151000D01*
X158563000Y-37151000D02*
X158563000Y-38481000D01*
X161163000Y-37151000D02*
X161163000Y-39751000D01*
X161163000Y-39751000D02*
X158563000Y-39751000D01*
X158563000Y-39751000D02*
X158563000Y-47431000D01*
X163763000Y-47431000D02*
X158563000Y-47431000D01*
X163763000Y-37151000D02*
X163763000Y-47431000D01*
X163763000Y-37151000D02*
X161163000Y-37151000D01*
G04 #@! TD*
M02*
