M48
; DRILL file {KiCad (5.1.0)-1} date 9-5-2020 23:31:05
; FORMAT={-:-/ absolute / inch / decimal}
; #@! TF.CreationDate,2020-05-09T23:31:05+02:00
; #@! TF.GenerationSoftware,Kicad,Pcbnew,(5.1.0)-1
FMAT,2
INCH
T1C0.0157
T2C0.0394
%
G90
G05
T1
X5.575Y-1.835
X5.645Y-1.55
X5.67Y-1.655
X5.705Y-1.6835
X5.8Y-1.86
X5.81Y-1.495
X5.985Y-1.6
X5.985Y-1.705
X6.015Y-1.8827
X6.07Y-1.785
T2
X6.15Y-1.515
X6.15Y-1.615
X6.15Y-1.715
X6.15Y-1.815
X6.54Y-1.465
X6.54Y-1.565
X6.54Y-1.665
X6.54Y-1.765
X6.54Y-1.865
X6.64Y-1.465
X6.64Y-1.565
X6.64Y-1.665
X6.64Y-1.765
X6.64Y-1.865
X5.51Y-1.525
X5.51Y-1.625
X5.51Y-1.725
X5.51Y-1.825
X6.295Y-1.515
X6.295Y-1.615
X6.295Y-1.715
X6.295Y-1.815
X6.395Y-1.515
X6.395Y-1.615
X6.395Y-1.715
X6.395Y-1.815
T0
M30
