G04 #@! TF.GenerationSoftware,KiCad,Pcbnew,(5.1.9)-1*
G04 #@! TF.CreationDate,2021-04-09T17:17:31+02:00*
G04 #@! TF.ProjectId,Token,546f6b65-6e2e-46b6-9963-61645f706362,rev?*
G04 #@! TF.SameCoordinates,Original*
G04 #@! TF.FileFunction,Paste,Top*
G04 #@! TF.FilePolarity,Positive*
%FSLAX46Y46*%
G04 Gerber Fmt 4.6, Leading zero omitted, Abs format (unit mm)*
G04 Created by KiCad (PCBNEW (5.1.9)-1) date 2021-04-09 17:17:31*
%MOMM*%
%LPD*%
G01*
G04 APERTURE LIST*
G04 #@! TA.AperFunction,Profile*
%ADD10C,0.050000*%
G04 #@! TD*
G04 APERTURE END LIST*
D10*
X161988500Y-47688500D02*
X158115000Y-47688500D01*
X161988500Y-36512500D02*
X161988500Y-47688500D01*
X158115000Y-36512500D02*
X161988500Y-36512500D01*
X137985500Y-36512500D02*
X138049000Y-36512500D01*
X137985500Y-47688500D02*
X137985500Y-36512500D01*
X158115000Y-47688500D02*
X137985500Y-47688500D01*
X138049000Y-36512500D02*
X158115000Y-36512500D01*
G04 #@! TO.C,C1*
G36*
G01*
X157857000Y-40523000D02*
X157857000Y-41773000D01*
G75*
G02*
X157607000Y-42023000I-250000J0D01*
G01*
X156857000Y-42023000D01*
G75*
G02*
X156607000Y-41773000I0J250000D01*
G01*
X156607000Y-40523000D01*
G75*
G02*
X156857000Y-40273000I250000J0D01*
G01*
X157607000Y-40273000D01*
G75*
G02*
X157857000Y-40523000I0J-250000D01*
G01*
G37*
G36*
G01*
X155057000Y-40523000D02*
X155057000Y-41773000D01*
G75*
G02*
X154807000Y-42023000I-250000J0D01*
G01*
X154057000Y-42023000D01*
G75*
G02*
X153807000Y-41773000I0J250000D01*
G01*
X153807000Y-40523000D01*
G75*
G02*
X154057000Y-40273000I250000J0D01*
G01*
X154807000Y-40273000D01*
G75*
G02*
X155057000Y-40523000I0J-250000D01*
G01*
G37*
G04 #@! TD*
G04 #@! TO.C,C2*
G36*
G01*
X154061000Y-42993500D02*
X155311000Y-42993500D01*
G75*
G02*
X155561000Y-43243500I0J-250000D01*
G01*
X155561000Y-43993500D01*
G75*
G02*
X155311000Y-44243500I-250000J0D01*
G01*
X154061000Y-44243500D01*
G75*
G02*
X153811000Y-43993500I0J250000D01*
G01*
X153811000Y-43243500D01*
G75*
G02*
X154061000Y-42993500I250000J0D01*
G01*
G37*
G36*
G01*
X154061000Y-45793500D02*
X155311000Y-45793500D01*
G75*
G02*
X155561000Y-46043500I0J-250000D01*
G01*
X155561000Y-46793500D01*
G75*
G02*
X155311000Y-47043500I-250000J0D01*
G01*
X154061000Y-47043500D01*
G75*
G02*
X153811000Y-46793500I0J250000D01*
G01*
X153811000Y-46043500D01*
G75*
G02*
X154061000Y-45793500I250000J0D01*
G01*
G37*
G04 #@! TD*
G04 #@! TO.C,D1*
G36*
G01*
X144462000Y-39244500D02*
X144462000Y-37844500D01*
G75*
G02*
X144712000Y-37594500I250000J0D01*
G01*
X145437000Y-37594500D01*
G75*
G02*
X145687000Y-37844500I0J-250000D01*
G01*
X145687000Y-39244500D01*
G75*
G02*
X145437000Y-39494500I-250000J0D01*
G01*
X144712000Y-39494500D01*
G75*
G02*
X144462000Y-39244500I0J250000D01*
G01*
G37*
G36*
G01*
X147787000Y-39244500D02*
X147787000Y-37844500D01*
G75*
G02*
X148037000Y-37594500I250000J0D01*
G01*
X148762000Y-37594500D01*
G75*
G02*
X149012000Y-37844500I0J-250000D01*
G01*
X149012000Y-39244500D01*
G75*
G02*
X148762000Y-39494500I-250000J0D01*
G01*
X148037000Y-39494500D01*
G75*
G02*
X147787000Y-39244500I0J250000D01*
G01*
G37*
G04 #@! TD*
G04 #@! TO.C,R2*
G36*
G01*
X157660500Y-47068500D02*
X156410500Y-47068500D01*
G75*
G02*
X156160500Y-46818500I0J250000D01*
G01*
X156160500Y-46018500D01*
G75*
G02*
X156410500Y-45768500I250000J0D01*
G01*
X157660500Y-45768500D01*
G75*
G02*
X157910500Y-46018500I0J-250000D01*
G01*
X157910500Y-46818500D01*
G75*
G02*
X157660500Y-47068500I-250000J0D01*
G01*
G37*
G36*
G01*
X157660500Y-43968500D02*
X156410500Y-43968500D01*
G75*
G02*
X156160500Y-43718500I0J250000D01*
G01*
X156160500Y-42918500D01*
G75*
G02*
X156410500Y-42668500I250000J0D01*
G01*
X157660500Y-42668500D01*
G75*
G02*
X157910500Y-42918500I0J-250000D01*
G01*
X157910500Y-43718500D01*
G75*
G02*
X157660500Y-43968500I-250000J0D01*
G01*
G37*
G04 #@! TD*
G04 #@! TO.C,U1*
G36*
G01*
X152440500Y-40176000D02*
X152740500Y-40176000D01*
G75*
G02*
X152890500Y-40326000I0J-150000D01*
G01*
X152890500Y-41976000D01*
G75*
G02*
X152740500Y-42126000I-150000J0D01*
G01*
X152440500Y-42126000D01*
G75*
G02*
X152290500Y-41976000I0J150000D01*
G01*
X152290500Y-40326000D01*
G75*
G02*
X152440500Y-40176000I150000J0D01*
G01*
G37*
G36*
G01*
X151170500Y-40176000D02*
X151470500Y-40176000D01*
G75*
G02*
X151620500Y-40326000I0J-150000D01*
G01*
X151620500Y-41976000D01*
G75*
G02*
X151470500Y-42126000I-150000J0D01*
G01*
X151170500Y-42126000D01*
G75*
G02*
X151020500Y-41976000I0J150000D01*
G01*
X151020500Y-40326000D01*
G75*
G02*
X151170500Y-40176000I150000J0D01*
G01*
G37*
G36*
G01*
X149900500Y-40176000D02*
X150200500Y-40176000D01*
G75*
G02*
X150350500Y-40326000I0J-150000D01*
G01*
X150350500Y-41976000D01*
G75*
G02*
X150200500Y-42126000I-150000J0D01*
G01*
X149900500Y-42126000D01*
G75*
G02*
X149750500Y-41976000I0J150000D01*
G01*
X149750500Y-40326000D01*
G75*
G02*
X149900500Y-40176000I150000J0D01*
G01*
G37*
G36*
G01*
X148630500Y-40176000D02*
X148930500Y-40176000D01*
G75*
G02*
X149080500Y-40326000I0J-150000D01*
G01*
X149080500Y-41976000D01*
G75*
G02*
X148930500Y-42126000I-150000J0D01*
G01*
X148630500Y-42126000D01*
G75*
G02*
X148480500Y-41976000I0J150000D01*
G01*
X148480500Y-40326000D01*
G75*
G02*
X148630500Y-40176000I150000J0D01*
G01*
G37*
G36*
G01*
X147360500Y-40176000D02*
X147660500Y-40176000D01*
G75*
G02*
X147810500Y-40326000I0J-150000D01*
G01*
X147810500Y-41976000D01*
G75*
G02*
X147660500Y-42126000I-150000J0D01*
G01*
X147360500Y-42126000D01*
G75*
G02*
X147210500Y-41976000I0J150000D01*
G01*
X147210500Y-40326000D01*
G75*
G02*
X147360500Y-40176000I150000J0D01*
G01*
G37*
G36*
G01*
X146090500Y-40176000D02*
X146390500Y-40176000D01*
G75*
G02*
X146540500Y-40326000I0J-150000D01*
G01*
X146540500Y-41976000D01*
G75*
G02*
X146390500Y-42126000I-150000J0D01*
G01*
X146090500Y-42126000D01*
G75*
G02*
X145940500Y-41976000I0J150000D01*
G01*
X145940500Y-40326000D01*
G75*
G02*
X146090500Y-40176000I150000J0D01*
G01*
G37*
G36*
G01*
X144820500Y-40176000D02*
X145120500Y-40176000D01*
G75*
G02*
X145270500Y-40326000I0J-150000D01*
G01*
X145270500Y-41976000D01*
G75*
G02*
X145120500Y-42126000I-150000J0D01*
G01*
X144820500Y-42126000D01*
G75*
G02*
X144670500Y-41976000I0J150000D01*
G01*
X144670500Y-40326000D01*
G75*
G02*
X144820500Y-40176000I150000J0D01*
G01*
G37*
G36*
G01*
X144820500Y-45126000D02*
X145120500Y-45126000D01*
G75*
G02*
X145270500Y-45276000I0J-150000D01*
G01*
X145270500Y-46926000D01*
G75*
G02*
X145120500Y-47076000I-150000J0D01*
G01*
X144820500Y-47076000D01*
G75*
G02*
X144670500Y-46926000I0J150000D01*
G01*
X144670500Y-45276000D01*
G75*
G02*
X144820500Y-45126000I150000J0D01*
G01*
G37*
G36*
G01*
X146090500Y-45126000D02*
X146390500Y-45126000D01*
G75*
G02*
X146540500Y-45276000I0J-150000D01*
G01*
X146540500Y-46926000D01*
G75*
G02*
X146390500Y-47076000I-150000J0D01*
G01*
X146090500Y-47076000D01*
G75*
G02*
X145940500Y-46926000I0J150000D01*
G01*
X145940500Y-45276000D01*
G75*
G02*
X146090500Y-45126000I150000J0D01*
G01*
G37*
G36*
G01*
X147360500Y-45126000D02*
X147660500Y-45126000D01*
G75*
G02*
X147810500Y-45276000I0J-150000D01*
G01*
X147810500Y-46926000D01*
G75*
G02*
X147660500Y-47076000I-150000J0D01*
G01*
X147360500Y-47076000D01*
G75*
G02*
X147210500Y-46926000I0J150000D01*
G01*
X147210500Y-45276000D01*
G75*
G02*
X147360500Y-45126000I150000J0D01*
G01*
G37*
G36*
G01*
X148630500Y-45126000D02*
X148930500Y-45126000D01*
G75*
G02*
X149080500Y-45276000I0J-150000D01*
G01*
X149080500Y-46926000D01*
G75*
G02*
X148930500Y-47076000I-150000J0D01*
G01*
X148630500Y-47076000D01*
G75*
G02*
X148480500Y-46926000I0J150000D01*
G01*
X148480500Y-45276000D01*
G75*
G02*
X148630500Y-45126000I150000J0D01*
G01*
G37*
G36*
G01*
X149900500Y-45126000D02*
X150200500Y-45126000D01*
G75*
G02*
X150350500Y-45276000I0J-150000D01*
G01*
X150350500Y-46926000D01*
G75*
G02*
X150200500Y-47076000I-150000J0D01*
G01*
X149900500Y-47076000D01*
G75*
G02*
X149750500Y-46926000I0J150000D01*
G01*
X149750500Y-45276000D01*
G75*
G02*
X149900500Y-45126000I150000J0D01*
G01*
G37*
G36*
G01*
X151170500Y-45126000D02*
X151470500Y-45126000D01*
G75*
G02*
X151620500Y-45276000I0J-150000D01*
G01*
X151620500Y-46926000D01*
G75*
G02*
X151470500Y-47076000I-150000J0D01*
G01*
X151170500Y-47076000D01*
G75*
G02*
X151020500Y-46926000I0J150000D01*
G01*
X151020500Y-45276000D01*
G75*
G02*
X151170500Y-45126000I150000J0D01*
G01*
G37*
G36*
G01*
X152440500Y-45126000D02*
X152740500Y-45126000D01*
G75*
G02*
X152890500Y-45276000I0J-150000D01*
G01*
X152890500Y-46926000D01*
G75*
G02*
X152740500Y-47076000I-150000J0D01*
G01*
X152440500Y-47076000D01*
G75*
G02*
X152290500Y-46926000I0J150000D01*
G01*
X152290500Y-45276000D01*
G75*
G02*
X152440500Y-45126000I150000J0D01*
G01*
G37*
G04 #@! TD*
G04 #@! TO.C,R1*
G36*
G01*
X149577500Y-39248501D02*
X149577500Y-38348499D01*
G75*
G02*
X149827499Y-38098500I249999J0D01*
G01*
X150527501Y-38098500D01*
G75*
G02*
X150777500Y-38348499I0J-249999D01*
G01*
X150777500Y-39248501D01*
G75*
G02*
X150527501Y-39498500I-249999J0D01*
G01*
X149827499Y-39498500D01*
G75*
G02*
X149577500Y-39248501I0J249999D01*
G01*
G37*
G36*
G01*
X151577500Y-39248501D02*
X151577500Y-38348499D01*
G75*
G02*
X151827499Y-38098500I249999J0D01*
G01*
X152527501Y-38098500D01*
G75*
G02*
X152777500Y-38348499I0J-249999D01*
G01*
X152777500Y-39248501D01*
G75*
G02*
X152527501Y-39498500I-249999J0D01*
G01*
X151827499Y-39498500D01*
G75*
G02*
X151577500Y-39248501I0J249999D01*
G01*
G37*
G04 #@! TD*
M02*
