G04 #@! TF.GenerationSoftware,KiCad,Pcbnew,(5.1.9)-1*
G04 #@! TF.CreationDate,2021-04-09T17:17:30+02:00*
G04 #@! TF.ProjectId,Token,546f6b65-6e2e-46b6-9963-61645f706362,rev?*
G04 #@! TF.SameCoordinates,Original*
G04 #@! TF.FileFunction,Copper,L1,Top*
G04 #@! TF.FilePolarity,Positive*
%FSLAX46Y46*%
G04 Gerber Fmt 4.6, Leading zero omitted, Abs format (unit mm)*
G04 Created by KiCad (PCBNEW (5.1.9)-1) date 2021-04-09 17:17:30*
%MOMM*%
%LPD*%
G01*
G04 APERTURE LIST*
G04 #@! TA.AperFunction,Profile*
%ADD10C,0.050000*%
G04 #@! TD*
G04 #@! TA.AperFunction,ComponentPad*
%ADD11O,1.700000X1.700000*%
G04 #@! TD*
G04 #@! TA.AperFunction,ComponentPad*
%ADD12R,1.700000X1.700000*%
G04 #@! TD*
G04 #@! TA.AperFunction,ViaPad*
%ADD13C,0.800000*%
G04 #@! TD*
G04 #@! TA.AperFunction,Conductor*
%ADD14C,0.250000*%
G04 #@! TD*
G04 #@! TA.AperFunction,Conductor*
%ADD15C,0.254000*%
G04 #@! TD*
G04 #@! TA.AperFunction,Conductor*
%ADD16C,0.100000*%
G04 #@! TD*
G04 APERTURE END LIST*
D10*
X161988500Y-47688500D02*
X158115000Y-47688500D01*
X161988500Y-36512500D02*
X161988500Y-47688500D01*
X158115000Y-36512500D02*
X161988500Y-36512500D01*
X137985500Y-36512500D02*
X138049000Y-36512500D01*
X137985500Y-47688500D02*
X137985500Y-36512500D01*
X158115000Y-47688500D02*
X137985500Y-47688500D01*
X138049000Y-36512500D02*
X158115000Y-36512500D01*
G04 #@! TO.P,C1,1*
G04 #@! TO.N,VCC*
G04 #@! TA.AperFunction,SMDPad,CuDef*
G36*
G01*
X157857000Y-40523000D02*
X157857000Y-41773000D01*
G75*
G02*
X157607000Y-42023000I-250000J0D01*
G01*
X156857000Y-42023000D01*
G75*
G02*
X156607000Y-41773000I0J250000D01*
G01*
X156607000Y-40523000D01*
G75*
G02*
X156857000Y-40273000I250000J0D01*
G01*
X157607000Y-40273000D01*
G75*
G02*
X157857000Y-40523000I0J-250000D01*
G01*
G37*
G04 #@! TD.AperFunction*
G04 #@! TO.P,C1,2*
G04 #@! TO.N,GND*
G04 #@! TA.AperFunction,SMDPad,CuDef*
G36*
G01*
X155057000Y-40523000D02*
X155057000Y-41773000D01*
G75*
G02*
X154807000Y-42023000I-250000J0D01*
G01*
X154057000Y-42023000D01*
G75*
G02*
X153807000Y-41773000I0J250000D01*
G01*
X153807000Y-40523000D01*
G75*
G02*
X154057000Y-40273000I250000J0D01*
G01*
X154807000Y-40273000D01*
G75*
G02*
X155057000Y-40523000I0J-250000D01*
G01*
G37*
G04 #@! TD.AperFunction*
G04 #@! TD*
G04 #@! TO.P,C2,1*
G04 #@! TO.N,VCC*
G04 #@! TA.AperFunction,SMDPad,CuDef*
G36*
G01*
X154061000Y-42993500D02*
X155311000Y-42993500D01*
G75*
G02*
X155561000Y-43243500I0J-250000D01*
G01*
X155561000Y-43993500D01*
G75*
G02*
X155311000Y-44243500I-250000J0D01*
G01*
X154061000Y-44243500D01*
G75*
G02*
X153811000Y-43993500I0J250000D01*
G01*
X153811000Y-43243500D01*
G75*
G02*
X154061000Y-42993500I250000J0D01*
G01*
G37*
G04 #@! TD.AperFunction*
G04 #@! TO.P,C2,2*
G04 #@! TO.N,GND*
G04 #@! TA.AperFunction,SMDPad,CuDef*
G36*
G01*
X154061000Y-45793500D02*
X155311000Y-45793500D01*
G75*
G02*
X155561000Y-46043500I0J-250000D01*
G01*
X155561000Y-46793500D01*
G75*
G02*
X155311000Y-47043500I-250000J0D01*
G01*
X154061000Y-47043500D01*
G75*
G02*
X153811000Y-46793500I0J250000D01*
G01*
X153811000Y-46043500D01*
G75*
G02*
X154061000Y-45793500I250000J0D01*
G01*
G37*
G04 #@! TD.AperFunction*
G04 #@! TD*
G04 #@! TO.P,D1,1*
G04 #@! TO.N,Net-(D1-Pad1)*
G04 #@! TA.AperFunction,SMDPad,CuDef*
G36*
G01*
X144462000Y-39244500D02*
X144462000Y-37844500D01*
G75*
G02*
X144712000Y-37594500I250000J0D01*
G01*
X145437000Y-37594500D01*
G75*
G02*
X145687000Y-37844500I0J-250000D01*
G01*
X145687000Y-39244500D01*
G75*
G02*
X145437000Y-39494500I-250000J0D01*
G01*
X144712000Y-39494500D01*
G75*
G02*
X144462000Y-39244500I0J250000D01*
G01*
G37*
G04 #@! TD.AperFunction*
G04 #@! TO.P,D1,2*
G04 #@! TO.N,Net-(D1-Pad2)*
G04 #@! TA.AperFunction,SMDPad,CuDef*
G36*
G01*
X147787000Y-39244500D02*
X147787000Y-37844500D01*
G75*
G02*
X148037000Y-37594500I250000J0D01*
G01*
X148762000Y-37594500D01*
G75*
G02*
X149012000Y-37844500I0J-250000D01*
G01*
X149012000Y-39244500D01*
G75*
G02*
X148762000Y-39494500I-250000J0D01*
G01*
X148037000Y-39494500D01*
G75*
G02*
X147787000Y-39244500I0J250000D01*
G01*
G37*
G04 #@! TD.AperFunction*
G04 #@! TD*
D11*
G04 #@! TO.P,J2,4*
G04 #@! TO.N,VCC*
X160210500Y-38290500D03*
G04 #@! TO.P,J2,3*
G04 #@! TO.N,DATA_TOP_CLK*
X160210500Y-40830500D03*
G04 #@! TO.P,J2,2*
G04 #@! TO.N,DATA_TOP*
X160210500Y-43370500D03*
D12*
G04 #@! TO.P,J2,1*
G04 #@! TO.N,GND*
X160210500Y-45910500D03*
G04 #@! TD*
G04 #@! TO.P,R2,1*
G04 #@! TO.N,DATA_TOP*
G04 #@! TA.AperFunction,SMDPad,CuDef*
G36*
G01*
X157660500Y-47068500D02*
X156410500Y-47068500D01*
G75*
G02*
X156160500Y-46818500I0J250000D01*
G01*
X156160500Y-46018500D01*
G75*
G02*
X156410500Y-45768500I250000J0D01*
G01*
X157660500Y-45768500D01*
G75*
G02*
X157910500Y-46018500I0J-250000D01*
G01*
X157910500Y-46818500D01*
G75*
G02*
X157660500Y-47068500I-250000J0D01*
G01*
G37*
G04 #@! TD.AperFunction*
G04 #@! TO.P,R2,2*
G04 #@! TO.N,VCC*
G04 #@! TA.AperFunction,SMDPad,CuDef*
G36*
G01*
X157660500Y-43968500D02*
X156410500Y-43968500D01*
G75*
G02*
X156160500Y-43718500I0J250000D01*
G01*
X156160500Y-42918500D01*
G75*
G02*
X156410500Y-42668500I250000J0D01*
G01*
X157660500Y-42668500D01*
G75*
G02*
X157910500Y-42918500I0J-250000D01*
G01*
X157910500Y-43718500D01*
G75*
G02*
X157660500Y-43968500I-250000J0D01*
G01*
G37*
G04 #@! TD.AperFunction*
G04 #@! TD*
G04 #@! TO.P,J4,1*
G04 #@! TO.N,IRQ*
X142367000Y-45910500D03*
D11*
G04 #@! TO.P,J4,2*
G04 #@! TO.N,MISO*
X139827000Y-45910500D03*
G04 #@! TO.P,J4,3*
G04 #@! TO.N,DATA_BOTTOM*
X142367000Y-43370500D03*
G04 #@! TO.P,J4,4*
G04 #@! TO.N,DATA_BOTTOM_CLK*
X139827000Y-43370500D03*
G04 #@! TO.P,J4,5*
G04 #@! TO.N,CSN*
X142367000Y-40830500D03*
G04 #@! TO.P,J4,6*
G04 #@! TO.N,CE*
X139827000Y-40830500D03*
G04 #@! TO.P,J4,7*
G04 #@! TO.N,VCC*
X142367000Y-38290500D03*
G04 #@! TO.P,J4,8*
G04 #@! TO.N,GND*
X139827000Y-38290500D03*
G04 #@! TD*
G04 #@! TO.P,U1,1*
G04 #@! TO.N,VCC*
G04 #@! TA.AperFunction,SMDPad,CuDef*
G36*
G01*
X152440500Y-40176000D02*
X152740500Y-40176000D01*
G75*
G02*
X152890500Y-40326000I0J-150000D01*
G01*
X152890500Y-41976000D01*
G75*
G02*
X152740500Y-42126000I-150000J0D01*
G01*
X152440500Y-42126000D01*
G75*
G02*
X152290500Y-41976000I0J150000D01*
G01*
X152290500Y-40326000D01*
G75*
G02*
X152440500Y-40176000I150000J0D01*
G01*
G37*
G04 #@! TD.AperFunction*
G04 #@! TO.P,U1,2*
G04 #@! TO.N,DATA_TOP_CLK*
G04 #@! TA.AperFunction,SMDPad,CuDef*
G36*
G01*
X151170500Y-40176000D02*
X151470500Y-40176000D01*
G75*
G02*
X151620500Y-40326000I0J-150000D01*
G01*
X151620500Y-41976000D01*
G75*
G02*
X151470500Y-42126000I-150000J0D01*
G01*
X151170500Y-42126000D01*
G75*
G02*
X151020500Y-41976000I0J150000D01*
G01*
X151020500Y-40326000D01*
G75*
G02*
X151170500Y-40176000I150000J0D01*
G01*
G37*
G04 #@! TD.AperFunction*
G04 #@! TO.P,U1,3*
G04 #@! TO.N,DATA_TOP*
G04 #@! TA.AperFunction,SMDPad,CuDef*
G36*
G01*
X149900500Y-40176000D02*
X150200500Y-40176000D01*
G75*
G02*
X150350500Y-40326000I0J-150000D01*
G01*
X150350500Y-41976000D01*
G75*
G02*
X150200500Y-42126000I-150000J0D01*
G01*
X149900500Y-42126000D01*
G75*
G02*
X149750500Y-41976000I0J150000D01*
G01*
X149750500Y-40326000D01*
G75*
G02*
X149900500Y-40176000I150000J0D01*
G01*
G37*
G04 #@! TD.AperFunction*
G04 #@! TO.P,U1,4*
G04 #@! TO.N,Net-(U1-Pad4)*
G04 #@! TA.AperFunction,SMDPad,CuDef*
G36*
G01*
X148630500Y-40176000D02*
X148930500Y-40176000D01*
G75*
G02*
X149080500Y-40326000I0J-150000D01*
G01*
X149080500Y-41976000D01*
G75*
G02*
X148930500Y-42126000I-150000J0D01*
G01*
X148630500Y-42126000D01*
G75*
G02*
X148480500Y-41976000I0J150000D01*
G01*
X148480500Y-40326000D01*
G75*
G02*
X148630500Y-40176000I150000J0D01*
G01*
G37*
G04 #@! TD.AperFunction*
G04 #@! TO.P,U1,5*
G04 #@! TO.N,Net-(D1-Pad1)*
G04 #@! TA.AperFunction,SMDPad,CuDef*
G36*
G01*
X147360500Y-40176000D02*
X147660500Y-40176000D01*
G75*
G02*
X147810500Y-40326000I0J-150000D01*
G01*
X147810500Y-41976000D01*
G75*
G02*
X147660500Y-42126000I-150000J0D01*
G01*
X147360500Y-42126000D01*
G75*
G02*
X147210500Y-41976000I0J150000D01*
G01*
X147210500Y-40326000D01*
G75*
G02*
X147360500Y-40176000I150000J0D01*
G01*
G37*
G04 #@! TD.AperFunction*
G04 #@! TO.P,U1,6*
G04 #@! TO.N,CE*
G04 #@! TA.AperFunction,SMDPad,CuDef*
G36*
G01*
X146090500Y-40176000D02*
X146390500Y-40176000D01*
G75*
G02*
X146540500Y-40326000I0J-150000D01*
G01*
X146540500Y-41976000D01*
G75*
G02*
X146390500Y-42126000I-150000J0D01*
G01*
X146090500Y-42126000D01*
G75*
G02*
X145940500Y-41976000I0J150000D01*
G01*
X145940500Y-40326000D01*
G75*
G02*
X146090500Y-40176000I150000J0D01*
G01*
G37*
G04 #@! TD.AperFunction*
G04 #@! TO.P,U1,7*
G04 #@! TO.N,CSN*
G04 #@! TA.AperFunction,SMDPad,CuDef*
G36*
G01*
X144820500Y-40176000D02*
X145120500Y-40176000D01*
G75*
G02*
X145270500Y-40326000I0J-150000D01*
G01*
X145270500Y-41976000D01*
G75*
G02*
X145120500Y-42126000I-150000J0D01*
G01*
X144820500Y-42126000D01*
G75*
G02*
X144670500Y-41976000I0J150000D01*
G01*
X144670500Y-40326000D01*
G75*
G02*
X144820500Y-40176000I150000J0D01*
G01*
G37*
G04 #@! TD.AperFunction*
G04 #@! TO.P,U1,8*
G04 #@! TO.N,IRQ*
G04 #@! TA.AperFunction,SMDPad,CuDef*
G36*
G01*
X144820500Y-45126000D02*
X145120500Y-45126000D01*
G75*
G02*
X145270500Y-45276000I0J-150000D01*
G01*
X145270500Y-46926000D01*
G75*
G02*
X145120500Y-47076000I-150000J0D01*
G01*
X144820500Y-47076000D01*
G75*
G02*
X144670500Y-46926000I0J150000D01*
G01*
X144670500Y-45276000D01*
G75*
G02*
X144820500Y-45126000I150000J0D01*
G01*
G37*
G04 #@! TD.AperFunction*
G04 #@! TO.P,U1,9*
G04 #@! TO.N,Net-(U1-Pad9)*
G04 #@! TA.AperFunction,SMDPad,CuDef*
G36*
G01*
X146090500Y-45126000D02*
X146390500Y-45126000D01*
G75*
G02*
X146540500Y-45276000I0J-150000D01*
G01*
X146540500Y-46926000D01*
G75*
G02*
X146390500Y-47076000I-150000J0D01*
G01*
X146090500Y-47076000D01*
G75*
G02*
X145940500Y-46926000I0J150000D01*
G01*
X145940500Y-45276000D01*
G75*
G02*
X146090500Y-45126000I150000J0D01*
G01*
G37*
G04 #@! TD.AperFunction*
G04 #@! TO.P,U1,10*
G04 #@! TO.N,UPDI*
G04 #@! TA.AperFunction,SMDPad,CuDef*
G36*
G01*
X147360500Y-45126000D02*
X147660500Y-45126000D01*
G75*
G02*
X147810500Y-45276000I0J-150000D01*
G01*
X147810500Y-46926000D01*
G75*
G02*
X147660500Y-47076000I-150000J0D01*
G01*
X147360500Y-47076000D01*
G75*
G02*
X147210500Y-46926000I0J150000D01*
G01*
X147210500Y-45276000D01*
G75*
G02*
X147360500Y-45126000I150000J0D01*
G01*
G37*
G04 #@! TD.AperFunction*
G04 #@! TO.P,U1,11*
G04 #@! TO.N,DATA_BOTTOM*
G04 #@! TA.AperFunction,SMDPad,CuDef*
G36*
G01*
X148630500Y-45126000D02*
X148930500Y-45126000D01*
G75*
G02*
X149080500Y-45276000I0J-150000D01*
G01*
X149080500Y-46926000D01*
G75*
G02*
X148930500Y-47076000I-150000J0D01*
G01*
X148630500Y-47076000D01*
G75*
G02*
X148480500Y-46926000I0J150000D01*
G01*
X148480500Y-45276000D01*
G75*
G02*
X148630500Y-45126000I150000J0D01*
G01*
G37*
G04 #@! TD.AperFunction*
G04 #@! TO.P,U1,12*
G04 #@! TO.N,MISO*
G04 #@! TA.AperFunction,SMDPad,CuDef*
G36*
G01*
X149900500Y-45126000D02*
X150200500Y-45126000D01*
G75*
G02*
X150350500Y-45276000I0J-150000D01*
G01*
X150350500Y-46926000D01*
G75*
G02*
X150200500Y-47076000I-150000J0D01*
G01*
X149900500Y-47076000D01*
G75*
G02*
X149750500Y-46926000I0J150000D01*
G01*
X149750500Y-45276000D01*
G75*
G02*
X149900500Y-45126000I150000J0D01*
G01*
G37*
G04 #@! TD.AperFunction*
G04 #@! TO.P,U1,13*
G04 #@! TO.N,DATA_BOTTOM_CLK*
G04 #@! TA.AperFunction,SMDPad,CuDef*
G36*
G01*
X151170500Y-45126000D02*
X151470500Y-45126000D01*
G75*
G02*
X151620500Y-45276000I0J-150000D01*
G01*
X151620500Y-46926000D01*
G75*
G02*
X151470500Y-47076000I-150000J0D01*
G01*
X151170500Y-47076000D01*
G75*
G02*
X151020500Y-46926000I0J150000D01*
G01*
X151020500Y-45276000D01*
G75*
G02*
X151170500Y-45126000I150000J0D01*
G01*
G37*
G04 #@! TD.AperFunction*
G04 #@! TO.P,U1,14*
G04 #@! TO.N,GND*
G04 #@! TA.AperFunction,SMDPad,CuDef*
G36*
G01*
X152440500Y-45126000D02*
X152740500Y-45126000D01*
G75*
G02*
X152890500Y-45276000I0J-150000D01*
G01*
X152890500Y-46926000D01*
G75*
G02*
X152740500Y-47076000I-150000J0D01*
G01*
X152440500Y-47076000D01*
G75*
G02*
X152290500Y-46926000I0J150000D01*
G01*
X152290500Y-45276000D01*
G75*
G02*
X152440500Y-45126000I150000J0D01*
G01*
G37*
G04 #@! TD.AperFunction*
G04 #@! TD*
D12*
G04 #@! TO.P,J1,1*
G04 #@! TO.N,UPDI*
X155003500Y-38290500D03*
D11*
G04 #@! TO.P,J1,2*
G04 #@! TO.N,GND*
X157543500Y-38290500D03*
G04 #@! TD*
G04 #@! TO.P,R1,1*
G04 #@! TO.N,Net-(D1-Pad2)*
G04 #@! TA.AperFunction,SMDPad,CuDef*
G36*
G01*
X149577500Y-39248501D02*
X149577500Y-38348499D01*
G75*
G02*
X149827499Y-38098500I249999J0D01*
G01*
X150527501Y-38098500D01*
G75*
G02*
X150777500Y-38348499I0J-249999D01*
G01*
X150777500Y-39248501D01*
G75*
G02*
X150527501Y-39498500I-249999J0D01*
G01*
X149827499Y-39498500D01*
G75*
G02*
X149577500Y-39248501I0J249999D01*
G01*
G37*
G04 #@! TD.AperFunction*
G04 #@! TO.P,R1,2*
G04 #@! TO.N,VCC*
G04 #@! TA.AperFunction,SMDPad,CuDef*
G36*
G01*
X151577500Y-39248501D02*
X151577500Y-38348499D01*
G75*
G02*
X151827499Y-38098500I249999J0D01*
G01*
X152527501Y-38098500D01*
G75*
G02*
X152777500Y-38348499I0J-249999D01*
G01*
X152777500Y-39248501D01*
G75*
G02*
X152527501Y-39498500I-249999J0D01*
G01*
X151827499Y-39498500D01*
G75*
G02*
X151577500Y-39248501I0J249999D01*
G01*
G37*
G04 #@! TD.AperFunction*
G04 #@! TD*
D13*
G04 #@! TO.N,MISO*
X150045847Y-44581653D03*
G04 #@! TO.N,GND*
X151955500Y-44450000D03*
G04 #@! TO.N,UPDI*
X147510500Y-44323000D03*
G04 #@! TD*
D14*
G04 #@! TO.N,Net-(D1-Pad2)*
X149923500Y-38544500D02*
X150177500Y-38798500D01*
X148399500Y-38544500D02*
X149923500Y-38544500D01*
G04 #@! TO.N,VCC*
X157232000Y-41148000D02*
X157156500Y-41148000D01*
X156461000Y-42744000D02*
X157035500Y-43318500D01*
X156461000Y-41843500D02*
X156461000Y-42744000D01*
X157156500Y-41148000D02*
X156461000Y-41843500D01*
X156461000Y-41843500D02*
X154686000Y-43618500D01*
X159956500Y-38544500D02*
X160210500Y-38290500D01*
X157353000Y-41148000D02*
X160210500Y-38290500D01*
X157232000Y-41148000D02*
X157353000Y-41148000D01*
X152177500Y-38798500D02*
X152273000Y-38798500D01*
X152590500Y-39116000D02*
X152590500Y-41151000D01*
X152273000Y-38798500D02*
X152590500Y-39116000D01*
X143388010Y-37269490D02*
X151696490Y-37269490D01*
X142367000Y-38290500D02*
X143388010Y-37269490D01*
X152177500Y-37750500D02*
X152177500Y-38798500D01*
X151696490Y-37269490D02*
X152177500Y-37750500D01*
X154686000Y-43618500D02*
X154108500Y-43618500D01*
X152590500Y-42100500D02*
X152590500Y-41151000D01*
X154108500Y-43618500D02*
X152590500Y-42100500D01*
G04 #@! TO.N,IRQ*
X144780000Y-45910500D02*
X144970500Y-46101000D01*
X142367000Y-45910500D02*
X144780000Y-45910500D01*
G04 #@! TO.N,CSN*
X144650000Y-40830500D02*
X144970500Y-41151000D01*
X142367000Y-40830500D02*
X144650000Y-40830500D01*
G04 #@! TO.N,CE*
X146240500Y-40176000D02*
X146240500Y-41151000D01*
X145915490Y-39850990D02*
X146240500Y-40176000D01*
X144505300Y-39850990D02*
X145915490Y-39850990D01*
X144309809Y-39655499D02*
X144505300Y-39850990D01*
X141002001Y-39655499D02*
X144309809Y-39655499D01*
X139827000Y-40830500D02*
X141002001Y-39655499D01*
G04 #@! TO.N,DATA_BOTTOM_CLK*
X151320500Y-44831000D02*
X151320500Y-46101000D01*
X149053999Y-42564499D02*
X151320500Y-44831000D01*
X143300001Y-42564499D02*
X149053999Y-42564499D01*
X142931001Y-42195499D02*
X143300001Y-42564499D01*
X141002001Y-42195499D02*
X142931001Y-42195499D01*
X139827000Y-43370500D02*
X141002001Y-42195499D01*
G04 #@! TO.N,DATA_BOTTOM*
X148780500Y-44513500D02*
X148780500Y-46101000D01*
X147637500Y-43370500D02*
X148780500Y-44513500D01*
X142367000Y-43370500D02*
X147637500Y-43370500D01*
G04 #@! TO.N,DATA_TOP_CLK*
X157623680Y-44568510D02*
X158623000Y-43569190D01*
X153763010Y-44568510D02*
X157623680Y-44568510D01*
X151320500Y-42126000D02*
X153763010Y-44568510D01*
X151320500Y-41151000D02*
X151320500Y-42126000D01*
X158623000Y-43569190D02*
X158623000Y-41592500D01*
X159385000Y-40830500D02*
X160210500Y-40830500D01*
X158623000Y-41592500D02*
X159385000Y-40830500D01*
G04 #@! TO.N,DATA_TOP*
X157162500Y-46418500D02*
X157035500Y-46418500D01*
X151041000Y-43116500D02*
X151674590Y-43116500D01*
X150050500Y-42126000D02*
X151041000Y-43116500D01*
X150050500Y-41151000D02*
X150050500Y-42126000D01*
X151674590Y-43116500D02*
X153576610Y-45018520D01*
X158562480Y-45018520D02*
X158591250Y-44989750D01*
X153576610Y-45018520D02*
X158562480Y-45018520D01*
X158591250Y-44989750D02*
X157162500Y-46418500D01*
X160210500Y-43370500D02*
X158591250Y-44989750D01*
G04 #@! TO.N,MISO*
X150050500Y-44586306D02*
X150045847Y-44581653D01*
X150050500Y-46101000D02*
X150050500Y-44586306D01*
G04 #@! TO.N,GND*
X154368500Y-46101000D02*
X154686000Y-46418500D01*
X152590500Y-46101000D02*
X154368500Y-46101000D01*
X152590500Y-45085000D02*
X151955500Y-44450000D01*
X152590500Y-46101000D02*
X152590500Y-45085000D01*
X154686000Y-41148000D02*
X157543500Y-38290500D01*
X154432000Y-41148000D02*
X154686000Y-41148000D01*
X160210500Y-45910500D02*
X161607500Y-44513500D01*
X161607500Y-44513500D02*
X161607500Y-37655500D01*
X161607500Y-37655500D02*
X160845500Y-36893500D01*
X160845500Y-36893500D02*
X158432500Y-36893500D01*
X157543500Y-37782500D02*
X157543500Y-38290500D01*
X158432500Y-36893500D02*
X157543500Y-37782500D01*
G04 #@! TO.N,Net-(D1-Pad1)*
X147510500Y-40368000D02*
X147510500Y-41151000D01*
X145687000Y-38544500D02*
X147510500Y-40368000D01*
X145074500Y-38544500D02*
X145687000Y-38544500D01*
G04 #@! TO.N,UPDI*
X147510500Y-46101000D02*
X147510500Y-44323000D01*
G04 #@! TD*
D15*
G04 #@! TO.N,GND*
X154813000Y-46291500D02*
X154833000Y-46291500D01*
X154833000Y-46545500D01*
X154813000Y-46545500D01*
X154813000Y-46565500D01*
X154559000Y-46565500D01*
X154559000Y-46545500D01*
X154539000Y-46545500D01*
X154539000Y-46291500D01*
X154559000Y-46291500D01*
X154559000Y-46271500D01*
X154813000Y-46271500D01*
X154813000Y-46291500D01*
G04 #@! TA.AperFunction,Conductor*
D16*
G36*
X154813000Y-46291500D02*
G01*
X154833000Y-46291500D01*
X154833000Y-46545500D01*
X154813000Y-46545500D01*
X154813000Y-46565500D01*
X154559000Y-46565500D01*
X154559000Y-46545500D01*
X154539000Y-46545500D01*
X154539000Y-46291500D01*
X154559000Y-46291500D01*
X154559000Y-46271500D01*
X154813000Y-46271500D01*
X154813000Y-46291500D01*
G37*
G04 #@! TD.AperFunction*
D15*
X152717500Y-45974000D02*
X152737500Y-45974000D01*
X152737500Y-46228000D01*
X152717500Y-46228000D01*
X152717500Y-46248000D01*
X152463500Y-46248000D01*
X152463500Y-46228000D01*
X152443500Y-46228000D01*
X152443500Y-45974000D01*
X152463500Y-45974000D01*
X152463500Y-45954000D01*
X152717500Y-45954000D01*
X152717500Y-45974000D01*
G04 #@! TA.AperFunction,Conductor*
D16*
G36*
X152717500Y-45974000D02*
G01*
X152737500Y-45974000D01*
X152737500Y-46228000D01*
X152717500Y-46228000D01*
X152717500Y-46248000D01*
X152463500Y-46248000D01*
X152463500Y-46228000D01*
X152443500Y-46228000D01*
X152443500Y-45974000D01*
X152463500Y-45974000D01*
X152463500Y-45954000D01*
X152717500Y-45954000D01*
X152717500Y-45974000D01*
G37*
G04 #@! TD.AperFunction*
D15*
X160337500Y-45783500D02*
X160357500Y-45783500D01*
X160357500Y-46037500D01*
X160337500Y-46037500D01*
X160337500Y-46057500D01*
X160083500Y-46057500D01*
X160083500Y-46037500D01*
X160063500Y-46037500D01*
X160063500Y-45783500D01*
X160083500Y-45783500D01*
X160083500Y-45763500D01*
X160337500Y-45763500D01*
X160337500Y-45783500D01*
G04 #@! TA.AperFunction,Conductor*
D16*
G36*
X160337500Y-45783500D02*
G01*
X160357500Y-45783500D01*
X160357500Y-46037500D01*
X160337500Y-46037500D01*
X160337500Y-46057500D01*
X160083500Y-46057500D01*
X160083500Y-46037500D01*
X160063500Y-46037500D01*
X160063500Y-45783500D01*
X160083500Y-45783500D01*
X160083500Y-45763500D01*
X160337500Y-45763500D01*
X160337500Y-45783500D01*
G37*
G04 #@! TD.AperFunction*
D15*
X152029029Y-44545741D02*
X152028286Y-44546138D01*
X152027790Y-44544502D01*
X152029029Y-44545741D01*
G04 #@! TA.AperFunction,Conductor*
D16*
G36*
X152029029Y-44545741D02*
G01*
X152028286Y-44546138D01*
X152027790Y-44544502D01*
X152029029Y-44545741D01*
G37*
G04 #@! TD.AperFunction*
D15*
X156543231Y-39388088D02*
X156776580Y-39562141D01*
X156929395Y-39634928D01*
X156857000Y-39634928D01*
X156683746Y-39651992D01*
X156517150Y-39702528D01*
X156363614Y-39784595D01*
X156229038Y-39895038D01*
X156118595Y-40029614D01*
X156036528Y-40183150D01*
X155985992Y-40349746D01*
X155968928Y-40523000D01*
X155968928Y-41260771D01*
X155950002Y-41279697D01*
X155920999Y-41303499D01*
X155897202Y-41332496D01*
X155692539Y-41537159D01*
X155692000Y-41433750D01*
X155533250Y-41275000D01*
X154559000Y-41275000D01*
X154559000Y-41295000D01*
X154305000Y-41295000D01*
X154305000Y-41275000D01*
X154285000Y-41275000D01*
X154285000Y-41021000D01*
X154305000Y-41021000D01*
X154305000Y-41001000D01*
X154559000Y-41001000D01*
X154559000Y-41021000D01*
X155533250Y-41021000D01*
X155692000Y-40862250D01*
X155695072Y-40273000D01*
X155682812Y-40148518D01*
X155646502Y-40028820D01*
X155587537Y-39918506D01*
X155508185Y-39821815D01*
X155455493Y-39778572D01*
X155853500Y-39778572D01*
X155977982Y-39766312D01*
X156097680Y-39730002D01*
X156207994Y-39671037D01*
X156304685Y-39591685D01*
X156384037Y-39494994D01*
X156443002Y-39384680D01*
X156467466Y-39304034D01*
X156543231Y-39388088D01*
G04 #@! TA.AperFunction,Conductor*
D16*
G36*
X156543231Y-39388088D02*
G01*
X156776580Y-39562141D01*
X156929395Y-39634928D01*
X156857000Y-39634928D01*
X156683746Y-39651992D01*
X156517150Y-39702528D01*
X156363614Y-39784595D01*
X156229038Y-39895038D01*
X156118595Y-40029614D01*
X156036528Y-40183150D01*
X155985992Y-40349746D01*
X155968928Y-40523000D01*
X155968928Y-41260771D01*
X155950002Y-41279697D01*
X155920999Y-41303499D01*
X155897202Y-41332496D01*
X155692539Y-41537159D01*
X155692000Y-41433750D01*
X155533250Y-41275000D01*
X154559000Y-41275000D01*
X154559000Y-41295000D01*
X154305000Y-41295000D01*
X154305000Y-41275000D01*
X154285000Y-41275000D01*
X154285000Y-41021000D01*
X154305000Y-41021000D01*
X154305000Y-41001000D01*
X154559000Y-41001000D01*
X154559000Y-41021000D01*
X155533250Y-41021000D01*
X155692000Y-40862250D01*
X155695072Y-40273000D01*
X155682812Y-40148518D01*
X155646502Y-40028820D01*
X155587537Y-39918506D01*
X155508185Y-39821815D01*
X155455493Y-39778572D01*
X155853500Y-39778572D01*
X155977982Y-39766312D01*
X156097680Y-39730002D01*
X156207994Y-39671037D01*
X156304685Y-39591685D01*
X156384037Y-39494994D01*
X156443002Y-39384680D01*
X156467466Y-39304034D01*
X156543231Y-39388088D01*
G37*
G04 #@! TD.AperFunction*
D15*
X157670500Y-38163500D02*
X157690500Y-38163500D01*
X157690500Y-38417500D01*
X157670500Y-38417500D01*
X157670500Y-38437500D01*
X157416500Y-38437500D01*
X157416500Y-38417500D01*
X157396500Y-38417500D01*
X157396500Y-38163500D01*
X157416500Y-38163500D01*
X157416500Y-38143500D01*
X157670500Y-38143500D01*
X157670500Y-38163500D01*
G04 #@! TA.AperFunction,Conductor*
D16*
G36*
X157670500Y-38163500D02*
G01*
X157690500Y-38163500D01*
X157690500Y-38417500D01*
X157670500Y-38417500D01*
X157670500Y-38437500D01*
X157416500Y-38437500D01*
X157416500Y-38417500D01*
X157396500Y-38417500D01*
X157396500Y-38163500D01*
X157416500Y-38163500D01*
X157416500Y-38143500D01*
X157670500Y-38143500D01*
X157670500Y-38163500D01*
G37*
G04 #@! TD.AperFunction*
D15*
X139954000Y-38163500D02*
X139974000Y-38163500D01*
X139974000Y-38417500D01*
X139954000Y-38417500D01*
X139954000Y-38437500D01*
X139700000Y-38437500D01*
X139700000Y-38417500D01*
X139680000Y-38417500D01*
X139680000Y-38163500D01*
X139700000Y-38163500D01*
X139700000Y-38143500D01*
X139954000Y-38143500D01*
X139954000Y-38163500D01*
G04 #@! TA.AperFunction,Conductor*
D16*
G36*
X139954000Y-38163500D02*
G01*
X139974000Y-38163500D01*
X139974000Y-38417500D01*
X139954000Y-38417500D01*
X139954000Y-38437500D01*
X139700000Y-38437500D01*
X139700000Y-38417500D01*
X139680000Y-38417500D01*
X139680000Y-38163500D01*
X139700000Y-38163500D01*
X139700000Y-38143500D01*
X139954000Y-38143500D01*
X139954000Y-38163500D01*
G37*
G04 #@! TD.AperFunction*
G04 #@! TD*
M02*
