G04 #@! TF.GenerationSoftware,KiCad,Pcbnew,(5.1.9)-1*
G04 #@! TF.CreationDate,2021-04-09T17:17:30+02:00*
G04 #@! TF.ProjectId,Token,546f6b65-6e2e-46b6-9963-61645f706362,rev?*
G04 #@! TF.SameCoordinates,Original*
G04 #@! TF.FileFunction,Copper,L2,Bot*
G04 #@! TF.FilePolarity,Positive*
%FSLAX46Y46*%
G04 Gerber Fmt 4.6, Leading zero omitted, Abs format (unit mm)*
G04 Created by KiCad (PCBNEW (5.1.9)-1) date 2021-04-09 17:17:30*
%MOMM*%
%LPD*%
G01*
G04 APERTURE LIST*
G04 #@! TA.AperFunction,Profile*
%ADD10C,0.050000*%
G04 #@! TD*
G04 #@! TA.AperFunction,ComponentPad*
%ADD11O,1.700000X1.700000*%
G04 #@! TD*
G04 #@! TA.AperFunction,ComponentPad*
%ADD12R,1.700000X1.700000*%
G04 #@! TD*
G04 #@! TA.AperFunction,ViaPad*
%ADD13C,0.800000*%
G04 #@! TD*
G04 #@! TA.AperFunction,Conductor*
%ADD14C,0.250000*%
G04 #@! TD*
G04 #@! TA.AperFunction,Conductor*
%ADD15C,0.254000*%
G04 #@! TD*
G04 #@! TA.AperFunction,Conductor*
%ADD16C,0.100000*%
G04 #@! TD*
G04 APERTURE END LIST*
D10*
X161988500Y-47688500D02*
X158115000Y-47688500D01*
X161988500Y-36512500D02*
X161988500Y-47688500D01*
X158115000Y-36512500D02*
X161988500Y-36512500D01*
X137985500Y-36512500D02*
X138049000Y-36512500D01*
X137985500Y-47688500D02*
X137985500Y-36512500D01*
X158115000Y-47688500D02*
X137985500Y-47688500D01*
X138049000Y-36512500D02*
X158115000Y-36512500D01*
D11*
G04 #@! TO.P,J2,4*
G04 #@! TO.N,VCC*
X160210500Y-38290500D03*
G04 #@! TO.P,J2,3*
G04 #@! TO.N,DATA_TOP_CLK*
X160210500Y-40830500D03*
G04 #@! TO.P,J2,2*
G04 #@! TO.N,DATA_TOP*
X160210500Y-43370500D03*
D12*
G04 #@! TO.P,J2,1*
G04 #@! TO.N,GND*
X160210500Y-45910500D03*
G04 #@! TD*
G04 #@! TO.P,J4,1*
G04 #@! TO.N,IRQ*
X142367000Y-45910500D03*
D11*
G04 #@! TO.P,J4,2*
G04 #@! TO.N,MISO*
X139827000Y-45910500D03*
G04 #@! TO.P,J4,3*
G04 #@! TO.N,DATA_BOTTOM*
X142367000Y-43370500D03*
G04 #@! TO.P,J4,4*
G04 #@! TO.N,DATA_BOTTOM_CLK*
X139827000Y-43370500D03*
G04 #@! TO.P,J4,5*
G04 #@! TO.N,CSN*
X142367000Y-40830500D03*
G04 #@! TO.P,J4,6*
G04 #@! TO.N,CE*
X139827000Y-40830500D03*
G04 #@! TO.P,J4,7*
G04 #@! TO.N,VCC*
X142367000Y-38290500D03*
G04 #@! TO.P,J4,8*
G04 #@! TO.N,GND*
X139827000Y-38290500D03*
G04 #@! TD*
D12*
G04 #@! TO.P,J1,1*
G04 #@! TO.N,UPDI*
X155003500Y-38290500D03*
D11*
G04 #@! TO.P,J1,2*
G04 #@! TO.N,GND*
X157543500Y-38290500D03*
G04 #@! TD*
D13*
G04 #@! TO.N,MISO*
X150045847Y-44581653D03*
G04 #@! TO.N,GND*
X151955500Y-44450000D03*
G04 #@! TO.N,UPDI*
X147510500Y-44323000D03*
G04 #@! TD*
D14*
G04 #@! TO.N,MISO*
X141155847Y-44581653D02*
X139827000Y-45910500D01*
X141155847Y-44581653D02*
X143251347Y-44581653D01*
X143251347Y-44581653D02*
X144589500Y-43243500D01*
X144589500Y-43243500D02*
X149098000Y-43243500D01*
X150045847Y-44191347D02*
X150045847Y-44581653D01*
X149098000Y-43243500D02*
X150045847Y-44191347D01*
G04 #@! TO.N,GND*
X159149999Y-44849999D02*
X160210500Y-45910500D01*
X152355499Y-44849999D02*
X159149999Y-44849999D01*
X151955500Y-44450000D02*
X152355499Y-44849999D01*
X157543500Y-37528500D02*
X157543500Y-38290500D01*
X157130499Y-37115499D02*
X157543500Y-37528500D01*
X141002001Y-37115499D02*
X157130499Y-37115499D01*
X139827000Y-38290500D02*
X141002001Y-37115499D01*
G04 #@! TO.N,UPDI*
X147510500Y-44323000D02*
X148717000Y-45529500D01*
X148717000Y-45529500D02*
X150558500Y-45529500D01*
X150558500Y-45529500D02*
X151066500Y-45021500D01*
X151066500Y-45021500D02*
X151066500Y-43561000D01*
X151066500Y-43561000D02*
X152019000Y-42608500D01*
X153098500Y-42608500D02*
X154051000Y-42608500D01*
X152019000Y-42608500D02*
X153098500Y-42608500D01*
X155003500Y-41656000D02*
X155003500Y-38290500D01*
X154051000Y-42608500D02*
X155003500Y-41656000D01*
G04 #@! TD*
D15*
G04 #@! TO.N,GND*
X157670500Y-38163500D02*
X157690500Y-38163500D01*
X157690500Y-38417500D01*
X157670500Y-38417500D01*
X157670500Y-39610655D01*
X157900390Y-39731976D01*
X158047599Y-39687325D01*
X158310420Y-39562141D01*
X158543769Y-39388088D01*
X158738678Y-39171855D01*
X158874069Y-38944563D01*
X158894510Y-38993911D01*
X159057025Y-39237132D01*
X159263868Y-39443975D01*
X159438260Y-39560500D01*
X159263868Y-39677025D01*
X159057025Y-39883868D01*
X158894510Y-40127089D01*
X158782568Y-40397342D01*
X158725500Y-40684240D01*
X158725500Y-40976760D01*
X158782568Y-41263658D01*
X158894510Y-41533911D01*
X159057025Y-41777132D01*
X159263868Y-41983975D01*
X159438260Y-42100500D01*
X159263868Y-42217025D01*
X159057025Y-42423868D01*
X158894510Y-42667089D01*
X158782568Y-42937342D01*
X158725500Y-43224240D01*
X158725500Y-43516760D01*
X158782568Y-43803658D01*
X158894510Y-44073911D01*
X159057025Y-44317132D01*
X159188880Y-44448987D01*
X159116320Y-44470998D01*
X159006006Y-44529963D01*
X158909315Y-44609315D01*
X158829963Y-44706006D01*
X158770998Y-44816320D01*
X158734688Y-44936018D01*
X158722428Y-45060500D01*
X158725500Y-45624750D01*
X158884250Y-45783500D01*
X160083500Y-45783500D01*
X160083500Y-45763500D01*
X160337500Y-45763500D01*
X160337500Y-45783500D01*
X160357500Y-45783500D01*
X160357500Y-46037500D01*
X160337500Y-46037500D01*
X160337500Y-46057500D01*
X160083500Y-46057500D01*
X160083500Y-46037500D01*
X158884250Y-46037500D01*
X158725500Y-46196250D01*
X158722428Y-46760500D01*
X158734688Y-46884982D01*
X158770998Y-47004680D01*
X158783730Y-47028500D01*
X143793770Y-47028500D01*
X143806502Y-47004680D01*
X143842812Y-46884982D01*
X143855072Y-46760500D01*
X143855072Y-45060500D01*
X143854375Y-45053426D01*
X144904302Y-44003500D01*
X146522565Y-44003500D01*
X146515274Y-44021102D01*
X146475500Y-44221061D01*
X146475500Y-44424939D01*
X146515274Y-44624898D01*
X146593295Y-44813256D01*
X146706563Y-44982774D01*
X146850726Y-45126937D01*
X147020244Y-45240205D01*
X147208602Y-45318226D01*
X147408561Y-45358000D01*
X147470699Y-45358000D01*
X148153201Y-46040503D01*
X148176999Y-46069501D01*
X148292724Y-46164474D01*
X148424753Y-46235046D01*
X148568014Y-46278503D01*
X148679667Y-46289500D01*
X148679675Y-46289500D01*
X148717000Y-46293176D01*
X148754325Y-46289500D01*
X150521178Y-46289500D01*
X150558500Y-46293176D01*
X150595822Y-46289500D01*
X150595833Y-46289500D01*
X150707486Y-46278503D01*
X150850747Y-46235046D01*
X150982776Y-46164474D01*
X151098501Y-46069501D01*
X151122303Y-46040498D01*
X151577503Y-45585298D01*
X151606501Y-45561501D01*
X151701474Y-45445776D01*
X151772046Y-45313747D01*
X151815503Y-45170486D01*
X151826500Y-45058833D01*
X151826500Y-45058824D01*
X151830176Y-45021501D01*
X151826500Y-44984178D01*
X151826500Y-43875801D01*
X152333803Y-43368500D01*
X154013678Y-43368500D01*
X154051000Y-43372176D01*
X154088322Y-43368500D01*
X154088333Y-43368500D01*
X154199986Y-43357503D01*
X154343247Y-43314046D01*
X154475276Y-43243474D01*
X154591001Y-43148501D01*
X154614803Y-43119498D01*
X155514509Y-42219794D01*
X155543501Y-42196001D01*
X155567295Y-42167008D01*
X155567299Y-42167004D01*
X155638473Y-42080277D01*
X155638474Y-42080276D01*
X155709046Y-41948247D01*
X155752503Y-41804986D01*
X155763500Y-41693333D01*
X155763500Y-41693324D01*
X155767176Y-41656001D01*
X155763500Y-41618678D01*
X155763500Y-39778572D01*
X155853500Y-39778572D01*
X155977982Y-39766312D01*
X156097680Y-39730002D01*
X156207994Y-39671037D01*
X156304685Y-39591685D01*
X156384037Y-39494994D01*
X156443002Y-39384680D01*
X156467466Y-39304034D01*
X156543231Y-39388088D01*
X156776580Y-39562141D01*
X157039401Y-39687325D01*
X157186610Y-39731976D01*
X157416500Y-39610655D01*
X157416500Y-38417500D01*
X157396500Y-38417500D01*
X157396500Y-38163500D01*
X157416500Y-38163500D01*
X157416500Y-38143500D01*
X157670500Y-38143500D01*
X157670500Y-38163500D01*
G04 #@! TA.AperFunction,Conductor*
D16*
G36*
X157670500Y-38163500D02*
G01*
X157690500Y-38163500D01*
X157690500Y-38417500D01*
X157670500Y-38417500D01*
X157670500Y-39610655D01*
X157900390Y-39731976D01*
X158047599Y-39687325D01*
X158310420Y-39562141D01*
X158543769Y-39388088D01*
X158738678Y-39171855D01*
X158874069Y-38944563D01*
X158894510Y-38993911D01*
X159057025Y-39237132D01*
X159263868Y-39443975D01*
X159438260Y-39560500D01*
X159263868Y-39677025D01*
X159057025Y-39883868D01*
X158894510Y-40127089D01*
X158782568Y-40397342D01*
X158725500Y-40684240D01*
X158725500Y-40976760D01*
X158782568Y-41263658D01*
X158894510Y-41533911D01*
X159057025Y-41777132D01*
X159263868Y-41983975D01*
X159438260Y-42100500D01*
X159263868Y-42217025D01*
X159057025Y-42423868D01*
X158894510Y-42667089D01*
X158782568Y-42937342D01*
X158725500Y-43224240D01*
X158725500Y-43516760D01*
X158782568Y-43803658D01*
X158894510Y-44073911D01*
X159057025Y-44317132D01*
X159188880Y-44448987D01*
X159116320Y-44470998D01*
X159006006Y-44529963D01*
X158909315Y-44609315D01*
X158829963Y-44706006D01*
X158770998Y-44816320D01*
X158734688Y-44936018D01*
X158722428Y-45060500D01*
X158725500Y-45624750D01*
X158884250Y-45783500D01*
X160083500Y-45783500D01*
X160083500Y-45763500D01*
X160337500Y-45763500D01*
X160337500Y-45783500D01*
X160357500Y-45783500D01*
X160357500Y-46037500D01*
X160337500Y-46037500D01*
X160337500Y-46057500D01*
X160083500Y-46057500D01*
X160083500Y-46037500D01*
X158884250Y-46037500D01*
X158725500Y-46196250D01*
X158722428Y-46760500D01*
X158734688Y-46884982D01*
X158770998Y-47004680D01*
X158783730Y-47028500D01*
X143793770Y-47028500D01*
X143806502Y-47004680D01*
X143842812Y-46884982D01*
X143855072Y-46760500D01*
X143855072Y-45060500D01*
X143854375Y-45053426D01*
X144904302Y-44003500D01*
X146522565Y-44003500D01*
X146515274Y-44021102D01*
X146475500Y-44221061D01*
X146475500Y-44424939D01*
X146515274Y-44624898D01*
X146593295Y-44813256D01*
X146706563Y-44982774D01*
X146850726Y-45126937D01*
X147020244Y-45240205D01*
X147208602Y-45318226D01*
X147408561Y-45358000D01*
X147470699Y-45358000D01*
X148153201Y-46040503D01*
X148176999Y-46069501D01*
X148292724Y-46164474D01*
X148424753Y-46235046D01*
X148568014Y-46278503D01*
X148679667Y-46289500D01*
X148679675Y-46289500D01*
X148717000Y-46293176D01*
X148754325Y-46289500D01*
X150521178Y-46289500D01*
X150558500Y-46293176D01*
X150595822Y-46289500D01*
X150595833Y-46289500D01*
X150707486Y-46278503D01*
X150850747Y-46235046D01*
X150982776Y-46164474D01*
X151098501Y-46069501D01*
X151122303Y-46040498D01*
X151577503Y-45585298D01*
X151606501Y-45561501D01*
X151701474Y-45445776D01*
X151772046Y-45313747D01*
X151815503Y-45170486D01*
X151826500Y-45058833D01*
X151826500Y-45058824D01*
X151830176Y-45021501D01*
X151826500Y-44984178D01*
X151826500Y-43875801D01*
X152333803Y-43368500D01*
X154013678Y-43368500D01*
X154051000Y-43372176D01*
X154088322Y-43368500D01*
X154088333Y-43368500D01*
X154199986Y-43357503D01*
X154343247Y-43314046D01*
X154475276Y-43243474D01*
X154591001Y-43148501D01*
X154614803Y-43119498D01*
X155514509Y-42219794D01*
X155543501Y-42196001D01*
X155567295Y-42167008D01*
X155567299Y-42167004D01*
X155638473Y-42080277D01*
X155638474Y-42080276D01*
X155709046Y-41948247D01*
X155752503Y-41804986D01*
X155763500Y-41693333D01*
X155763500Y-41693324D01*
X155767176Y-41656001D01*
X155763500Y-41618678D01*
X155763500Y-39778572D01*
X155853500Y-39778572D01*
X155977982Y-39766312D01*
X156097680Y-39730002D01*
X156207994Y-39671037D01*
X156304685Y-39591685D01*
X156384037Y-39494994D01*
X156443002Y-39384680D01*
X156467466Y-39304034D01*
X156543231Y-39388088D01*
X156776580Y-39562141D01*
X157039401Y-39687325D01*
X157186610Y-39731976D01*
X157416500Y-39610655D01*
X157416500Y-38417500D01*
X157396500Y-38417500D01*
X157396500Y-38163500D01*
X157416500Y-38163500D01*
X157416500Y-38143500D01*
X157670500Y-38143500D01*
X157670500Y-38163500D01*
G37*
G04 #@! TD.AperFunction*
D15*
X139954000Y-38163500D02*
X139974000Y-38163500D01*
X139974000Y-38417500D01*
X139954000Y-38417500D01*
X139954000Y-38437500D01*
X139700000Y-38437500D01*
X139700000Y-38417500D01*
X139680000Y-38417500D01*
X139680000Y-38163500D01*
X139700000Y-38163500D01*
X139700000Y-38143500D01*
X139954000Y-38143500D01*
X139954000Y-38163500D01*
G04 #@! TA.AperFunction,Conductor*
D16*
G36*
X139954000Y-38163500D02*
G01*
X139974000Y-38163500D01*
X139974000Y-38417500D01*
X139954000Y-38417500D01*
X139954000Y-38437500D01*
X139700000Y-38437500D01*
X139700000Y-38417500D01*
X139680000Y-38417500D01*
X139680000Y-38163500D01*
X139700000Y-38163500D01*
X139700000Y-38143500D01*
X139954000Y-38143500D01*
X139954000Y-38163500D01*
G37*
G04 #@! TD.AperFunction*
G04 #@! TD*
M02*
