G04 #@! TF.GenerationSoftware,KiCad,Pcbnew,(5.1.9)-1*
G04 #@! TF.CreationDate,2021-04-09T17:17:31+02:00*
G04 #@! TF.ProjectId,Token,546f6b65-6e2e-46b6-9963-61645f706362,rev?*
G04 #@! TF.SameCoordinates,Original*
G04 #@! TF.FileFunction,Legend,Top*
G04 #@! TF.FilePolarity,Positive*
%FSLAX46Y46*%
G04 Gerber Fmt 4.6, Leading zero omitted, Abs format (unit mm)*
G04 Created by KiCad (PCBNEW (5.1.9)-1) date 2021-04-09 17:17:31*
%MOMM*%
%LPD*%
G01*
G04 APERTURE LIST*
G04 #@! TA.AperFunction,Profile*
%ADD10C,0.050000*%
G04 #@! TD*
%ADD11C,0.120000*%
%ADD12C,0.150000*%
G04 APERTURE END LIST*
D10*
X161988500Y-47688500D02*
X158115000Y-47688500D01*
X161988500Y-36512500D02*
X161988500Y-47688500D01*
X158115000Y-36512500D02*
X161988500Y-36512500D01*
X137985500Y-36512500D02*
X138049000Y-36512500D01*
X137985500Y-47688500D02*
X137985500Y-36512500D01*
X158115000Y-47688500D02*
X137985500Y-47688500D01*
X138049000Y-36512500D02*
X158115000Y-36512500D01*
D11*
G04 #@! TO.C,C1*
X156434064Y-42058000D02*
X155229936Y-42058000D01*
X156434064Y-40238000D02*
X155229936Y-40238000D01*
G04 #@! TO.C,C2*
X155596000Y-44416436D02*
X155596000Y-45620564D01*
X153776000Y-44416436D02*
X153776000Y-45620564D01*
G04 #@! TO.C,D1*
X145901758Y-39454500D02*
X147572242Y-39454500D01*
X145901758Y-37634500D02*
X147572242Y-37634500D01*
G04 #@! TO.C,J2*
X161540500Y-44640500D02*
X158880500Y-44640500D01*
X161540500Y-44640500D02*
X161540500Y-36960500D01*
X161540500Y-36960500D02*
X158880500Y-36960500D01*
X158880500Y-44640500D02*
X158880500Y-36960500D01*
X158880500Y-47240500D02*
X158880500Y-45910500D01*
X160210500Y-47240500D02*
X158880500Y-47240500D01*
G04 #@! TO.C,R2*
X157945500Y-45595564D02*
X157945500Y-44141436D01*
X156125500Y-45595564D02*
X156125500Y-44141436D01*
G04 #@! TO.C,U1*
X153215500Y-43626000D02*
X153215500Y-40176000D01*
X153215500Y-43626000D02*
X153215500Y-45576000D01*
X144345500Y-43626000D02*
X144345500Y-41676000D01*
X144345500Y-43626000D02*
X144345500Y-45576000D01*
G04 #@! TO.C,J1*
X153673500Y-39620500D02*
X153673500Y-38290500D01*
X155003500Y-39620500D02*
X153673500Y-39620500D01*
X156273500Y-39620500D02*
X156273500Y-36960500D01*
X156273500Y-36960500D02*
X158873500Y-36960500D01*
X156273500Y-39620500D02*
X158873500Y-39620500D01*
X158873500Y-39620500D02*
X158873500Y-36960500D01*
G04 #@! TO.C,R1*
X150950436Y-39533500D02*
X151404564Y-39533500D01*
X150950436Y-38063500D02*
X151404564Y-38063500D01*
G04 #@! TD*
G04 #@! TO.C,C1*
D12*
X155662333Y-41505142D02*
X155614714Y-41552761D01*
X155471857Y-41600380D01*
X155376619Y-41600380D01*
X155233761Y-41552761D01*
X155138523Y-41457523D01*
X155090904Y-41362285D01*
X155043285Y-41171809D01*
X155043285Y-41028952D01*
X155090904Y-40838476D01*
X155138523Y-40743238D01*
X155233761Y-40648000D01*
X155376619Y-40600380D01*
X155471857Y-40600380D01*
X155614714Y-40648000D01*
X155662333Y-40695619D01*
X156614714Y-41600380D02*
X156043285Y-41600380D01*
X156329000Y-41600380D02*
X156329000Y-40600380D01*
X156233761Y-40743238D01*
X156138523Y-40838476D01*
X156043285Y-40886095D01*
G04 #@! TO.C,C2*
X154392333Y-45372642D02*
X154344714Y-45420261D01*
X154201857Y-45467880D01*
X154106619Y-45467880D01*
X153963761Y-45420261D01*
X153868523Y-45325023D01*
X153820904Y-45229785D01*
X153773285Y-45039309D01*
X153773285Y-44896452D01*
X153820904Y-44705976D01*
X153868523Y-44610738D01*
X153963761Y-44515500D01*
X154106619Y-44467880D01*
X154201857Y-44467880D01*
X154344714Y-44515500D01*
X154392333Y-44563119D01*
X154773285Y-44563119D02*
X154820904Y-44515500D01*
X154916142Y-44467880D01*
X155154238Y-44467880D01*
X155249476Y-44515500D01*
X155297095Y-44563119D01*
X155344714Y-44658357D01*
X155344714Y-44753595D01*
X155297095Y-44896452D01*
X154725666Y-45467880D01*
X155344714Y-45467880D01*
G04 #@! TO.C,D1*
X145987404Y-38996880D02*
X145987404Y-37996880D01*
X146225500Y-37996880D01*
X146368357Y-38044500D01*
X146463595Y-38139738D01*
X146511214Y-38234976D01*
X146558833Y-38425452D01*
X146558833Y-38568309D01*
X146511214Y-38758785D01*
X146463595Y-38854023D01*
X146368357Y-38949261D01*
X146225500Y-38996880D01*
X145987404Y-38996880D01*
X147511214Y-38996880D02*
X146939785Y-38996880D01*
X147225500Y-38996880D02*
X147225500Y-37996880D01*
X147130261Y-38139738D01*
X147035023Y-38234976D01*
X146939785Y-38282595D01*
G04 #@! TO.C,J2*
X160893166Y-46505880D02*
X160893166Y-47220166D01*
X160845547Y-47363023D01*
X160750309Y-47458261D01*
X160607452Y-47505880D01*
X160512214Y-47505880D01*
X161321738Y-46601119D02*
X161369357Y-46553500D01*
X161464595Y-46505880D01*
X161702690Y-46505880D01*
X161797928Y-46553500D01*
X161845547Y-46601119D01*
X161893166Y-46696357D01*
X161893166Y-46791595D01*
X161845547Y-46934452D01*
X161274119Y-47505880D01*
X161893166Y-47505880D01*
G04 #@! TO.C,R2*
X156868833Y-45346880D02*
X156535500Y-44870690D01*
X156297404Y-45346880D02*
X156297404Y-44346880D01*
X156678357Y-44346880D01*
X156773595Y-44394500D01*
X156821214Y-44442119D01*
X156868833Y-44537357D01*
X156868833Y-44680214D01*
X156821214Y-44775452D01*
X156773595Y-44823071D01*
X156678357Y-44870690D01*
X156297404Y-44870690D01*
X157249785Y-44442119D02*
X157297404Y-44394500D01*
X157392642Y-44346880D01*
X157630738Y-44346880D01*
X157725976Y-44394500D01*
X157773595Y-44442119D01*
X157821214Y-44537357D01*
X157821214Y-44632595D01*
X157773595Y-44775452D01*
X157202166Y-45346880D01*
X157821214Y-45346880D01*
G04 #@! TO.C,U1*
X144780095Y-42886380D02*
X144780095Y-43695904D01*
X144827714Y-43791142D01*
X144875333Y-43838761D01*
X144970571Y-43886380D01*
X145161047Y-43886380D01*
X145256285Y-43838761D01*
X145303904Y-43791142D01*
X145351523Y-43695904D01*
X145351523Y-42886380D01*
X146351523Y-43886380D02*
X145780095Y-43886380D01*
X146065809Y-43886380D02*
X146065809Y-42886380D01*
X145970571Y-43029238D01*
X145875333Y-43124476D01*
X145780095Y-43172095D01*
G04 #@! TO.C,J1*
X153590666Y-36536380D02*
X153590666Y-37250666D01*
X153543047Y-37393523D01*
X153447809Y-37488761D01*
X153304952Y-37536380D01*
X153209714Y-37536380D01*
X154590666Y-37536380D02*
X154019238Y-37536380D01*
X154304952Y-37536380D02*
X154304952Y-36536380D01*
X154209714Y-36679238D01*
X154114476Y-36774476D01*
X154019238Y-36822095D01*
G04 #@! TO.C,R1*
X150963333Y-37790380D02*
X150630000Y-37314190D01*
X150391904Y-37790380D02*
X150391904Y-36790380D01*
X150772857Y-36790380D01*
X150868095Y-36838000D01*
X150915714Y-36885619D01*
X150963333Y-36980857D01*
X150963333Y-37123714D01*
X150915714Y-37218952D01*
X150868095Y-37266571D01*
X150772857Y-37314190D01*
X150391904Y-37314190D01*
X151915714Y-37790380D02*
X151344285Y-37790380D01*
X151630000Y-37790380D02*
X151630000Y-36790380D01*
X151534761Y-36933238D01*
X151439523Y-37028476D01*
X151344285Y-37076095D01*
G04 #@! TD*
M02*
