G04 #@! TF.GenerationSoftware,KiCad,Pcbnew,(5.1.9)-1*
G04 #@! TF.CreationDate,2021-04-09T17:17:31+02:00*
G04 #@! TF.ProjectId,Token,546f6b65-6e2e-46b6-9963-61645f706362,rev?*
G04 #@! TF.SameCoordinates,Original*
G04 #@! TF.FileFunction,Soldermask,Top*
G04 #@! TF.FilePolarity,Negative*
%FSLAX46Y46*%
G04 Gerber Fmt 4.6, Leading zero omitted, Abs format (unit mm)*
G04 Created by KiCad (PCBNEW (5.1.9)-1) date 2021-04-09 17:17:31*
%MOMM*%
%LPD*%
G01*
G04 APERTURE LIST*
G04 #@! TA.AperFunction,Profile*
%ADD10C,0.050000*%
G04 #@! TD*
%ADD11O,1.802000X1.802000*%
G04 APERTURE END LIST*
D10*
X161988500Y-47688500D02*
X158115000Y-47688500D01*
X161988500Y-36512500D02*
X161988500Y-47688500D01*
X158115000Y-36512500D02*
X161988500Y-36512500D01*
X137985500Y-36512500D02*
X138049000Y-36512500D01*
X137985500Y-47688500D02*
X137985500Y-36512500D01*
X158115000Y-47688500D02*
X137985500Y-47688500D01*
X138049000Y-36512500D02*
X158115000Y-36512500D01*
X161988500Y-47688500D02*
X158115000Y-47688500D01*
X161988500Y-36512500D02*
X161988500Y-47688500D01*
X158115000Y-36512500D02*
X161988500Y-36512500D01*
X137985500Y-36512500D02*
X138049000Y-36512500D01*
X137985500Y-47688500D02*
X137985500Y-36512500D01*
X158115000Y-47688500D02*
X137985500Y-47688500D01*
X138049000Y-36512500D02*
X158115000Y-36512500D01*
G04 #@! TO.C,C1*
G36*
G01*
X157908000Y-40492400D02*
X157908000Y-41803600D01*
G75*
G02*
X157637600Y-42074000I-270400J0D01*
G01*
X156826400Y-42074000D01*
G75*
G02*
X156556000Y-41803600I0J270400D01*
G01*
X156556000Y-40492400D01*
G75*
G02*
X156826400Y-40222000I270400J0D01*
G01*
X157637600Y-40222000D01*
G75*
G02*
X157908000Y-40492400I0J-270400D01*
G01*
G37*
G36*
G01*
X155108000Y-40492400D02*
X155108000Y-41803600D01*
G75*
G02*
X154837600Y-42074000I-270400J0D01*
G01*
X154026400Y-42074000D01*
G75*
G02*
X153756000Y-41803600I0J270400D01*
G01*
X153756000Y-40492400D01*
G75*
G02*
X154026400Y-40222000I270400J0D01*
G01*
X154837600Y-40222000D01*
G75*
G02*
X155108000Y-40492400I0J-270400D01*
G01*
G37*
G04 #@! TD*
G04 #@! TO.C,C2*
G36*
G01*
X154030400Y-42942500D02*
X155341600Y-42942500D01*
G75*
G02*
X155612000Y-43212900I0J-270400D01*
G01*
X155612000Y-44024100D01*
G75*
G02*
X155341600Y-44294500I-270400J0D01*
G01*
X154030400Y-44294500D01*
G75*
G02*
X153760000Y-44024100I0J270400D01*
G01*
X153760000Y-43212900D01*
G75*
G02*
X154030400Y-42942500I270400J0D01*
G01*
G37*
G36*
G01*
X154030400Y-45742500D02*
X155341600Y-45742500D01*
G75*
G02*
X155612000Y-46012900I0J-270400D01*
G01*
X155612000Y-46824100D01*
G75*
G02*
X155341600Y-47094500I-270400J0D01*
G01*
X154030400Y-47094500D01*
G75*
G02*
X153760000Y-46824100I0J270400D01*
G01*
X153760000Y-46012900D01*
G75*
G02*
X154030400Y-45742500I270400J0D01*
G01*
G37*
G04 #@! TD*
G04 #@! TO.C,D1*
G36*
G01*
X144411000Y-39274684D02*
X144411000Y-37814316D01*
G75*
G02*
X144681816Y-37543500I270816J0D01*
G01*
X145467184Y-37543500D01*
G75*
G02*
X145738000Y-37814316I0J-270816D01*
G01*
X145738000Y-39274684D01*
G75*
G02*
X145467184Y-39545500I-270816J0D01*
G01*
X144681816Y-39545500D01*
G75*
G02*
X144411000Y-39274684I0J270816D01*
G01*
G37*
G36*
G01*
X147736000Y-39274684D02*
X147736000Y-37814316D01*
G75*
G02*
X148006816Y-37543500I270816J0D01*
G01*
X148792184Y-37543500D01*
G75*
G02*
X149063000Y-37814316I0J-270816D01*
G01*
X149063000Y-39274684D01*
G75*
G02*
X148792184Y-39545500I-270816J0D01*
G01*
X148006816Y-39545500D01*
G75*
G02*
X147736000Y-39274684I0J270816D01*
G01*
G37*
G04 #@! TD*
D11*
G04 #@! TO.C,J2*
X160210500Y-38290500D03*
X160210500Y-40830500D03*
X160210500Y-43370500D03*
G36*
G01*
X161111500Y-45060500D02*
X161111500Y-46760500D01*
G75*
G02*
X161060500Y-46811500I-51000J0D01*
G01*
X159360500Y-46811500D01*
G75*
G02*
X159309500Y-46760500I0J51000D01*
G01*
X159309500Y-45060500D01*
G75*
G02*
X159360500Y-45009500I51000J0D01*
G01*
X161060500Y-45009500D01*
G75*
G02*
X161111500Y-45060500I0J-51000D01*
G01*
G37*
G04 #@! TD*
G04 #@! TO.C,R2*
G36*
G01*
X157691885Y-47119500D02*
X156379115Y-47119500D01*
G75*
G02*
X156109500Y-46849885I0J269615D01*
G01*
X156109500Y-45987115D01*
G75*
G02*
X156379115Y-45717500I269615J0D01*
G01*
X157691885Y-45717500D01*
G75*
G02*
X157961500Y-45987115I0J-269615D01*
G01*
X157961500Y-46849885D01*
G75*
G02*
X157691885Y-47119500I-269615J0D01*
G01*
G37*
G36*
G01*
X157691885Y-44019500D02*
X156379115Y-44019500D01*
G75*
G02*
X156109500Y-43749885I0J269615D01*
G01*
X156109500Y-42887115D01*
G75*
G02*
X156379115Y-42617500I269615J0D01*
G01*
X157691885Y-42617500D01*
G75*
G02*
X157961500Y-42887115I0J-269615D01*
G01*
X157961500Y-43749885D01*
G75*
G02*
X157691885Y-44019500I-269615J0D01*
G01*
G37*
G04 #@! TD*
G04 #@! TO.C,J4*
G36*
G01*
X141466000Y-46760500D02*
X141466000Y-45060500D01*
G75*
G02*
X141517000Y-45009500I51000J0D01*
G01*
X143217000Y-45009500D01*
G75*
G02*
X143268000Y-45060500I0J-51000D01*
G01*
X143268000Y-46760500D01*
G75*
G02*
X143217000Y-46811500I-51000J0D01*
G01*
X141517000Y-46811500D01*
G75*
G02*
X141466000Y-46760500I0J51000D01*
G01*
G37*
X139827000Y-45910500D03*
X142367000Y-43370500D03*
X139827000Y-43370500D03*
X142367000Y-40830500D03*
X139827000Y-40830500D03*
X142367000Y-38290500D03*
X139827000Y-38290500D03*
G04 #@! TD*
G04 #@! TO.C,U1*
G36*
G01*
X152415000Y-40125000D02*
X152766000Y-40125000D01*
G75*
G02*
X152941500Y-40300500I0J-175500D01*
G01*
X152941500Y-42001500D01*
G75*
G02*
X152766000Y-42177000I-175500J0D01*
G01*
X152415000Y-42177000D01*
G75*
G02*
X152239500Y-42001500I0J175500D01*
G01*
X152239500Y-40300500D01*
G75*
G02*
X152415000Y-40125000I175500J0D01*
G01*
G37*
G36*
G01*
X151145000Y-40125000D02*
X151496000Y-40125000D01*
G75*
G02*
X151671500Y-40300500I0J-175500D01*
G01*
X151671500Y-42001500D01*
G75*
G02*
X151496000Y-42177000I-175500J0D01*
G01*
X151145000Y-42177000D01*
G75*
G02*
X150969500Y-42001500I0J175500D01*
G01*
X150969500Y-40300500D01*
G75*
G02*
X151145000Y-40125000I175500J0D01*
G01*
G37*
G36*
G01*
X149875000Y-40125000D02*
X150226000Y-40125000D01*
G75*
G02*
X150401500Y-40300500I0J-175500D01*
G01*
X150401500Y-42001500D01*
G75*
G02*
X150226000Y-42177000I-175500J0D01*
G01*
X149875000Y-42177000D01*
G75*
G02*
X149699500Y-42001500I0J175500D01*
G01*
X149699500Y-40300500D01*
G75*
G02*
X149875000Y-40125000I175500J0D01*
G01*
G37*
G36*
G01*
X148605000Y-40125000D02*
X148956000Y-40125000D01*
G75*
G02*
X149131500Y-40300500I0J-175500D01*
G01*
X149131500Y-42001500D01*
G75*
G02*
X148956000Y-42177000I-175500J0D01*
G01*
X148605000Y-42177000D01*
G75*
G02*
X148429500Y-42001500I0J175500D01*
G01*
X148429500Y-40300500D01*
G75*
G02*
X148605000Y-40125000I175500J0D01*
G01*
G37*
G36*
G01*
X147335000Y-40125000D02*
X147686000Y-40125000D01*
G75*
G02*
X147861500Y-40300500I0J-175500D01*
G01*
X147861500Y-42001500D01*
G75*
G02*
X147686000Y-42177000I-175500J0D01*
G01*
X147335000Y-42177000D01*
G75*
G02*
X147159500Y-42001500I0J175500D01*
G01*
X147159500Y-40300500D01*
G75*
G02*
X147335000Y-40125000I175500J0D01*
G01*
G37*
G36*
G01*
X146065000Y-40125000D02*
X146416000Y-40125000D01*
G75*
G02*
X146591500Y-40300500I0J-175500D01*
G01*
X146591500Y-42001500D01*
G75*
G02*
X146416000Y-42177000I-175500J0D01*
G01*
X146065000Y-42177000D01*
G75*
G02*
X145889500Y-42001500I0J175500D01*
G01*
X145889500Y-40300500D01*
G75*
G02*
X146065000Y-40125000I175500J0D01*
G01*
G37*
G36*
G01*
X144795000Y-40125000D02*
X145146000Y-40125000D01*
G75*
G02*
X145321500Y-40300500I0J-175500D01*
G01*
X145321500Y-42001500D01*
G75*
G02*
X145146000Y-42177000I-175500J0D01*
G01*
X144795000Y-42177000D01*
G75*
G02*
X144619500Y-42001500I0J175500D01*
G01*
X144619500Y-40300500D01*
G75*
G02*
X144795000Y-40125000I175500J0D01*
G01*
G37*
G36*
G01*
X144795000Y-45075000D02*
X145146000Y-45075000D01*
G75*
G02*
X145321500Y-45250500I0J-175500D01*
G01*
X145321500Y-46951500D01*
G75*
G02*
X145146000Y-47127000I-175500J0D01*
G01*
X144795000Y-47127000D01*
G75*
G02*
X144619500Y-46951500I0J175500D01*
G01*
X144619500Y-45250500D01*
G75*
G02*
X144795000Y-45075000I175500J0D01*
G01*
G37*
G36*
G01*
X146065000Y-45075000D02*
X146416000Y-45075000D01*
G75*
G02*
X146591500Y-45250500I0J-175500D01*
G01*
X146591500Y-46951500D01*
G75*
G02*
X146416000Y-47127000I-175500J0D01*
G01*
X146065000Y-47127000D01*
G75*
G02*
X145889500Y-46951500I0J175500D01*
G01*
X145889500Y-45250500D01*
G75*
G02*
X146065000Y-45075000I175500J0D01*
G01*
G37*
G36*
G01*
X147335000Y-45075000D02*
X147686000Y-45075000D01*
G75*
G02*
X147861500Y-45250500I0J-175500D01*
G01*
X147861500Y-46951500D01*
G75*
G02*
X147686000Y-47127000I-175500J0D01*
G01*
X147335000Y-47127000D01*
G75*
G02*
X147159500Y-46951500I0J175500D01*
G01*
X147159500Y-45250500D01*
G75*
G02*
X147335000Y-45075000I175500J0D01*
G01*
G37*
G36*
G01*
X148605000Y-45075000D02*
X148956000Y-45075000D01*
G75*
G02*
X149131500Y-45250500I0J-175500D01*
G01*
X149131500Y-46951500D01*
G75*
G02*
X148956000Y-47127000I-175500J0D01*
G01*
X148605000Y-47127000D01*
G75*
G02*
X148429500Y-46951500I0J175500D01*
G01*
X148429500Y-45250500D01*
G75*
G02*
X148605000Y-45075000I175500J0D01*
G01*
G37*
G36*
G01*
X149875000Y-45075000D02*
X150226000Y-45075000D01*
G75*
G02*
X150401500Y-45250500I0J-175500D01*
G01*
X150401500Y-46951500D01*
G75*
G02*
X150226000Y-47127000I-175500J0D01*
G01*
X149875000Y-47127000D01*
G75*
G02*
X149699500Y-46951500I0J175500D01*
G01*
X149699500Y-45250500D01*
G75*
G02*
X149875000Y-45075000I175500J0D01*
G01*
G37*
G36*
G01*
X151145000Y-45075000D02*
X151496000Y-45075000D01*
G75*
G02*
X151671500Y-45250500I0J-175500D01*
G01*
X151671500Y-46951500D01*
G75*
G02*
X151496000Y-47127000I-175500J0D01*
G01*
X151145000Y-47127000D01*
G75*
G02*
X150969500Y-46951500I0J175500D01*
G01*
X150969500Y-45250500D01*
G75*
G02*
X151145000Y-45075000I175500J0D01*
G01*
G37*
G36*
G01*
X152415000Y-45075000D02*
X152766000Y-45075000D01*
G75*
G02*
X152941500Y-45250500I0J-175500D01*
G01*
X152941500Y-46951500D01*
G75*
G02*
X152766000Y-47127000I-175500J0D01*
G01*
X152415000Y-47127000D01*
G75*
G02*
X152239500Y-46951500I0J175500D01*
G01*
X152239500Y-45250500D01*
G75*
G02*
X152415000Y-45075000I175500J0D01*
G01*
G37*
G04 #@! TD*
G04 #@! TO.C,J1*
G36*
G01*
X155853500Y-39191500D02*
X154153500Y-39191500D01*
G75*
G02*
X154102500Y-39140500I0J51000D01*
G01*
X154102500Y-37440500D01*
G75*
G02*
X154153500Y-37389500I51000J0D01*
G01*
X155853500Y-37389500D01*
G75*
G02*
X155904500Y-37440500I0J-51000D01*
G01*
X155904500Y-39140500D01*
G75*
G02*
X155853500Y-39191500I-51000J0D01*
G01*
G37*
X157543500Y-38290500D03*
G04 #@! TD*
G04 #@! TO.C,R1*
G36*
G01*
X149526500Y-39278252D02*
X149526500Y-38318748D01*
G75*
G02*
X149797748Y-38047500I271248J0D01*
G01*
X150557252Y-38047500D01*
G75*
G02*
X150828500Y-38318748I0J-271248D01*
G01*
X150828500Y-39278252D01*
G75*
G02*
X150557252Y-39549500I-271248J0D01*
G01*
X149797748Y-39549500D01*
G75*
G02*
X149526500Y-39278252I0J271248D01*
G01*
G37*
G36*
G01*
X151526500Y-39278252D02*
X151526500Y-38318748D01*
G75*
G02*
X151797748Y-38047500I271248J0D01*
G01*
X152557252Y-38047500D01*
G75*
G02*
X152828500Y-38318748I0J-271248D01*
G01*
X152828500Y-39278252D01*
G75*
G02*
X152557252Y-39549500I-271248J0D01*
G01*
X151797748Y-39549500D01*
G75*
G02*
X151526500Y-39278252I0J271248D01*
G01*
G37*
G04 #@! TD*
M02*
